<svg width="76" height="77" viewBox="0 0 76 77" fill="none" xmlns="http://www.w3.org/2000/svg">
<g clip-path="url(#clip0_788_3893)">
<path fill-rule="evenodd" clip-rule="evenodd" d="M14.4319 46.9492C12.9313 46.9492 11.6662 46.2405 10.835 45.5098C7.34834 42.4702 9.23876 35.8941 14.579 35.8941C17.5581 35.8941 20.0664 38.4661 20.0664 40.7604V41.6445C20.0664 44.6987 17.536 46.9492 14.4319 46.9492ZM12.2031 22.4863C12.2031 21.8944 12.5194 20.8203 12.7401 20.3673C15.2778 15.1503 23.3324 16.6555 23.3324 22.932C23.3324 27.148 17.6684 30.3629 13.792 26.505C12.8651 25.577 12.2031 24.291 12.2031 22.4863ZM27.7826 14.8215C27.7826 8.61079 35.6753 4.6067 40.6478 9.55336C44.4286 13.309 43.2002 19.4028 38.5661 21.5583C35.462 22.9977 32.2402 22.2817 30.1143 20.17C29.3935 19.4467 28.9521 18.8841 28.5182 17.9196C28.2092 17.2181 27.7826 15.8152 27.7826 14.8215ZM59.0812 15.1211L58.6105 14.4123C57.0731 12.0303 54.4839 9.01996 52.2625 7.31019C47.1576 3.39378 41.0597 0.529541 34.4542 0.529541C27.8561 0.529541 23.8178 1.53056 18.5732 4.65054L14.9836 7.12752C11.7912 9.99176 10.4598 11.2412 7.92944 14.9969L6.25969 17.7661C6.06844 18.0949 5.93603 18.2849 5.72272 18.7014L3.87643 22.9101C2.93489 25.7597 2.58917 26.3808 1.90509 29.793C1.20629 33.271 0.603124 36.2887 0.485432 40.322C0.463365 41.3011 0.21327 41.8564 0.397163 43.0547C0.831152 45.8678 0.338317 46.8908 1.81682 50.6318C2.08898 51.3259 2.42735 51.9324 2.80985 52.5973C2.98638 52.9115 3.21441 53.1819 3.42773 53.4522C5.86248 56.4626 9.17992 57.7778 13.2035 57.8947C13.8435 57.9166 13.5934 57.8947 14.4908 57.1786C14.8291 56.9156 15.0277 56.7256 15.322 56.5356C18.3231 54.6067 17.4331 55.3081 20.2871 54.0879C21.1109 53.7372 22.7145 51.9032 23.3765 51.114L45.6938 28.7847C45.9733 28.507 46.1572 28.3317 46.4367 28.054C46.8045 27.6887 46.856 27.5279 47.1797 27.1626C48.0624 26.1689 49.1731 25.1825 50.144 24.218C51.1959 23.1731 52.1374 22.2378 53.1819 21.2003C54.506 19.8851 58.25 16.3559 59.0812 15.1211Z" fill="#2C2C2C"/>
<path fill-rule="evenodd" clip-rule="evenodd" d="M36.2324 42.382C36.5487 42.8424 36.8797 43.1054 37.3578 43.4707L45.7287 50.9236C46.3686 50.4998 47.3102 49.1261 47.8251 48.4393C48.1855 47.9644 48.5018 47.599 48.8622 47.1168L64.1254 27.3521C64.4711 26.8918 64.8168 26.468 65.1625 26.0223L74.2984 14.1707C74.725 13.6081 75.7916 13.1332 74.0998 11.2481C73.5334 10.6197 72.1799 9.51636 71.0986 9.51636C69.8481 9.51636 69.2818 10.5101 68.6124 11.175L63.2721 16.3335C62.8234 16.7866 62.5218 16.9254 62.0805 17.3638L58.969 20.4618C58.5203 20.9149 58.2187 21.0537 57.7774 21.4848L54.5923 24.6632C54.1363 25.1162 53.8421 25.2697 53.4007 25.6862L50.2892 28.7842C49.8185 29.2591 49.5757 29.4053 49.105 29.8218C47.6927 31.0493 41.3814 37.4646 40.5355 38.1076C39.8956 38.5898 36.637 41.7829 36.2324 42.382Z" fill="#2C2C2C"/>
<path fill-rule="evenodd" clip-rule="evenodd" d="M16.2114 71.112C14.6961 71.112 14.8726 68.6204 14.8726 67.5755C14.8726 65.9461 15.6523 65.4566 15.9098 64.3387C16.4026 64.4629 16.3438 64.5359 16.6895 64.8867C19.4185 67.6486 21.4045 66.991 24.3689 66.991C25.5385 66.991 26.3549 67.2613 27.3333 67.2833C26.0975 68.9638 20.6837 67.6632 18.3445 69.4022C17.7929 69.8114 16.9028 71.112 16.2114 71.112ZM12.3496 68.3135C12.3496 70.7759 14.7108 75.9783 16.3585 75.9783C18.9624 75.9783 17.0352 71.4043 21.2868 70.8563C23.42 70.5786 25.1045 70.8855 27.245 70.1475C29.4591 69.3803 31.9821 66.7718 32.3793 65.0766C31.857 64.9305 29.7092 62.7312 29.0324 62.2124C28.5469 61.8398 28.3336 61.511 27.8849 61.1383L23.3317 57.1123C20.9779 57.1123 17.609 59.4212 15.8877 60.7803C15.0565 61.4379 14.0267 62.8919 13.4897 63.8491C12.8498 64.9817 12.3496 66.6037 12.3496 68.3135Z" fill="#2C2C2C"/>
<path fill-rule="evenodd" clip-rule="evenodd" d="M30.455 55.7901C29.8297 55.7901 28.822 55.0375 28.822 54.0219L32.7205 49.4917C33.4635 48.7318 33.2722 48.2715 34.6036 48.2715C34.7654 48.2715 36.7956 49.2798 35.5378 50.6754C35.2362 51.0115 35.1479 51.1357 34.8611 51.4718L32.1174 54.4968C31.6392 55.0083 31.3671 55.7901 30.455 55.7901ZM24.666 55.0521L34.3094 63.601C35.0155 63.1334 41.1576 56.0605 42.2094 54.9425L43.4746 53.547C43.7541 53.2328 43.8718 53.1889 44.0999 52.8455C43.9233 52.5971 43.276 52.0929 42.9524 51.7714L34.4565 44.2966C33.4929 44.9396 33.1913 45.5899 32.6396 46.1745L25.8871 53.6127C25.5046 53.9927 24.9529 54.6357 24.666 55.0521Z" fill="#2C2C2C"/>
</g>
<defs>
<clipPath id="clip0_788_3893">
<rect width="74.6902" height="75.52" fill="white" transform="translate(0.330078 0.493408)"/>
</clipPath>
</defs>
</svg>
