<svg width="83" height="83" viewBox="0 0 83 83" fill="none" xmlns="http://www.w3.org/2000/svg">
<path opacity="0.05" d="M82.0302 41.0353C82.0302 63.2282 64.0703 81.2166 41.9186 81.2166C19.767 81.2166 1.80709 63.2282 1.80709 41.0353C1.80709 18.8424 19.767 0.853971 41.9186 0.853972C64.0703 0.853973 82.0302 18.8424 82.0302 41.0353Z" stroke="url(#paint0_linear_141_2206)" stroke-width="1.70794"/>
<g clip-path="url(#clip0_141_2206)">
<path fill-rule="evenodd" clip-rule="evenodd" d="M32.3145 50.5489L32.3145 56.2529C32.3145 56.6591 32.6551 56.993 33.0695 56.993L49.7537 56.993C50.2693 56.993 50.5087 56.6049 50.5087 56.0905L50.5087 51.2168C50.5087 50.1518 49.9378 49.9442 49.5603 49.5832L46.7888 47.1824C46.5402 46.9387 46.3653 46.8665 46.1075 46.6048C45.9325 46.4333 45.9417 46.4514 45.7392 46.3069L43.3268 44.2131C43.0505 43.9513 42.8848 43.9242 42.627 43.5813C42.185 43.0037 41.9088 42.76 41.6049 42.0199C41.3563 41.4152 41.163 40.7112 41.163 39.8989L40.9052 39.8989C40.9052 42.76 39.4043 43.5452 38.4007 44.547L34.8373 47.5795C34.6624 47.7059 34.644 47.733 34.4875 47.8864C34.3125 48.0488 34.3125 48.0218 34.1468 48.1391L33.18 49.0055C32.8025 49.3395 32.3145 49.5471 32.3145 50.5489Z" fill="url(#paint1_linear_141_2206)"/>
<path fill-rule="evenodd" clip-rule="evenodd" d="M34.7735 44.6554L36.8912 42.8594C37.7291 42.2095 37.7475 40.8828 36.8544 40.1969C36.0349 39.5741 34.5341 38.1481 33.6686 37.4983L31.5784 35.6752C30.8694 34.9802 30.317 34.1138 30.317 33.0217L30.317 26.0992L27.8493 26.0992C27.2969 26.0992 26.7905 25.5126 26.7905 24.9259C26.7905 24.6823 26.993 24.2851 27.1311 24.1498C27.2508 24.0144 27.6099 23.8158 27.8493 23.8158L54.975 23.8158C55.5274 23.8158 56.0339 24.4205 56.0339 24.9891C56.0339 25.4945 55.5182 26.0992 54.975 26.0992L52.5073 26.0992L52.5073 32.5434C52.5073 33.0217 52.2127 33.825 52.0285 34.1499C51.3564 35.2781 50.2699 35.8918 49.3768 36.7492L46.3382 39.3756C46.2093 39.4839 46.1909 39.4749 46.062 39.5832C45.4727 40.0976 44.7361 40.6211 44.7361 41.3341C44.7361 42.4532 45.0492 42.6698 46.0988 43.5272L50.583 47.3721C51.163 47.8233 51.6879 48.3378 52.0562 48.9786C52.2311 49.3035 52.5073 50.0887 52.5073 50.549L52.5073 56.9841L54.975 56.9841C55.8129 56.9841 56.439 58.2025 55.6932 58.9336C55.5643 59.0509 55.2236 59.2675 54.975 59.2675L27.8493 59.2675C27.2969 59.2675 26.7905 58.6628 26.7905 58.0942C26.7905 57.5888 27.3061 56.9841 27.8493 56.9841L30.317 56.9841L30.317 50.0616C30.317 49.5021 30.5472 48.8342 30.7405 48.4641L32.6557 46.4605C33.0056 46.1897 33.3555 45.8287 33.7146 45.558C34.0645 45.2962 34.4144 44.9262 34.7735 44.6554ZM54.0634 32.5434L54.0634 27.6245L54.975 27.6245C56.3745 27.6245 57.59 26.3429 57.59 24.9891C57.59 24.583 57.4887 24.1768 57.3045 23.8158C56.8718 22.9494 55.997 22.2905 54.975 22.2905L27.8493 22.2905C27.1956 22.2905 26.4222 22.6515 25.9802 23.1209C25.8052 23.3104 25.6487 23.5541 25.5198 23.8158C25.3449 24.1768 25.2344 24.5739 25.2344 24.9259C25.2344 26.3068 26.3945 27.6245 27.8493 27.6245L28.7701 27.6245L28.7701 33.0217C28.7701 34.4928 29.4423 35.7383 30.4735 36.7492L32.7202 38.6987C33.8159 39.538 34.8011 40.5579 35.8968 41.3973C35.952 41.4424 36.0257 41.5868 35.906 41.6861L33.7883 43.4821C33.4292 43.7529 33.1161 44.0868 32.7662 44.3486C32.3887 44.6283 32.0756 44.9713 31.7073 45.2511L31.606 45.3233L29.4607 47.5796L29.3594 47.7692C29.0187 48.428 28.7701 49.3125 28.7701 50.0616L28.7701 55.4588L27.8493 55.4588C26.4498 55.4588 25.2344 56.7404 25.2344 58.0942C25.2344 58.5004 25.3357 58.9065 25.5198 59.2675C25.9526 60.143 26.8273 60.7928 27.8493 60.7928L54.975 60.7928C55.6195 60.7928 56.3285 60.4498 56.7889 60.0166C57.0191 59.791 57.194 59.5383 57.3229 59.2675C58.1056 57.6339 56.9546 55.4588 54.975 55.4588L54.0634 55.4588L54.0634 50.549C54.0634 49.8631 53.7504 48.8432 53.4097 48.2385C52.9585 47.4352 52.314 46.7764 51.5866 46.1988L47.1209 42.381L46.3106 41.677C46.2922 41.6229 46.2922 41.5326 46.2922 41.4514C46.4487 41.2438 46.9275 40.8648 47.0933 40.7294L47.3511 40.5308L50.4356 37.8593L50.4633 37.8413C51.5405 36.8124 52.5626 36.2708 53.3729 34.917C53.732 34.2943 54.0634 33.2473 54.0634 32.5434Z" fill="url(#paint2_linear_141_2206)"/>
</g>
<defs>
<linearGradient id="paint0_linear_141_2206" x1="76.9183" y1="82.0704" x2="0.718739" y2="81.6305" gradientUnits="userSpaceOnUse">
<stop stop-color="#001F68"/>
<stop offset="1" stop-color="#0091FB"/>
</linearGradient>
<linearGradient id="paint1_linear_141_2206" x1="49.1839" y1="56.993" x2="32.2625" y2="56.8888" gradientUnits="userSpaceOnUse">
<stop stop-color="#001F68"/>
<stop offset="1" stop-color="#0091FB"/>
</linearGradient>
<linearGradient id="paint2_linear_141_2206" x1="55.234" y1="60.7927" x2="25.1415" y2="60.6464" gradientUnits="userSpaceOnUse">
<stop stop-color="#001F68"/>
<stop offset="1" stop-color="#0091FB"/>
</linearGradient>
<clipPath id="clip0_141_2206">
<rect width="32.3678" height="38.5023" fill="white" transform="translate(25.2285 22.29)"/>
</clipPath>
</defs>
</svg>
