<svg width="301" height="345" viewBox="0 0 301 345" fill="none" xmlns="http://www.w3.org/2000/svg">
<path d="M20.2461 64.634C20.2461 78.3314 23.5051 90.6454 30.0125 101.581C36.5252 112.517 44.6936 122.454 54.5179 131.401C64.3421 140.349 74.9916 148.523 86.4663 155.919C97.9463 163.32 108.596 170.168 118.42 176.465C128.244 182.761 136.413 188.784 142.92 194.523C149.433 200.267 152.692 206.011 152.692 211.755C152.692 214.848 151.919 217.11 150.374 218.546C148.828 219.982 146.952 220.702 144.744 220.702C140.77 220.702 137.07 218.877 133.648 215.232C130.231 211.592 126.809 207.615 123.387 203.307C119.965 198.994 116.381 195.017 112.627 191.377C108.874 187.732 104.68 185.907 100.044 185.907C95.4075 185.907 92.5375 187.732 91.4336 191.377C90.3298 195.017 90.6609 199.052 92.4271 203.47C97.5048 216.726 102.194 228.987 106.504 240.249C110.804 251.516 114.998 262.557 119.082 273.383C123.167 284.208 127.309 295.365 131.498 306.848C135.698 318.336 140.439 330.929 145.738 344.621H149.049L255.003 64.634C262.293 46.3024 269.132 32.605 275.534 23.547C281.936 14.4943 290.215 9.96535 300.365 9.96535V6.65146H191.763V9.96535C203.464 9.96535 212.294 11.5118 218.25 14.5995C224.211 17.6925 228.184 22.0006 230.171 27.5237C232.158 33.0469 232.432 39.4537 231.002 46.7443C229.567 54.0296 227.301 61.8724 224.211 70.2676L183.153 178.616C184.477 168.017 185.14 154.761 185.14 138.855C185.14 118.756 182.764 100.198 178.022 83.1918C173.276 66.1805 166.432 51.5468 157.491 39.2907C148.55 27.0293 137.622 17.419 124.712 10.4598C111.797 3.50064 97.0633 0.0236816 80.5056 0.0236816C71.0177 0.0236816 62.5181 1.79109 55.012 5.32065C47.5058 8.85546 41.1613 13.5528 35.9733 19.4073C30.7852 25.2566 26.8692 32.1053 24.2199 39.9482C21.5707 47.791 20.2461 56.0179 20.2461 64.634ZM48.3942 70.9304C48.3942 55.2499 52.9725 42.1574 62.1292 31.6634C71.2911 21.1747 84.0431 15.9304 100.375 15.9304C114.278 15.9304 126.315 19.7387 136.465 27.3606C146.621 34.9773 155.068 44.7559 161.796 56.686C168.529 68.6107 173.549 81.8084 176.866 96.2791C180.172 110.75 181.828 124.721 181.828 138.197C181.828 150.564 181.444 161.557 180.672 171.162C179.899 180.773 177.965 190.546 174.874 200.488L134.81 306.185L96.7321 204.796C94.5244 199.052 93.9147 195.017 94.9081 192.703C95.9016 190.383 97.7256 189.226 100.375 189.226C104.128 189.226 107.771 191.046 111.303 194.691C114.835 198.336 118.42 202.313 122.063 206.621C125.705 210.924 129.406 214.901 133.154 218.546C136.907 222.191 140.991 224.016 145.406 224.016C148.497 224.016 151.094 222.964 153.186 220.866C155.283 218.767 156.335 215.505 156.335 211.092C156.335 203.802 153.685 197.116 148.387 191.046C143.088 184.97 136.413 179.005 128.355 173.151C120.297 167.296 111.634 161.279 102.362 155.093C93.0894 148.907 84.4268 141.837 76.3688 133.889C68.3107 125.936 61.6351 116.878 56.3366 106.715C51.0381 96.5526 48.3942 84.6278 48.3942 70.9304Z" fill="white"/>
<path fill-rule="evenodd" clip-rule="evenodd" d="M0.197266 7.0197C10.3474 7.0197 18.6262 11.5487 25.0285 20.6067C25.2651 20.9433 25.5069 21.2852 25.7434 21.6376C27.3939 19.0286 29.2337 16.5721 31.2732 14.2734C34.8948 10.1863 39.0842 6.66201 43.836 3.70581H0.197266V7.0197Z" fill="white"/>
</svg>
