<svg width="29" height="28" viewBox="0 0 29 28" fill="none" xmlns="http://www.w3.org/2000/svg">
<path fill-rule="evenodd" clip-rule="evenodd" d="M8.08195 15.1579L8.4369 15.0178L8.29689 14.2932C7.99352 12.0554 9.25612 10.4059 10.2866 9.49213C10.1429 9.15928 9.43175 8.72204 9.35929 8.46043L13.5389 8.03178L13.1078 12.2151C12.9506 12.1451 12.1572 11.3283 12.0392 11.1674C11.8857 11.2571 11.4546 11.6833 11.3404 11.8257C11.1463 12.0652 10.9523 12.263 10.7582 12.5393C10.434 13.0036 10.079 13.587 9.92427 14.2957C9.68477 15.3937 10.0483 16.4266 10.6894 17.2458C10.8135 17.403 10.8663 17.4841 10.9842 17.5983C11.1181 17.7273 11.2065 17.7997 11.2974 17.9496C11.3809 17.9791 11.3134 17.9348 11.4141 18.0171C11.4694 18.0626 11.4694 18.0798 11.5369 18.1436C11.6217 18.2235 11.6732 18.2738 11.7776 18.2603C11.855 18.108 11.8698 18.108 11.9815 17.9999C12.0491 17.8636 12.1019 17.8378 12.1682 17.6929C11.9926 17.5246 11.7875 17.3907 11.5787 17.1549C11.0726 16.5838 10.2448 15.1345 10.6575 14.6396C10.6182 14.0684 11.2028 13.1718 11.5516 12.7346C11.6904 12.5602 11.8587 12.3968 11.9864 12.2298C12.3721 12.4865 13.3276 13.6619 13.6863 13.8646L14.0547 10.3236C14.8752 9.93428 16.833 10.568 17.5588 11.3725C18.0022 11.865 18.1607 11.9203 18.5316 12.7407C18.7944 13.3192 18.9258 14.0635 18.8521 14.7783C18.62 17.3748 16.1808 19.023 13.6887 18.431C13.3375 18.3475 13.0009 18.1473 12.7356 18.0957L12.5907 18.393L12.4851 18.603L12.4139 18.7541C13.4984 19.1139 14.1346 19.5119 15.6477 19.2171C16.4448 19.0623 17.861 18.3991 18.1435 17.8968C18.4468 17.672 18.7969 17.1574 18.9971 16.7926C19.788 15.3495 19.8237 13.6029 19.0965 12.1758C18.6605 11.3209 17.9961 10.6565 17.2444 10.1922C16.0137 9.4344 15.2965 9.56705 14.137 9.50809L14.25 8.65817C16.0248 8.51938 17.3918 9.11384 18.6175 10.1652C19.8163 11.192 20.3174 12.597 20.4771 14.1986L20.8553 14.222L21.2201 14.2121C21.1857 13.3991 21.0261 13.0122 20.8959 12.317C20.5851 11.6243 20.5618 11.2829 19.96 10.5165C18.4763 8.62747 16.7703 7.88317 14.3225 7.88317C14.3225 7.63384 14.3716 7.49874 14.3716 7.18555L7.84122 7.83773C7.57716 7.88563 7.7663 7.98634 7.90632 8.12022C8.25267 8.45183 8.90731 9.20473 9.24015 9.42826C9.12593 9.59898 8.96012 9.76847 8.82011 9.95393C8.07827 10.9365 7.5833 12.0665 7.49609 13.2726V14.0316C7.51452 14.2846 7.55136 14.5388 7.60786 14.7968C7.63365 14.9134 7.68401 15.0584 7.69629 15.207L8.08195 15.1579Z" fill="white"/>
<path fill-rule="evenodd" clip-rule="evenodd" d="M16.3218 16.5961C16.2039 16.5359 14.7116 15.0768 14.6342 14.9479C14.5052 14.7317 14.5851 12.2004 14.5851 11.7054L15.3355 11.6992V14.4099C15.3355 14.6678 15.489 14.7354 15.6413 14.8865L16.8106 16.0471C16.7123 16.267 16.4778 16.4242 16.3218 16.5961ZM11.9825 18C12.1151 18.167 12.3559 18.3156 12.5917 18.393L12.7366 18.0958C13.0019 18.1474 13.3384 18.3476 13.6897 18.4311C16.1818 19.0231 18.621 17.3748 18.8531 14.7784C18.9268 14.0636 18.7954 13.3193 18.5326 12.7408C18.1616 11.9203 18.0032 11.8651 17.5598 11.3725C16.8339 10.5681 14.8762 9.9343 14.0557 10.3236L13.6873 13.8646C13.3286 13.6619 12.3731 12.4865 11.9874 12.2298C11.8597 12.3969 11.6914 12.5602 11.5526 12.7346C11.2038 13.1719 10.6192 14.0685 10.6585 14.6396C10.2458 15.1346 11.0736 16.5838 11.5796 17.155C11.7884 17.3908 11.9935 17.5247 12.1692 17.6929C12.1029 17.8379 12.05 17.8636 11.9825 18Z" fill="white"/>
<path fill-rule="evenodd" clip-rule="evenodd" d="M20.3917 15.3062C20.2504 16.7665 19.2605 18.0488 18.5359 18.7218C16.4528 20.6526 12.8149 20.5973 10.9075 18.7218C10.2442 18.0709 8.94969 16.6646 8.6979 15.6869L8.2926 15.8171C8.20171 15.8663 8.08503 15.9068 7.99414 15.9547C8.14275 16.5934 8.86126 17.5735 9.28253 18.1028L9.83768 18.7562C9.99244 18.857 10.1754 19.0805 10.3511 19.2279C10.9738 19.7499 11.3422 20.0311 12.1725 20.3947C14.2162 21.2925 16.7402 20.9818 18.5076 19.6909C19.3293 19.0915 19.8181 18.5155 20.4089 17.5587C20.797 16.7936 21.0991 16.0136 21.1925 15.0065L20.8535 14.9684L20.458 14.939L20.3917 15.3062Z" fill="white"/>
<path fill-rule="evenodd" clip-rule="evenodd" d="M16.3217 16.5961C16.4776 16.4241 16.7122 16.2669 16.8105 16.0471L15.6412 14.8864C15.4889 14.7354 15.3354 14.6678 15.3354 14.4099V11.6992L14.585 11.7054C14.585 12.2003 14.5051 14.7317 14.6341 14.9478C14.7115 15.0768 16.2038 16.5359 16.3217 16.5961Z" fill="white"/>
</svg>
