<svg width="21" height="21" viewBox="0 0 21 21" fill="none" xmlns="http://www.w3.org/2000/svg">
<path d="M12.075 20.8882H8.33885C7.85655 20.8882 7.43925 20.5626 7.33604 20.1054L6.91828 18.2292C6.36099 17.9923 5.83256 17.6961 5.34273 17.3459L3.4572 17.9285C2.99737 18.0708 2.49749 17.883 2.25629 17.4774L0.384104 14.3394C0.145552 13.9336 0.227738 13.4217 0.582203 13.1055L2.04485 11.8109C1.97833 11.2244 1.97833 10.6326 2.04485 10.0462L0.582203 8.75454C0.227216 8.43822 0.144997 7.92569 0.384104 7.51966L2.25219 4.37968C2.49338 3.97406 2.99326 3.78628 3.45309 3.92856L5.33862 4.51114C5.58914 4.33104 5.84992 4.1648 6.11973 4.0132C6.37874 3.87149 6.64529 3.74317 6.91828 3.6288L7.33706 1.75457C7.43977 1.29744 7.85662 0.971318 8.33885 0.970825H12.075C12.5572 0.971318 12.9741 1.29744 13.0768 1.75457L13.4997 3.6298C13.7879 3.7528 14.0686 3.89179 14.3403 4.04607C14.5941 4.18826 14.8395 4.34419 15.0752 4.51313L16.9618 3.93055C17.4213 3.7888 17.9206 3.97652 18.1617 4.38168L20.0298 7.52165C20.2683 7.92745 20.1861 8.43936 19.8317 8.75553L18.369 10.0502C18.4355 10.6366 18.4355 11.2284 18.369 11.8148L19.8317 13.1095C20.1861 13.4256 20.2683 13.9376 20.0298 14.3434L18.1617 17.4833C17.9206 17.8885 17.4213 18.0762 16.9618 17.9345L15.0752 17.3519C14.8365 17.5225 14.5884 17.6804 14.3321 17.8249C14.063 17.9762 13.7854 18.1128 13.5007 18.2342L13.0768 20.1054C12.9737 20.5622 12.5569 20.8878 12.075 20.8882ZM10.2028 6.94604C7.93532 6.94604 6.09715 8.7295 6.09715 10.9295C6.09715 13.1295 7.93532 14.913 10.2028 14.913C12.4703 14.913 14.3085 13.1295 14.3085 10.9295C14.3085 8.7295 12.4703 6.94604 10.2028 6.94604Z" fill="white"/>
</svg>
