<svg width="81" height="80" viewBox="0 0 81 80" fill="none" xmlns="http://www.w3.org/2000/svg">
<g clip-path="url(#clip0_788_3927)">
<path fill-rule="evenodd" clip-rule="evenodd" d="M23.2402 44.665C23.2402 52.3301 22.0265 54.5863 27.4788 60.0294C28.3502 60.8976 29.0287 61.7286 29.8129 62.6777C31.1542 64.3116 32.8379 67.3739 33.9333 68.5129C34.786 69.3967 35.5609 70.1841 37.2446 70.1841H43.78C45.4356 70.1841 46.1701 69.4434 47.0103 68.5907C48.5384 67.0471 50.166 63.3904 53.387 60.185C59.0572 54.549 57.7844 52.4265 57.7844 44.665C57.0312 44.665 56.2128 44.4534 55.4721 44.332C51.6069 43.6878 48.4232 43.0031 44.6451 41.9326C38.2622 40.1182 42.6938 40.361 32.2964 42.9845L25.705 44.3289C24.8803 44.444 24.0213 44.665 23.2402 44.665Z" fill="#2C2C2C"/>
<path fill-rule="evenodd" clip-rule="evenodd" d="M21.9961 21.7914L29.7234 25.7345C30.1747 25.9523 30.4703 26.0332 30.9185 26.2511C32.1228 26.833 39.6448 29.9669 40.513 29.9669C41.4996 29.9669 48.4426 26.9793 50.1169 26.2604C50.9821 25.8869 51.5672 25.6006 52.339 25.2147L54.6201 24.0726C55.3826 23.6805 56.061 23.4035 56.7861 22.9709C57.2779 22.6753 58.5538 21.9035 59.03 21.7914C59.03 17.1887 55.949 13.1958 53.1512 11.3317C51.3711 10.1491 49.8213 9.40843 47.5744 8.66153C41.0732 6.49552 33.3739 7.55363 27.9371 11.2383C25.1611 13.1243 21.9961 17.1949 21.9961 21.7914Z" fill="#2C2C2C"/>
<path fill-rule="evenodd" clip-rule="evenodd" d="M26.1955 72.9845C26.0087 72.9845 25.4579 72.7262 25.3147 72.6204C24.5087 72.026 24.795 70.2085 24.795 68.9388C22.5823 70.4202 22.9278 69.5612 22.9278 75.4742C22.9278 77.9327 23.4413 78.8197 23.5502 80.1423H57.472C57.5809 78.8197 58.0944 77.9327 58.0944 75.4742C58.0944 74.5188 58.2002 70.6473 57.8081 70C57.7209 69.8569 56.4636 69.0975 56.2271 68.9388C56.2271 69.9876 56.4138 71.7615 55.947 72.3932C55.3122 73.249 53.946 73.0032 53.5663 72.0665C53.1897 71.1422 53.4262 65.9574 53.4262 64.4263C53.031 64.7157 51.8982 66.4865 51.5279 67.0404C47.006 73.8217 46.4271 72.9845 37.399 72.9845C33.1385 72.9845 31.3895 69.8818 29.5565 67.1338C29.2111 66.6141 28.9839 66.2375 28.6198 65.7365C28.3303 65.3412 27.8978 64.6472 27.5959 64.4263C27.5959 65.3568 27.6955 71.2044 27.5337 71.833C27.3843 72.4212 26.8054 72.9845 26.1955 72.9845Z" fill="#2C2C2C"/>
<path fill-rule="evenodd" clip-rule="evenodd" d="M60.8967 42.3311C60.8282 41.5189 60.4299 40.4763 60.4299 39.5303C60.4299 38.7367 60.7411 38.0769 60.7411 37.1962C59.0917 37.1962 57.3644 36.913 55.8053 36.6827C43.3725 34.8559 27.6876 28.8869 17.4177 22.1679L12.541 18.6419C9.44138 16.0838 9.69968 16.5506 6.86457 13.1148L5.17159 10.6065C4.72345 10.0774 5.07823 10.3731 4.19751 10.1801C3.36347 9.99341 2.79396 9.72266 2.23067 9.34609C1.21924 8.67388 1.15077 8.41558 0.677734 8.09814C0.677734 13.9924 9.32312 21.06 13.7921 24.393C15.5286 25.6908 19.2911 28.0653 21.009 29.0021L24.8275 31.0965C26.1128 31.8807 31.3194 34.2428 32.8879 34.8621C36.3547 36.2314 37.8703 36.8601 41.5052 38.0707C44.6049 39.1039 47.3871 39.8632 50.7513 40.6506C53.0262 41.1828 58.4941 42.132 60.8967 42.3311Z" fill="#2C2C2C"/>
<path fill-rule="evenodd" clip-rule="evenodd" d="M0.677734 34.7061V35.6397C0.677734 40.535 8.32725 42.4863 13.5929 42.4863C21.8773 42.4863 25.8172 41.7643 33.7593 39.7788C34.5248 39.5858 35.2624 39.2808 36 39.2186C35.8381 39.0754 35.9564 39.1377 35.6358 38.9603C35.4055 38.8296 35.3993 38.8451 35.2064 38.7673L32.4211 37.6625C26.5765 35.3409 30.781 36.0691 23.564 36.897C18.9488 37.4291 13.6489 37.7808 9.10839 36.5453C4.14772 35.1915 5.34587 31.8274 7.4901 28.6032C8.24011 27.4798 9.97355 25.7401 10.3252 25.2142C9.93931 24.9559 9.57831 24.6478 9.18619 24.3303C8.77539 23.9974 8.35215 23.5866 7.99115 23.3469C6.80233 24.1436 4.46204 26.9476 3.52218 28.2142C2.56677 29.4964 0.677734 32.6427 0.677734 34.7061H0.677734Z" fill="#2C2C2C"/>
<path fill-rule="evenodd" clip-rule="evenodd" d="M45.0254 31.439C46.0866 31.688 47.2536 32.0739 48.3242 32.3415C51.9529 33.2471 51.4363 33.5272 54.1563 32.1672L58.5319 29.8518C59.2788 29.4037 59.9696 29.0582 60.7134 28.6101C66.8941 24.8694 74.9699 19.3952 78.6297 13.0714C79.5758 11.4376 80.3476 9.74772 80.3476 7.4759C80.3476 6.58273 80.0986 6.36177 80.0364 5.60864H79.7252C79.3704 7.12423 77.7303 7.95516 76.9679 8.4562C76.4544 8.79231 76.8403 8.23836 76.3019 9.65436C75.916 10.6751 75.583 11.2042 74.9699 12.0569C74.307 12.9687 72.3495 15.3775 71.4315 16.1431C70.9864 16.5165 70.8557 16.5756 70.4294 17.0082C66.449 21.0539 55.787 26.9202 50.3813 29.1703L45.0254 31.439Z" fill="#2C2C2C"/>
<path fill-rule="evenodd" clip-rule="evenodd" d="M1.45508 80.1426H20.75C20.0996 77.3541 20.1276 74.8676 20.1276 71.4287C19.1193 71.9609 16.0819 72.2908 12.503 74.074L8.09628 76.5139C7.64814 76.7628 7.49564 76.8935 7.00705 77.1363L1.70716 79.9278C1.33682 80.2079 1.68848 79.9403 1.45508 80.1426Z" fill="#2C2C2C"/>
<path fill-rule="evenodd" clip-rule="evenodd" d="M60.2734 80.1432H79.5684C79.5404 80.1183 79.4968 80.0436 79.4844 80.0716C79.4844 80.0716 78.5819 79.3434 77.5238 78.9202C74.8069 77.8278 69.6751 74.4543 66.2549 73.0725C64.4063 72.3288 63.8306 72.3412 62.2621 71.9304C61.7112 71.7841 61.4436 71.6316 60.8959 71.585C60.8959 74.9709 60.9145 77.3983 60.2734 80.1432Z" fill="#2C2C2C"/>
<path fill-rule="evenodd" clip-rule="evenodd" d="M63.2305 39.5296C63.2305 42.5297 65.773 44.6646 68.2098 44.6646C71.0231 44.6646 73.2203 42.3616 73.2825 39.6666C73.3448 37.0088 71.0449 34.5503 68.3654 34.5503C65.5863 34.5503 63.2305 36.7723 63.2305 39.5296Z" fill="#2C2C2C"/>
<path fill-rule="evenodd" clip-rule="evenodd" d="M42.2246 4.83007C44.3906 4.83007 47.7921 5.9193 48.1376 5.9193C48.788 5.9193 57.4272 3.42963 64.9429 3.42963H68.9886C68.9886 1.9296 69.5488 1.3881 69.611 0.628749C68.8205 0.628749 68.7645 0.473145 67.8994 0.473145C58.3079 0.473145 53.4312 1.48146 44.7143 3.89644C44.2257 4.03026 43.9238 4.15475 43.401 4.29479C42.7506 4.47529 42.542 4.39438 42.2246 4.83007Z" fill="#2C2C2C"/>
<path fill-rule="evenodd" clip-rule="evenodd" d="M70.6992 25.2142C71.7791 26.8262 75.3674 29.5618 75.3674 33.3056C75.3674 34.3575 74.9846 34.5816 74.5893 35.1729C75.9867 36.7787 75.9898 38.7518 75.9898 40.7746C77.7948 40.3545 80.3467 37.9737 80.3467 35.7953C80.3467 32.705 79.1423 30.4425 77.5707 28.3014C76.6589 27.0628 74.1972 24.1249 73.0333 23.3469C72.6723 23.5897 72.3206 23.9444 71.9254 24.2619C71.5146 24.5855 71.1225 24.931 70.6992 25.2142Z" fill="#2C2C2C"/>
<path fill-rule="evenodd" clip-rule="evenodd" d="M11.1016 0.628749C11.3474 1.68064 11.8796 1.90471 11.8796 3.42963C18.2314 3.42963 23.6651 3.6786 29.7119 5.20352C32.3976 5.87884 31.2306 5.67967 35.0024 4.30102C35.4692 4.12985 35.7493 4.08006 35.9983 3.74084L26.7803 1.59972C22.0499 0.644309 18.2656 0.473145 13.4356 0.473145C12.3993 0.473145 12.0881 0.628749 11.1016 0.628749Z" fill="#2C2C2C"/>
<path fill-rule="evenodd" clip-rule="evenodd" d="M2.07812 3.74108C2.07812 9.1001 9.23593 8.6364 9.23593 4.05229C9.23593 -0.911492 2.07812 -0.419782 2.07812 3.74108Z" fill="#2C2C2C"/>
<path fill-rule="evenodd" clip-rule="evenodd" d="M71.791 2.96282C71.791 7.53136 77.5484 6.96496 77.5484 3.27403C77.5484 1.40366 76.1791 0.473145 74.2807 0.473145C73.1603 0.473145 71.791 1.84246 71.791 2.96282Z" fill="#2C2C2C"/>
<path fill-rule="evenodd" clip-rule="evenodd" d="M15.6152 17.4341C15.9545 17.8978 18.6931 19.7339 19.3497 20.0793C19.5614 17.5523 20.884 15.3458 21.8394 13.5439C21.1516 13.7276 15.9949 16.9143 15.6152 17.4341Z" fill="#2C2C2C"/>
</g>
<defs>
<clipPath id="clip0_788_3927">
<rect width="79.6695" height="79.6695" fill="white" transform="translate(0.671875 0.4729)"/>
</clipPath>
</defs>
</svg>
