<svg width="98" height="69" viewBox="0 0 98 69" fill="none" xmlns="http://www.w3.org/2000/svg">
<g clip-path="url(#clip0_788_3910)">
<path fill-rule="evenodd" clip-rule="evenodd" d="M53.3794 61.5068C53.0751 60.3586 51.5611 59.1387 50.3721 58.8611V50.3573H73.3016C74.4381 50.3573 75.011 49.8172 75.9333 49.6019L81.7131 55.5052L81.1984 56.9745C80.7908 57.3918 69.295 58.9763 68.307 59.1292L53.3794 61.5068ZM15.9787 55.4599L21.8505 49.6491C22.7277 49.8172 23.3006 50.3573 24.4352 50.3573H47.3648V58.8611C46.1776 59.1387 44.6636 60.3586 44.3575 61.5068L29.5933 59.1557C28.8344 59.0329 16.9686 57.3031 16.6399 57.0613C16.1515 56.7025 16.4915 57.0689 16.2473 56.323C16.1853 56.1303 16.0144 55.543 15.9787 55.4599ZM85.8944 52.8142C84.9139 52.8142 84.7711 53.0144 84.0141 53.1919L78.0446 47.2885C78.4128 46.5501 78.7527 45.9005 78.7527 44.6881V36.375H87.0214C87.3107 37.6252 88.2631 38.6695 89.2774 39.2096L85.8944 52.8142ZM8.45945 39.2096C9.47379 38.6695 10.4261 37.6252 10.7154 36.375H18.986V44.6881C18.986 45.9005 19.3241 46.5501 19.7373 47.3338L13.7678 53.2372C12.9657 53.0144 12.823 52.8142 11.8443 52.8142L8.45945 39.2096ZM45.862 40.3427C45.862 42.5409 42.8547 42.5409 42.8547 40.3427C42.8547 35.4535 42.0113 30.8701 46.2941 28.6852C47.8099 27.9128 49.9269 27.9128 51.4428 28.6852C55.7274 30.8701 54.8821 35.4535 54.8821 40.3427C54.8821 42.5409 51.8767 42.5409 51.8767 40.3427V38.8319H45.862V40.3427ZM57.7016 35.0531C57.7016 32.7737 58.0566 31.0798 59.4334 29.6124C61.9524 26.927 66.3891 27.2651 68.4497 29.7276C69.6839 31.2044 70.1065 32.5962 70.1065 35.0531C70.1065 44.3104 57.7016 44.3104 57.7016 35.0531ZM32.5179 42.0442C30.4198 42.0442 27.6303 42.5447 27.6303 40.3427V29.3839C27.6303 27.182 30.4198 27.6824 32.5179 27.6824C34.5316 27.6824 36.44 28.4246 37.83 29.7106C39.7629 31.5028 40.6889 34.9304 39.3534 37.7668C38.989 38.5392 38.3992 39.4891 37.83 40.0141C36.4457 41.2983 34.5335 42.0442 32.5179 42.0442ZM78.0014 22.3928L83.969 16.4894C84.7711 16.7123 84.9139 16.9125 85.8944 16.9125C86.4185 19.1767 87.0233 21.4561 87.585 23.7147C87.8705 24.8573 88.1241 25.8279 88.3851 27.0687C88.5279 27.7561 89.005 29.9467 89.2774 30.517C88.2631 31.0571 87.3107 32.1014 87.0214 33.3516H78.7527V25.0367C78.7527 23.8262 78.4128 23.1765 78.0014 22.3928ZM18.986 25.0367V33.3516H10.7154C10.4261 32.1014 9.47379 31.0571 8.45945 30.517L11.8443 16.9125C12.823 16.9125 12.9657 16.7123 13.7227 16.5348L19.6923 22.4381C19.3241 23.1765 18.986 23.8262 18.986 25.0367ZM75.7905 20.1701C74.964 19.7093 74.3197 19.3694 73.1138 19.3694H50.3721V10.8656C51.5611 10.588 53.0751 9.36802 53.3794 8.21983L79.3707 12.3216C79.8385 12.3877 80.8321 12.4689 81.097 12.6653C81.4708 12.9391 81.5515 13.3735 81.76 14.2667L75.7905 20.1701ZM44.3575 8.21983C44.6636 9.36802 46.1776 10.588 47.3648 10.8656V19.3694H24.623C23.419 19.3694 22.7728 19.7093 21.9933 20.1248L16.0237 14.2214C16.3506 12.2782 16.8183 12.5237 18.1989 12.3443L44.3575 8.21983ZM43.7939 5.19828L15.9787 9.54365C12.5468 3.02465 3.47044 8.8317 6.95674 14.4556C7.33242 15.0599 8.07814 15.9531 8.83701 16.1571L5.45402 29.7616C-0.647006 29.7616 -0.904346 39.8234 5.45402 39.965C5.97809 42.2293 6.58294 44.5087 7.14458 46.7673C7.42821 47.9098 7.68368 48.8805 7.94289 50.1212C8.08753 50.8086 8.56464 52.9992 8.83701 53.5696C7.99549 53.7962 7.5334 54.3419 7.10137 55.0369C3.29575 61.1725 12.6408 66.5245 15.9787 60.183L43.7939 64.5284C44.1922 69.3364 52.382 71.2683 53.9429 64.5284L81.76 60.183C84.912 66.1751 93.6071 61.7882 91.0318 55.7734C90.6186 54.8046 89.9198 53.8434 88.9017 53.5696L92.2847 39.965C98.5116 39.8253 98.5116 29.9014 92.2847 29.7616L89.7939 19.6054C89.6512 18.918 89.1741 16.7274 88.9017 16.1571C90.8308 15.6396 93.0154 11.2754 89.9912 8.25949C87.4704 5.74782 83.4694 6.29548 81.76 9.54365L53.9429 5.19828C52.382 -1.54167 44.1922 0.390232 43.7939 5.19828Z" fill="#2C2C2C"/>
<path fill-rule="evenodd" clip-rule="evenodd" d="M30.6387 39.0212H33.2703C38.2387 39.0212 38.2387 30.7063 33.2703 30.7063H30.6387V39.0212Z" fill="#2C2C2C"/>
<path fill-rule="evenodd" clip-rule="evenodd" d="M60.7099 33.7296C60.7099 35.9202 60.3305 39.0211 64.0929 39.0211C67.906 39.0211 67.5905 33.1102 66.3038 31.6976C64.5606 29.7789 60.7099 30.7118 60.7099 33.7296Z" fill="#2C2C2C"/>
<path fill-rule="evenodd" clip-rule="evenodd" d="M45.8613 33.729V35.8082H51.8759V33.729C51.8759 32.3599 50.5705 31.0833 48.493 31.0833C47.319 31.0833 45.8613 32.5487 45.8613 33.729Z" fill="#2C2C2C"/>
</g>
<defs>
<clipPath id="clip0_788_3910">
<rect width="96.2673" height="68.051" fill="white" transform="translate(0.740234 0.838379)"/>
</clipPath>
</defs>
</svg>
