<svg width="83" height="83" viewBox="0 0 83 83" fill="none" xmlns="http://www.w3.org/2000/svg">
<path opacity="0.05" d="M81.7196 41.0353C81.7196 63.2282 63.7597 81.2166 41.6081 81.2166C19.4565 81.2166 1.49655 63.2282 1.49655 41.0353C1.49655 18.8424 19.4565 0.853971 41.6081 0.853972C63.7597 0.853973 81.7196 18.8424 81.7196 41.0353Z" stroke="url(#paint0_linear_141_2216)" stroke-width="1.70794"/>
<g clip-path="url(#clip0_141_2216)">
<path fill-rule="evenodd" clip-rule="evenodd" d="M54.4424 24.6463C54.4424 26.8183 54.5376 28.7188 54.5376 30.9401C54.1687 30.681 53.7879 30.4835 53.3833 30.2244C50.8248 28.6201 51.6935 29.2248 48.7423 29.2248C47.588 29.2248 47.8379 27.4477 47.9212 27.2255C48.2068 26.4234 49.3373 26.6455 50.3964 26.6455C52.5384 26.6579 52.3718 25.7816 54.4424 24.6463ZM39.3652 33.8032C39.3652 35.6791 40.4242 35.2348 43.3159 35.2348C44.4226 35.2348 45.6959 34.7782 46.3742 34.013C47.2786 33.0011 47.2667 32.1125 47.5523 30.8414C49.1469 31.224 48.1592 31.0389 49.5753 31.0389L48.5043 35.2718C48.183 36.5799 47.8379 37.74 45.803 37.9004C45.0295 37.9621 44.018 37.9004 43.2207 37.9004C42.2211 37.9004 41.5428 37.74 41.2096 38.4804C40.9597 39.0481 41.1144 57.214 41.1144 59.929C41.1144 60.6447 41.1858 61.9652 41.1025 62.5946C40.9121 64.0508 38.9487 64.4581 38.1514 63.187C37.8658 62.7427 37.8896 62.1133 37.8896 61.3605L37.8896 50.8707C37.9015 49.143 36.2117 49.2417 36.057 50.7843L36.057 61.2741C36.057 62.3354 36.2474 63.9397 34.391 63.9397C33.5461 63.9397 32.963 63.2363 32.8559 62.3971C32.6655 61.052 32.9392 41.9112 32.8083 41.3559C32.7012 40.9116 32.2728 40.6648 31.7254 40.6648C30.6425 40.6648 30.0118 44.3424 29.7976 45.2433C29.6429 45.9097 28.9527 50.2043 28.2387 50.2043C27.9888 50.2043 27.9769 50.1549 27.7746 50.1056C27.5842 49.2664 27.7508 45.0582 27.8936 43.9351C28.3934 40.0354 28.3696 38.7026 31.297 35.642C31.5707 35.3459 31.654 35.2595 31.9753 35.0126C32.9273 34.2845 32.6298 34.3586 33.8317 34.8646C33.9626 34.9139 34.7956 35.2348 34.9503 35.2348C35.7714 35.2348 36.414 33.8279 35.1883 33.359C34.9503 33.2602 34.7837 33.2479 34.5576 33.1615C33.9626 32.9517 33.4271 32.6432 32.9273 32.273C31.9277 31.5572 31.2137 30.6316 30.6544 29.4716C29.3573 26.7813 29.9285 23.4122 32.0229 21.2279C36.4497 16.6494 43.9585 19.9814 43.9585 26.3617C43.9585 28.0277 43.185 29.9899 42.4234 30.8661C42.1616 31.1623 41.995 31.4091 41.6975 31.6436C41.3643 31.9274 41.281 32.0632 40.8883 32.3347C40.3053 32.7419 39.3652 32.9394 39.3652 33.8032ZM28.1435 26.3617C28.1435 29.0767 29.0955 30.7057 30.5235 32.5691C30.702 32.816 30.8686 33.0504 31.178 33.1368C31.0947 33.47 31.1423 33.3219 30.6425 33.7292C30.3688 33.9513 30.2617 34.0377 29.9999 34.2969C29.7976 34.519 29.6548 34.6548 29.4525 34.8769C25.6564 38.8507 25.9301 44.6139 25.9301 50.2043C25.9301 51.8457 29.5834 53.7955 30.702 49.5132C30.7734 49.2541 30.7972 49.106 30.8686 48.8345L30.9995 48.3038C31.0114 48.2791 31.0233 48.2544 31.0233 48.2421L31.0828 48.1064C31.0828 51.6359 31.0828 55.1654 31.0828 58.6949C31.0828 60.3115 30.8448 62.5946 31.3565 63.7546C32.2847 65.8156 34.7599 66.4943 36.4735 65.1368C36.6996 64.964 36.7472 64.853 36.9733 64.7049C37.5921 65.1368 38.1752 65.8526 39.4604 65.8526C41.3881 65.8526 42.947 64.2359 42.947 62.2244L42.947 39.8133C45.684 39.8133 48.2068 40.0724 49.7419 37.4068C50.0513 36.8761 50.7415 33.8032 50.9914 32.7913C51.0747 32.4087 51.2889 31.4831 51.4079 31.224L54.3948 33.0011C54.9303 33.3343 55.7633 33.902 56.2393 33.0751C56.4892 32.6432 56.4178 30.1133 56.3583 29.632C56.1203 27.8673 56.4416 23.5233 56.2036 22.6347C55.8228 21.2279 54.5495 22.2892 54.1687 22.5483C53.9307 22.7088 53.7046 22.8569 53.4547 23.042L51.4317 24.4735C50.8248 24.9178 49.6586 24.7327 48.2901 24.8314C47.1596 24.9178 46.1243 26.0902 46.0767 27.3119C45.9696 29.7801 46.1362 28.9039 45.565 31.5449C45.1604 33.3836 44.137 33.3219 42.6733 33.3219C43.0541 32.7296 43.9109 32.2236 44.6963 30.6563C46.3742 27.3119 45.9815 22.9926 43.5658 20.3763C43.3397 20.1172 43.304 19.9691 43.0541 19.7593C42.2687 19.0805 41.5547 18.4511 40.5194 18.0069C34.2006 15.2795 28.1435 20.1419 28.1435 26.3617Z" fill="url(#paint1_linear_141_2216)"/>
<path fill-rule="evenodd" clip-rule="evenodd" d="M63.832 18.0565C63.832 19.1796 64.0343 18.8464 65.0934 20.1792C66.3905 21.8205 67.6043 24.77 67.6043 26.9297C67.6043 28.6944 67.6757 29.4349 67.1878 31.1873C66.6999 32.9891 65.7955 34.7538 64.5341 36.0619C63.3203 37.3454 64.5817 37.9995 64.9982 37.9501C65.8669 37.8637 67.3425 35.4079 67.7233 34.6921C70.2937 29.8545 69.9962 23.4865 66.6166 19.1796C66.1525 18.5872 65.4028 17.3901 64.6531 17.3901C64.2961 17.3901 63.832 17.7604 63.832 18.0565Z" fill="url(#paint2_linear_141_2216)"/>
<path fill-rule="evenodd" clip-rule="evenodd" d="M37.0678 43.3427C36.687 43.2316 36.6394 43.0218 36.4371 42.7503C36.2348 42.4912 36.0444 42.3801 35.8659 42.0962C35.9849 41.5532 36.2229 41.0226 36.4014 40.5536C36.6037 40.0477 36.7822 39.3566 37.0678 39.1468C37.1749 39.6281 37.3653 40.0847 37.5319 40.5536C37.6866 40.9732 37.877 41.615 38.0793 41.9975C37.6033 42.738 37.163 42.9601 37.0678 43.3427ZM36.9726 45.7245C37.52 45.7245 38.6029 44.2929 38.9837 43.7993C40.5902 41.7013 40.3046 43.4784 38.2935 37.2956C38.0555 36.5675 37.8056 35.3334 36.9131 35.4568C36.1872 35.5556 35.973 36.5305 35.6279 37.4684C35.378 38.1472 33.8905 41.9358 33.9024 42.2814C33.9143 42.7627 34.3784 43.2069 34.8306 43.7376C34.9853 43.9104 35.1043 43.9967 35.2471 44.1695C35.4137 44.367 35.4018 44.4163 35.5684 44.6015C36.0682 45.1815 36.4609 45.7245 36.9726 45.7245Z" fill="url(#paint3_linear_141_2216)"/>
<path fill-rule="evenodd" clip-rule="evenodd" d="M60.7969 21.4987C60.7969 22.4243 63.3673 23.3252 63.3673 28.1752C63.3673 31.5195 60.9754 33.272 60.9754 33.889C60.9754 34.7899 62.0226 35.2712 62.7485 34.395C65.9377 30.557 66.0804 25.2257 62.8913 21.4247C62.6414 21.1285 62.3439 20.5361 61.7132 20.5361C61.2372 20.5361 60.7969 21.0421 60.7969 21.4987Z" fill="url(#paint4_linear_141_2216)"/>
<path fill-rule="evenodd" clip-rule="evenodd" d="M57.8457 24.6462C57.8457 25.4237 59.143 25.8063 59.143 27.7935C59.143 29.7806 57.9409 30.0891 57.9409 30.842C57.9409 31.5209 58.9049 32.8785 60.3569 30.2866C61.2376 28.7191 61.0591 26.8308 60.3331 25.3126C59.1191 22.7701 57.8457 23.7945 57.8457 24.6462Z" fill="url(#paint5_linear_141_2216)"/>
<path fill-rule="evenodd" clip-rule="evenodd" d="M37.0684 27.8918C37.0684 29.0273 39.2225 29.6074 40.008 29.6074C40.972 29.6074 42.9476 29.0026 42.9476 27.8918C42.9476 27.3734 42.5787 27.0278 42.0312 27.0278C41.4124 27.0278 41.2338 27.6943 40.008 27.6943C38.7703 27.6943 38.9012 27.0278 37.7943 27.0278C37.4849 27.0278 37.0684 27.5462 37.0684 27.8918Z" fill="url(#paint6_linear_141_2216)"/>
<path fill-rule="evenodd" clip-rule="evenodd" d="M42.21 25.4976C43.5668 25.4976 43.4953 23.313 42.3052 23.313C40.6866 23.313 40.9246 25.4976 42.21 25.4976Z" fill="url(#paint7_linear_141_2216)"/>
<path fill-rule="evenodd" clip-rule="evenodd" d="M36.7832 24.4485C36.7832 24.8805 37.3783 25.4976 37.7948 25.4976C39.2468 25.4976 39.1873 23.313 37.89 23.313C37.295 23.313 36.7832 23.8314 36.7832 24.4485Z" fill="url(#paint8_linear_141_2216)"/>
</g>
<defs>
<linearGradient id="paint0_linear_141_2216" x1="76.6078" y1="82.0704" x2="0.408192" y2="81.6305" gradientUnits="userSpaceOnUse">
<stop stop-color="#001F68"/>
<stop offset="1" stop-color="#0091FB"/>
</linearGradient>
<linearGradient id="paint1_linear_141_2216" x1="54.1954" y1="65.8525" x2="25.838" y2="65.7496" gradientUnits="userSpaceOnUse">
<stop stop-color="#001F68"/>
<stop offset="1" stop-color="#0091FB"/>
</linearGradient>
<linearGradient id="paint2_linear_141_2216" x1="69.0245" y1="37.9526" x2="63.8158" y2="37.9444" gradientUnits="userSpaceOnUse">
<stop stop-color="#001F68"/>
<stop offset="1" stop-color="#0091FB"/>
</linearGradient>
<linearGradient id="paint3_linear_141_2216" x1="39.5744" y1="45.7245" x2="33.8847" y2="45.7049" gradientUnits="userSpaceOnUse">
<stop stop-color="#001F68"/>
<stop offset="1" stop-color="#0091FB"/>
</linearGradient>
<linearGradient id="paint4_linear_141_2216" x1="64.8914" y1="34.8575" x2="60.7841" y2="34.8502" gradientUnits="userSpaceOnUse">
<stop stop-color="#001F68"/>
<stop offset="1" stop-color="#0091FB"/>
</linearGradient>
<linearGradient id="paint5_linear_141_2216" x1="60.7238" y1="31.8083" x2="57.8367" y2="31.8019" gradientUnits="userSpaceOnUse">
<stop stop-color="#001F68"/>
<stop offset="1" stop-color="#0091FB"/>
</linearGradient>
<linearGradient id="paint6_linear_141_2216" x1="42.5195" y1="29.6074" x2="37.0523" y2="29.5353" gradientUnits="userSpaceOnUse">
<stop stop-color="#001F68"/>
<stop offset="1" stop-color="#0091FB"/>
</linearGradient>
<linearGradient id="paint7_linear_141_2216" x1="43.0638" y1="25.4976" x2="41.1621" y2="25.4873" gradientUnits="userSpaceOnUse">
<stop stop-color="#001F68"/>
<stop offset="1" stop-color="#0091FB"/>
</linearGradient>
<linearGradient id="paint8_linear_141_2216" x1="38.7212" y1="25.4976" x2="36.7772" y2="25.4868" gradientUnits="userSpaceOnUse">
<stop stop-color="#001F68"/>
<stop offset="1" stop-color="#0091FB"/>
</linearGradient>
<clipPath id="clip0_141_2216">
<rect width="43.4943" height="48.6344" fill="white" transform="translate(25.9297 17.2236)"/>
</clipPath>
</defs>
</svg>
