<svg width="83" height="83" viewBox="0 0 83 83" fill="none" xmlns="http://www.w3.org/2000/svg">
<path opacity="0.05" d="M81.5204 41.0353C81.5204 63.2282 63.5605 81.2166 41.4089 81.2166C19.2572 81.2166 1.29733 63.2282 1.29733 41.0353C1.29733 18.8424 19.2573 0.853971 41.4089 0.853972C63.5605 0.853973 81.5204 18.8424 81.5204 41.0353Z" stroke="url(#paint0_linear_141_2144)" stroke-width="1.70794"/>
<g clip-path="url(#clip0_141_2144)">
<path fill-rule="evenodd" clip-rule="evenodd" d="M46.2825 40.5248L44.0622 38.3623L47.4889 34.9032L49.7092 37.061L46.2825 40.5248ZM40.6638 39.4435L41.7011 40.5248C42.241 40.3656 42.4757 39.8133 42.884 39.5418L45.0762 41.6809L25.9339 60.8158L23.6713 58.6018C24.1595 58.2694 31.0738 51.2671 32.252 50.0922C32.59 49.7552 33.3129 49.2263 33.4302 48.7722L32.3929 47.691L22.0237 57.9746C21.1037 58.906 22.3476 59.5941 23.8591 61.106C25.563 62.8004 25.6992 63.3715 26.8492 62.2106L51.0094 38.1235C52.2862 36.8597 51.6196 36.6631 49.8031 34.8517C47.7424 32.8015 47.7095 32.3615 46.5219 33.5551C45.6629 34.4211 40.9407 39.0316 40.6638 39.4435Z" fill="url(#paint1_linear_141_2144)"/>
<path fill-rule="evenodd" clip-rule="evenodd" d="M51.4638 46.1743C52.6514 45.3832 54.4774 43.3612 54.7449 42.2331H54.9374C55.0688 42.8088 55.9372 43.9743 56.308 44.4237C56.9699 45.2288 57.3501 45.5986 58.2138 46.1743C58.0542 46.3943 57.9557 46.4036 57.7303 46.5581C56.8666 47.1619 55.158 49.2636 54.9374 50.2138H54.7449C54.5243 49.2729 52.8532 47.2228 52.0036 46.6002C51.7454 46.4083 51.6375 46.413 51.4638 46.1743ZM48.5723 46.1743C48.5723 47.4381 50.5062 46.6424 52.2759 49.2121C52.5153 49.5585 52.7124 49.8487 52.933 50.195L53.9798 52.4184C54.36 53.4996 55.2707 53.4996 55.6978 52.4137C55.8668 51.9831 56.0123 51.6554 56.186 51.2669C56.3691 50.8737 56.5193 50.5789 56.7352 50.181C56.9464 49.8065 57.2046 49.4648 57.4393 49.1559C59.4906 46.4645 61.1101 47.4662 61.1101 46.1743C61.1101 44.6952 58.8287 46.4224 56.2517 41.3016C55.4303 39.6681 55.7776 39.2515 54.6464 39.2515C54.0925 39.2515 53.8343 40.4919 53.4588 41.2408C50.8489 46.4504 48.5723 44.6905 48.5723 46.1743Z" fill="url(#paint2_linear_141_2144)"/>
<path fill-rule="evenodd" clip-rule="evenodd" d="M33.0446 22.2326H33.2371C33.3732 22.813 34.5326 24.2921 34.9035 24.6104C35.2414 24.8913 35.4808 25.144 35.7484 25.2142C35.6451 25.584 34.4294 26.3049 33.6642 27.5593C33.4859 27.8589 33.2746 28.3176 33.0446 28.4814C32.871 27.7372 31.1764 25.6027 30.4441 25.4062C30.5943 25.1815 32.6973 23.5432 33.0446 22.2326ZM27.6465 25.2142C27.6465 26.9321 29.4912 24.9755 31.8242 29.6048C32.364 30.6673 32.3311 31.3694 33.1432 31.3694C34.2041 31.3694 34.1102 29.0993 35.9596 27.255C37.2833 25.9351 38.5414 26.3844 38.5414 25.3079C38.5414 24.5074 37.8091 24.6057 36.9313 24.1283C36.2741 23.7679 35.8657 23.2577 35.4339 22.7334C33.9694 20.9641 34.143 19.251 33.1432 19.251C32.6973 19.251 32.5001 19.4803 32.3546 19.8127C31.6787 21.3105 31.0684 23.0377 29.4021 24.0815C28.9702 24.353 27.6465 24.5636 27.6465 25.2142Z" fill="url(#paint3_linear_141_2144)"/>
<path fill-rule="evenodd" clip-rule="evenodd" d="M54.7467 24.8305H54.9392C55.0753 25.4203 56.2253 26.89 56.6478 27.2551L57.4458 27.9057C57.1829 28.2989 56.7886 28.4581 56.0657 29.3193C55.8216 29.6095 55.6198 29.8155 55.4227 30.1197C55.2443 30.4052 55.0237 30.7235 54.9392 31.0793H54.7467C54.6059 30.4755 53.423 28.9729 52.9818 28.6078C52.6015 28.2896 52.4232 28.0789 52.1415 27.9993C53.0287 27.2317 54.4745 25.9866 54.7467 24.8305ZM54.7467 21.9425C54.1459 22.1016 54.2022 22.0267 53.9863 22.6305C53.3995 24.2735 52.2025 26.3798 50.4751 27.0164C50.1372 27.1381 49.2547 27.2598 49.3767 28.0649C49.4424 28.5049 49.7382 28.6687 50.1137 28.7717C53.6671 29.7874 53.5544 34.323 54.9814 34.0094C56.061 33.766 55.8733 30.8359 58.7366 29.0993C59.375 28.7108 60.4171 28.8138 60.2951 27.8355C60.1308 26.4781 58.4503 28.2708 56.0282 23.4497C55.77 22.9395 55.601 21.9986 54.9814 21.9097C54.5308 21.8395 54.9532 21.891 54.7467 21.9425Z" fill="url(#paint4_linear_141_2144)"/>
<path fill-rule="evenodd" clip-rule="evenodd" d="M35.651 39.0601C35.7731 39.5843 36.3974 40.3847 36.7353 40.7686L38.1576 42.2336C37.9793 42.5004 37.7258 42.6128 37.4582 42.8796C36.8292 43.5115 35.8529 44.5366 35.651 45.4072C35.252 44.9485 35.3412 44.8923 35.0877 44.5272L33.7922 42.9357C33.412 42.6221 33.2336 42.4068 32.9519 42.3319C33.0411 41.9949 33.1773 42.0604 33.6514 41.583C33.9189 41.3162 34.1724 41.0915 34.4212 40.8154C34.6418 40.5673 34.8389 40.2724 35.0361 39.9869C35.2379 39.678 35.421 39.2286 35.651 39.0601ZM30.1543 42.0417C30.1543 43.6285 31.4405 42.3553 33.2664 44.8034C34.7638 46.8067 34.6418 48.2905 35.5524 48.2905C36.8809 48.2905 36.3457 45.4259 39.3687 43.4413C40.0681 42.9826 41.0492 43.0668 41.0492 42.2336C41.0492 41.012 39.6175 41.9481 37.8807 39.6265C36.3833 37.6231 36.5851 36.1768 35.5524 36.1768C34.7873 36.1768 34.8061 36.9023 34.3649 37.7776C33.5622 39.3784 32.7172 40.806 30.9335 41.3771C30.6425 41.4707 30.1543 41.6626 30.1543 42.0417Z" fill="url(#paint5_linear_141_2144)"/>
</g>
<defs>
<linearGradient id="paint0_linear_141_2144" x1="76.4085" y1="82.0704" x2="0.208973" y2="81.6304" gradientUnits="userSpaceOnUse">
<stop stop-color="#001F68"/>
<stop offset="1" stop-color="#0091FB"/>
</linearGradient>
<linearGradient id="paint1_linear_141_2144" x1="49.4883" y1="62.8193" x2="21.6233" y2="62.6579" gradientUnits="userSpaceOnUse">
<stop stop-color="#001F68"/>
<stop offset="1" stop-color="#0091FB"/>
</linearGradient>
<linearGradient id="paint2_linear_141_2144" x1="60.1971" y1="53.2287" x2="48.5363" y2="53.1682" gradientUnits="userSpaceOnUse">
<stop stop-color="#001F68"/>
<stop offset="1" stop-color="#0091FB"/>
</linearGradient>
<linearGradient id="paint3_linear_141_2144" x1="37.748" y1="31.3694" x2="27.6153" y2="31.3167" gradientUnits="userSpaceOnUse">
<stop stop-color="#001F68"/>
<stop offset="1" stop-color="#0091FB"/>
</linearGradient>
<linearGradient id="paint4_linear_141_2144" x1="59.5083" y1="34.0249" x2="49.3339" y2="33.9719" gradientUnits="userSpaceOnUse">
<stop stop-color="#001F68"/>
<stop offset="1" stop-color="#0091FB"/>
</linearGradient>
<linearGradient id="paint5_linear_141_2144" x1="40.2558" y1="48.2905" x2="30.1231" y2="48.2378" gradientUnits="userSpaceOnUse">
<stop stop-color="#001F68"/>
<stop offset="1" stop-color="#0091FB"/>
</linearGradient>
<clipPath id="clip0_141_2144">
<rect width="39.4483" height="43.5683" fill="white" transform="translate(21.6855 19.251)"/>
</clipPath>
</defs>
</svg>
