<svg width="140" height="47" viewBox="0 0 140 47" fill="none" xmlns="http://www.w3.org/2000/svg">
<path d="M133.797 33.6536C134.292 33.6536 134.676 33.5526 134.959 33.3404C135.242 33.1182 135.454 32.7747 135.595 32.2796C135.727 31.7947 135.818 31.1582 135.858 30.3802C135.888 29.5922 135.908 28.6425 135.908 27.5109V17.3168C135.908 16.1852 135.888 15.2355 135.858 14.4475C135.818 13.6695 135.727 13.033 135.595 12.5481C135.454 12.053 135.242 11.6994 134.959 11.4872C134.676 11.2751 134.292 11.1639 133.797 11.1639V10.9417H140V11.1639C139.505 11.1639 139.121 11.2751 138.838 11.4872C138.555 11.6994 138.343 12.053 138.202 12.5481C138.071 13.033 137.98 13.6695 137.939 14.4475C137.909 15.2355 137.889 16.1852 137.889 17.3168V27.5109C137.889 28.6425 137.909 29.5922 137.939 30.3802C137.98 31.1582 138.071 31.7947 138.202 32.2796C138.343 32.7747 138.555 33.1182 138.838 33.3404C139.121 33.5526 139.505 33.6536 140 33.6536V33.886H133.797V33.6536Z" fill="white"/>
<path d="M125.613 10.4771C126.926 10.4771 128.027 10.6286 128.927 10.9418C129.816 11.2449 130.543 11.6389 131.089 12.1138C131.644 12.5886 132.038 13.1039 132.291 13.6697C132.533 14.2354 132.655 14.781 132.655 15.2963C132.655 16.0944 132.493 16.8118 132.17 17.4483C131.846 18.0848 131.452 18.6606 130.967 19.1961C130.483 19.7316 129.967 20.2266 129.401 20.6712C128.846 21.1157 128.331 21.5401 127.846 21.9644C127.361 22.3887 126.967 22.803 126.643 23.2071C126.32 23.6112 126.158 24.0456 126.158 24.5003C126.158 24.8539 126.219 25.1368 126.33 25.3591C126.441 25.5813 126.613 25.7935 126.845 25.9956C126.542 26.0562 126.269 26.0259 126.017 25.9147C125.774 25.7935 125.562 25.6319 125.391 25.4197C125.219 25.2075 125.077 24.9549 124.986 24.672C124.895 24.3892 124.855 24.1164 124.855 23.8638C124.855 23.1869 125.007 22.5807 125.33 22.0452C125.653 21.5097 126.047 21.0046 126.522 20.5398C126.997 20.0751 127.512 19.6407 128.078 19.2264C128.634 18.8122 129.149 18.398 129.624 17.9736C130.099 17.5493 130.493 17.1047 130.816 16.64C131.139 16.1753 131.301 15.6701 131.301 15.1144C131.301 13.7404 130.836 12.6694 129.897 11.9016C128.967 11.1338 127.532 10.7599 125.613 10.7599C124.41 10.7599 123.319 11.0529 122.329 11.6389C121.329 12.2249 120.48 13.0433 119.753 14.0738C119.036 15.1043 118.48 16.3369 118.066 17.7514C117.662 19.1759 117.459 20.7318 117.459 22.4089C117.459 24.076 117.682 25.6319 118.116 27.0564C118.551 28.4911 119.137 29.7236 119.884 30.7542C120.622 31.7847 121.491 32.593 122.481 33.189C123.461 33.775 124.512 34.068 125.613 34.068C126.249 34.068 126.835 34.0175 127.351 33.9064C127.876 33.8053 128.351 33.6538 128.775 33.4719C129.199 33.2901 129.583 33.088 129.927 32.8556C130.26 32.6233 130.553 32.3909 130.796 32.1383C131.372 31.5725 131.826 30.936 132.15 30.2187H132.402V33.2901C131.483 33.5831 130.493 33.8255 129.422 34.0377C128.351 34.2398 127.078 34.3408 125.613 34.3408C124.188 34.3408 122.855 34.0478 121.602 33.4517C120.359 32.8556 119.278 32.0272 118.359 30.9562C117.439 29.8954 116.712 28.6325 116.186 27.1776C115.661 25.7127 115.398 24.1265 115.398 22.4089C115.398 20.6813 115.661 19.0951 116.186 17.6402C116.712 16.1854 117.439 14.9326 118.359 13.8616C119.278 12.8008 120.359 11.9723 121.602 11.3762C122.855 10.7801 124.188 10.4771 125.613 10.4771Z" fill="white"/>
<path d="M107.135 33.6536C107.63 33.6536 108.014 33.5526 108.297 33.3404C108.58 33.1182 108.792 32.7747 108.923 32.2796C109.064 31.7947 109.155 31.1582 109.186 30.3802C109.226 29.5922 109.246 28.6425 109.246 27.5109V17.3168C109.246 16.1852 109.226 15.2355 109.186 14.4475C109.155 13.6695 109.064 13.033 108.923 12.5481C108.792 12.053 108.58 11.6994 108.297 11.4872C108.014 11.2751 107.63 11.1639 107.135 11.1639V10.9417H113.328V11.1639C112.843 11.1639 112.459 11.2751 112.176 11.4872C111.893 11.6994 111.681 12.053 111.54 12.5481C111.408 13.033 111.317 13.6695 111.277 14.4475C111.237 15.2355 111.216 16.1852 111.216 17.3168V27.5109C111.216 28.6425 111.237 29.5922 111.277 30.3802C111.317 31.1582 111.408 31.7947 111.54 32.2796C111.681 32.7747 111.893 33.1182 112.176 33.3404C112.459 33.5526 112.843 33.6536 113.328 33.6536V33.886H107.135V33.6536Z" fill="white"/>
<path d="M89.7168 14.0332V10.9417H105.761V14.0332H105.528C105.528 14.0029 105.538 13.9928 105.538 14.0029C105.549 14.013 105.549 13.9928 105.549 13.9423C105.549 13.5584 105.377 13.2048 105.033 12.8714C104.69 12.5279 104.215 12.2349 103.619 11.9823C103.013 11.7297 102.295 11.5276 101.457 11.3862C100.628 11.2447 99.7089 11.1639 98.7187 11.1639V27.5109C98.7187 28.6425 98.7187 29.5922 98.739 30.3802C98.7491 31.1582 98.8198 31.7947 98.9309 32.2796C99.0521 32.7747 99.2441 33.1182 99.5068 33.3404C99.7695 33.5526 100.153 33.6536 100.638 33.6536V33.886H94.6573V33.6536C95.1422 33.6536 95.5261 33.5526 95.809 33.3404C96.0919 33.1182 96.3041 32.7747 96.4455 32.2796C96.5769 31.7947 96.6678 31.1582 96.7082 30.3802C96.7486 29.5922 96.7688 28.6425 96.7688 27.5109V11.1639C95.7888 11.1639 94.8795 11.2447 94.0309 11.3862C93.1923 11.5276 92.4649 11.7297 91.8688 11.9823C91.2626 12.2349 90.7877 12.5279 90.4442 12.8714C90.1007 13.2048 89.929 13.5584 89.929 13.9423C89.929 13.9928 89.929 14.013 89.9391 14.0029C89.9492 13.9928 89.9492 14.0029 89.9492 14.0332H89.7168Z" fill="white"/>
<path d="M56.0325 10.9417L68.8837 30.5318V20.5296C68.8837 18.8626 68.7726 17.438 68.5604 16.2559C68.3483 15.0638 68.0654 14.0938 67.7016 13.3462C67.3379 12.5986 66.9338 12.053 66.459 11.6994C65.9942 11.3458 65.5194 11.1639 65.0243 11.1639V10.9417H71.2277V11.1639C70.7326 11.1639 70.3487 11.2751 70.0658 11.4872C69.7829 11.6994 69.5707 12.053 69.4293 12.5481C69.298 13.033 69.207 13.6695 69.1666 14.4475C69.1363 15.2355 69.1161 16.1852 69.1161 17.3168V34.3407H68.8837L54.3553 12.2248V24.2981C54.3553 25.9651 54.4665 27.3897 54.6786 28.5717C54.8908 29.7639 55.1838 30.7237 55.5374 31.4815C55.9011 32.2291 56.3153 32.7747 56.7801 33.1283C57.2448 33.4819 57.7197 33.6536 58.2147 33.6536V33.886H52.0215V33.6536C52.5064 33.6536 52.8904 33.5526 53.1732 33.3404C53.4561 33.1182 53.6683 32.7747 53.8097 32.2796C53.9411 31.7947 54.032 31.1582 54.0724 30.3802C54.1128 29.5922 54.1331 28.6425 54.1331 27.5109V17.3168C54.1331 16.1852 54.1128 15.2355 54.0724 14.4475C54.032 13.6695 53.9411 13.033 53.8097 12.5481C53.6683 12.053 53.4561 11.6994 53.1732 11.4872C52.8904 11.2751 52.5064 11.1639 52.0215 11.1639V10.9417H56.0325Z" fill="white"/>
<path d="M50.6368 33.886V33.6536C50.1518 33.6536 49.7679 33.5526 49.485 33.3404C49.2021 33.1182 48.99 32.7747 48.8485 32.2796C48.7172 31.7947 48.6262 31.1582 48.5858 30.3802C48.5454 29.5922 48.5252 28.6425 48.5252 27.5109V17.3168C48.5252 16.1852 48.5454 15.2355 48.5858 14.4475C48.6262 13.6695 48.7172 13.033 48.8485 12.5481C48.99 12.053 49.2021 11.6994 49.485 11.4872C49.7679 11.2751 50.1518 11.1639 50.6368 11.1639V10.9417H34.209V14.0332H34.4414V13.9423C34.4414 13.1644 35.1587 12.5076 36.5933 11.9722C38.0381 11.4367 40.0789 11.1639 42.7462 11.1639H46.5551V21.0347C46.2015 20.7013 45.8075 20.4387 45.3629 20.2568C44.9184 20.0749 44.4334 19.984 43.898 19.984C43.3221 19.984 42.8169 20.0547 42.3522 20.1962C41.8975 20.3477 41.453 20.5094 41.0286 20.6912C40.5942 20.8731 40.1699 21.0448 39.7354 21.1863C39.3111 21.3277 38.8464 21.3985 38.3412 21.3985C37.8967 21.3985 37.5026 21.2873 37.1591 21.0448C36.8156 20.8125 36.6439 20.4892 36.6439 20.0951H36.4115C36.4115 20.7822 36.6742 21.3783 37.1894 21.8733C37.7148 22.3684 38.4321 22.6209 39.3515 22.6209C40.0486 22.6209 40.6649 22.5199 41.1701 22.3077C41.6854 22.1057 42.1602 21.8733 42.5845 21.6308C43.0089 21.3884 43.413 21.156 43.7767 20.9438C44.1505 20.7317 44.5345 20.6104 44.9487 20.6003C45.2821 20.5801 45.5953 20.6508 45.8681 20.8024C46.1409 20.964 46.3732 21.156 46.5551 21.3985V33.6536H43.6151C43.2513 33.6536 42.7765 33.6435 42.1804 33.6233C41.5944 33.6031 40.9579 33.5526 40.281 33.4718C39.594 33.4011 38.907 33.2798 38.2098 33.1182C37.5228 32.9565 36.8863 32.7444 36.3307 32.4918C35.775 32.2291 35.3203 31.9058 34.9667 31.5118C34.6131 31.1177 34.4414 30.653 34.4414 30.0973H34.209V33.886H50.6368Z" fill="white"/>
<path d="M70.4297 34.1184V34.3407H77.9566V34.1184C77.1483 34.1184 76.532 34.0073 76.1178 33.7951C75.7036 33.5829 75.4308 33.2798 75.2893 32.8959C75.158 32.5221 75.1378 32.0775 75.2388 31.5724C75.3398 31.0672 75.4914 30.5217 75.7036 29.9357L81.8968 13.5988C82.8667 16.3267 83.8568 19.0343 84.8874 21.7218C85.9078 24.4193 86.8575 27.1371 87.7264 29.875C87.888 30.3297 87.989 30.8045 88.0396 31.3097C88.0901 31.8048 88.0396 32.2594 87.8779 32.6837C87.7163 33.098 87.4233 33.4516 86.9989 33.7143C86.5645 33.987 85.9482 34.1184 85.1399 34.1184V34.3407H91.6363V34.1184C90.9291 34.1184 90.3532 33.8052 89.8986 33.1889C89.4439 32.5625 88.9792 31.6128 88.4841 30.3297L81.1492 10.9417H80.9168L73.5718 30.3297C73.0666 31.6027 72.5918 32.5524 72.1472 33.1788C71.7027 33.8052 71.1268 34.1184 70.4297 34.1184Z" fill="white"/>
<path d="M2.70703 8.70896C2.70703 10.5578 3.14147 12.2148 4.02045 13.6898C4.89943 15.1649 6.00067 16.4985 7.32419 17.7008C8.64771 18.9132 10.0824 20.0144 11.6383 21.0147C13.184 22.0048 14.6187 22.9343 15.9422 23.7829C17.2657 24.6316 18.367 25.4399 19.246 26.2178C20.1249 26.9856 20.5695 27.7636 20.5695 28.5314C20.5695 28.9558 20.4584 29.2589 20.2563 29.4508C20.0441 29.6428 19.7915 29.7438 19.4985 29.7438C18.9631 29.7438 18.4579 29.4912 17.9932 29.0063C17.5385 28.5112 17.0738 27.9758 16.609 27.3999C16.1544 26.8139 15.6694 26.2784 15.1643 25.7935C14.6591 25.2984 14.0933 25.0559 13.4669 25.0559C12.8405 25.0559 12.4566 25.2984 12.3051 25.7935C12.1535 26.2784 12.204 26.824 12.4364 27.4201C13.1234 29.2083 13.7599 30.8552 14.3358 32.3706C14.9117 33.8962 15.4876 35.3814 16.0332 36.8363C16.5888 38.3012 17.1445 39.8066 17.7103 41.3524C18.2761 42.8982 18.9126 44.5955 19.6299 46.4444H20.0744L34.3604 8.70896C35.3505 6.23367 36.2699 4.39489 37.1286 3.1724C37.9975 1.94992 39.1089 1.34373 40.4829 1.34373V0.889081H25.8333V1.34373C27.4094 1.34373 28.6015 1.54579 29.4098 1.96002C30.2079 2.38435 30.7434 2.96024 31.0162 3.70787C31.2789 4.44541 31.3193 5.31428 31.1273 6.29429C30.9354 7.2743 30.6323 8.33514 30.2079 9.4667L24.6714 24.0658C24.8532 22.6413 24.9442 20.853 24.9442 18.7111C24.9442 16.0035 24.6209 13.4979 23.9844 11.2044C23.3378 8.92112 22.4184 6.9409 21.2161 5.29408C20.0037 3.63715 18.5387 2.34394 16.7909 1.40434C15.0531 0.464747 13.0628 0 10.83 0C9.5469 0 8.40524 0.242477 7.39492 0.717327C6.3846 1.19218 5.52582 1.81858 4.8287 2.61673C4.12148 3.40478 3.59611 4.32417 3.2425 5.385C2.87879 6.43574 2.70703 7.54709 2.70703 8.70896ZM6.49573 9.55763C6.49573 7.44606 7.11203 5.678 8.35472 4.26355C9.58731 2.8491 11.3049 2.14188 13.5074 2.14188C15.3865 2.14188 17.0132 2.65714 18.3771 3.68767C19.7511 4.70809 20.8827 6.03161 21.792 7.63802C22.7013 9.24443 23.3782 11.0226 23.8227 12.9725C24.2673 14.9224 24.4996 16.8016 24.4996 18.6202C24.4996 20.2872 24.439 21.7724 24.338 23.0656C24.2369 24.3588 23.9743 25.6722 23.56 27.016L18.1548 41.2615L13.0224 27.6019C12.7193 26.824 12.6385 26.2784 12.7698 25.9652C12.9113 25.652 13.1537 25.5005 13.5074 25.5005C14.0125 25.5005 14.5076 25.7429 14.9824 26.238C15.4573 26.723 15.9422 27.2584 16.4373 27.8444C16.9222 28.4203 17.4274 28.9558 17.9326 29.4508C18.4377 29.9459 18.9833 30.1884 19.5794 30.1884C20.0037 30.1884 20.3472 30.0469 20.6301 29.764C20.913 29.4811 21.0544 29.0366 21.0544 28.4506C21.0544 27.4605 20.7008 26.5613 19.9835 25.7429C19.2662 24.9246 18.367 24.1264 17.2859 23.3283C16.1948 22.5402 15.0329 21.732 13.7801 20.9035C12.5273 20.065 11.3554 19.1153 10.2743 18.0443C9.18318 16.9734 8.284 15.7509 7.56667 14.3769C6.85945 13.0129 6.49573 11.4065 6.49573 9.55763Z" fill="white"/>
<path fill-rule="evenodd" clip-rule="evenodd" d="M0 0.939658C1.37404 0.939658 2.48539 1.55595 3.34416 2.77844C3.38457 2.81885 3.41488 2.86937 3.44519 2.90978C3.66746 2.56627 3.92004 2.23287 4.19283 1.91967C4.67778 1.3741 5.24356 0.899245 5.89016 0.495117H0V0.939658Z" fill="white"/>
</svg>
