<svg width="28" height="28" viewBox="0 0 28 28" fill="none" xmlns="http://www.w3.org/2000/svg">
<path fill-rule="evenodd" clip-rule="evenodd" d="M8.24784 13.657C8.24784 14.3647 8.21784 14.7936 8.40668 15.4995C8.4155 15.5384 8.4561 15.6972 8.47198 15.736C8.54434 15.9231 8.73142 15.8913 9.19206 15.9972L8.96262 15.0954C8.73318 13.9358 8.91144 13.8953 8.92732 13.1664C10.0163 13.4187 10.9746 13.3746 10.6199 14.7812C10.491 15.2913 10.4187 15.4431 10.7699 15.9672C11.0417 16.3714 10.8934 16.2602 11.4299 16.3273L13.3466 16.4508C13.4807 15.8702 13.899 15.3195 13.4543 14.7936C13.389 14.7159 13.3854 14.7142 13.299 14.6489C13.0131 14.4283 12.5912 14.28 12.5912 13.7329C12.5912 13.4487 13.516 11.5179 13.6961 11.0997C13.9696 10.4678 14.3703 9.82365 13.4349 9.37537L12.4024 8.97297C12.7271 8.74707 14.0914 8.5494 14.5009 8.61117C14.6809 8.63941 14.898 8.64294 15.0515 8.66412C15.4292 8.71883 15.7345 8.79649 16.0857 8.9165C16.2622 8.9765 16.3769 9.04534 16.557 9.08769C16.5499 9.35066 16.1969 10.2208 16.1069 10.489C16.001 10.8067 15.6498 11.735 15.6498 11.9574C15.6498 12.1586 15.8439 12.3722 16.0275 12.3722C16.3293 12.3722 16.3381 12.1974 16.5887 12.2063C17.2453 12.2274 16.8588 13.1046 16.8588 13.544C16.8588 13.7858 17.2364 14.0117 17.5224 13.83C17.6371 13.7576 17.7412 13.6588 17.84 13.5811L19.2608 12.4339C19.3649 12.3492 19.3084 12.3474 19.4637 12.3351C19.4761 12.478 19.5167 12.5645 19.552 12.6987C19.5891 12.831 19.612 12.9652 19.6367 13.1063C19.9403 14.7795 19.3967 15.6549 19.3879 15.9972C19.5485 15.9602 19.7197 15.9249 19.882 15.8878C20.0779 15.8419 20.0885 15.8455 20.1644 15.5278C20.5897 13.7558 20.2421 11.9274 19.2008 10.4837C19.1037 10.3496 18.9925 10.2278 18.8813 10.0849C18.3801 9.4442 17.5594 8.9112 16.834 8.54587C15.0074 7.6246 12.5065 7.87698 10.8546 9.04886C9.82212 9.78129 9.27501 10.5014 8.75083 11.5921C8.69612 11.7068 8.68553 11.728 8.63965 11.8586C8.56728 12.0633 8.5161 12.1639 8.45963 12.3951C8.36432 12.7745 8.24784 13.2122 8.24784 13.657Z" fill="white"/>
<path fill-rule="evenodd" clip-rule="evenodd" d="M15.3476 19.3593C15.3476 18.7187 15.7006 18.2563 15.3847 17.6597L17.0102 17.5468C17.2978 17.5309 17.5237 17.4991 17.7991 17.4674C18.0338 17.4409 18.3391 17.4091 18.558 17.3579C18.475 17.6633 17.5326 18.4098 17.2131 18.6198C16.7507 18.9234 15.863 19.317 15.3476 19.3593ZM10.0229 17.3579C10.3212 17.4268 10.9177 17.5079 11.269 17.5079C11.2019 17.6491 11.0854 18.1892 11.0413 18.378C10.9107 18.2898 10.886 18.2704 10.7677 18.161C10.6071 18.0092 10.4112 17.875 10.2436 17.665L10.0724 17.4585C10.0018 17.3579 10.0512 17.4109 10.0229 17.3579ZM5.03711 13.3163C5.06005 13.3516 5.60011 13.8899 5.71659 13.9217C5.646 14.1882 5.22595 14.2623 5.22595 14.9789C5.22595 15.8384 6.41549 16.4102 7.10027 16.6537C7.92624 16.9485 8.19274 17.005 8.98871 17.1814C9.25168 17.2397 9.20403 17.3756 9.527 17.778C10.3318 18.7857 11.4472 19.5693 12.7338 19.8959C14.3399 20.3053 15.6794 20.1112 17.1231 19.3964C17.3984 19.2605 17.6791 19.0646 17.9261 18.8793C19.0257 18.0533 19.2286 17.4515 19.4104 17.2662C19.4898 17.185 19.3645 17.2397 19.5587 17.1885L20.8012 16.8832C21.726 16.6202 23.3532 16.0378 23.3532 14.903C23.3532 14.1052 22.3437 13.5687 21.6977 13.311C21.5901 13.2687 21.4559 13.221 21.3518 13.1663C21.2847 13.2916 21.1612 13.6164 21.1259 13.7699C21.3889 13.8317 21.8689 14.0664 22.0913 14.2005C22.2413 14.2905 22.3649 14.3788 22.4813 14.49C22.4866 14.497 22.4955 14.5041 22.5008 14.5094L22.6437 14.67C23.1043 15.3124 21.7277 15.9037 21.2441 16.0784C20.577 16.3184 19.9028 16.479 19.1527 16.6308C17.7938 16.9061 15.6424 17.0561 14.2905 17.0561C12.6085 17.0561 10.7236 16.8885 9.08225 16.562C8.54396 16.4543 5.5807 15.7395 5.86838 14.8306C5.92662 14.6471 6.02545 14.5094 6.17017 14.4123C6.33078 14.4547 6.84966 15.0406 7.0385 15.1677L7.26794 13.4328C7.29088 13.2351 7.3403 13.0445 7.3403 12.8257L6.18429 13.0675C5.78719 13.1575 5.41833 13.2281 5.03711 13.3163Z" fill="white"/>
</svg>
