<svg width="77" height="86" viewBox="0 0 77 86" fill="none" xmlns="http://www.w3.org/2000/svg">
<g clip-path="url(#clip0_788_3955)">
<path fill-rule="evenodd" clip-rule="evenodd" d="M40.0412 81.8964V60.8996C42.6743 59.1357 49.727 55.077 52.632 53.3256C53.9654 52.5219 54.4353 52.3813 55.1425 50.8773C55.7357 49.6152 55.5755 47.947 55.5755 46.1853C55.5755 42.7684 55.5755 39.3515 55.5755 35.9349C56.3687 35.7499 68.1632 28.7947 69.1586 28.196C69.9342 27.7297 70.7104 27.2726 71.4487 26.85C72.2206 26.4081 73.0383 25.9987 73.754 25.519L73.7563 59.2486C73.7811 63.1732 71.7401 63.6748 68.7259 65.4584L47.3635 77.8143C44.6496 79.3316 42.7572 80.5928 40.0412 81.8964ZM3.35361 25.519L12.3479 30.7393C13.1647 31.2225 20.8152 35.7677 21.5321 35.9349C21.5321 38.0723 21.2474 49.1269 21.8605 50.6513C22.4704 52.1674 23.0429 52.4631 24.3725 53.2633C27.2284 54.9819 34.4843 59.1699 37.0664 60.8996V81.8964C36.2957 81.7168 34.2204 80.3809 33.4223 79.9211L29.8517 77.8719C29.2179 77.5256 28.6927 77.2205 28.0704 76.8434L6.71085 64.4848C4.73126 63.2981 3.33272 62.5239 3.34949 59.4155L3.35361 25.519ZM38.5538 42.7133C38.9133 42.7133 50.848 50.1708 51.2787 50.8146L38.5538 58.4197L25.8289 50.8146C26.3043 50.104 31.2473 47.2052 32.076 46.6487C33.1129 45.9523 37.9928 42.7133 38.5538 42.7133ZM24.5068 48.0039V35.9349C25.247 35.7371 33.5193 30.2899 34.8499 29.4189C39.659 26.2699 37.588 26.6604 45.5902 31.5407C46.4504 32.0652 51.8595 35.7369 52.6008 35.9349V48.0039L42.7187 41.6878C40.8144 40.409 38.6668 38.9149 36.1048 40.5938L24.5068 48.0039ZM72.7624 22.7085L54.0881 33.4549L46.5862 28.7256C45.3154 27.8709 44.0782 27.1689 42.8505 26.3457C37.401 22.6911 37.6907 24.4506 30.6292 28.668C30.1138 28.9758 23.366 33.4549 23.0195 33.4549C22.9906 33.4549 6.62437 24.2353 4.34513 22.7085C5.00041 21.7294 7.13441 20.7201 8.27958 20.0313C9.73391 19.1567 11.1223 18.4258 12.5762 17.5514C19.3238 13.4934 26.9496 9.32633 33.8316 5.25394C39.5288 1.88257 39.123 2.86494 47.4693 7.67197L64.4293 17.4883C66.0029 18.4195 72.0049 21.5765 72.7624 22.7085ZM0.378906 26.015V59.4117C0.378906 61.0845 0.858666 62.8615 1.69915 64.0427C1.93946 64.3801 2.26773 64.8476 2.56309 65.1624C3.73168 66.4076 13.7777 71.854 16.2136 73.3295C20.6316 76.0051 25.6565 78.6774 30.0324 81.3284C32.3423 82.7277 35.7905 85.0378 38.2234 85.0378C41.5381 85.0378 42.1324 84.1028 44.5598 82.7798L62.1532 72.6052C64.5573 71.1629 73.39 66.3928 74.5445 65.1624C75.1471 64.5202 75.7629 63.583 76.0961 62.7467C76.4621 61.8289 76.7287 60.7528 76.7287 59.4117V26.015C76.7287 20.5642 73.235 19.2247 69.7964 17.244L59.758 11.415C54.8833 8.68915 49.507 5.34354 44.777 2.76028C41.5935 1.02181 41.5576 0.388916 37.8927 0.388916C35.647 0.388916 29.7779 4.20842 27.411 5.60915L7.41472 17.1821C6.10593 17.9566 3.43477 19.3354 2.56309 20.2643C1.13606 21.7851 0.378906 23.7835 0.378906 26.015H0.378906Z" fill="#2C2C2C"/>
</g>
<defs>
<clipPath id="clip0_788_3955">
<rect width="76.3499" height="84.6488" fill="white" transform="translate(0.378906 0.389893)"/>
</clipPath>
</defs>
</svg>
