<svg width="574" height="397" viewBox="0 0 574 397" fill="none" xmlns="http://www.w3.org/2000/svg">
<g clip-path="url(#clip0_141_2811)">
<path fill-rule="evenodd" clip-rule="evenodd" d="M448.371 88.7359C429.122 88.7359 425.027 87.6471 406.956 83.3706C369.446 74.4862 349.519 77.2267 311.768 89.8511C293.207 96.058 255.419 111.276 237.736 118.866C233.489 120.691 229.82 122.338 225.652 124.131C207.943 131.764 173.498 147.734 155.763 157.291L133.291 169.521C131.399 170.652 129.791 171.473 127.893 172.535C125.785 173.714 124.266 174.513 122.174 175.754C118.453 177.958 115.157 179.742 111.53 181.94C104.208 186.375 85.8943 197.589 79.7496 202.208L59.9224 216.557C56.5636 219.077 53.599 221.512 50.2979 224.285C39.4329 233.427 34.1713 238.25 24.5363 250.059C20.5151 254.983 13.666 265.493 13.666 273.893C13.666 278.39 28.5259 276.192 18.6228 299.894C14.8067 309.031 9.05614 318.604 27.8583 318.604C49.9142 318.604 61.226 310.893 70.7874 291.604C78.4302 276.176 80.4329 269.075 86.2045 254.43C87.9233 250.07 89.4424 246.062 91.2349 241.585C104.229 209.077 122.006 179.084 156.961 166.912C171.469 161.857 194.828 153.751 209.94 149.969C219.334 147.618 228.559 144.83 237.699 142.5C265.422 135.446 281.548 127.661 305.06 113.648C309.57 110.96 308.745 100.14 328.977 93.3964C359.443 83.2443 410.026 91.608 441.911 96.2527C461.791 99.151 492.094 105.568 511.448 105.568C521.635 105.568 520.042 102.013 523.759 95.8003C526.234 91.6658 531.422 83.2285 531.422 79.7937C531.422 66.9642 514.902 74.502 507.18 77.1005C501.082 79.1519 495.201 80.6037 488.909 82.4921C479.074 85.4378 458.763 88.7359 448.371 88.7359Z" fill="url(#paint0_radial_141_2811)"/>
<path fill-rule="evenodd" clip-rule="evenodd" d="M558.231 113.459L544.443 129.118C543.171 130.544 541.126 133.552 539.833 134.499C540.58 131.285 543.781 126.683 545.021 123.385C548.243 114.816 550.993 105.542 542.85 98.8722C540.248 96.7419 534.309 95.148 529.846 95.0481C529.893 97.1416 530.288 99.5718 530.419 102.402C530.529 104.779 530.571 103.512 530.451 105.647C529.673 119.581 526.818 129.455 521.735 142.168C518.04 151.426 512.763 161.573 508.116 170.089C504.242 177.185 499.958 184.102 495.574 190.678C483.474 208.841 464.483 235.478 450.112 252.49C448.745 254.104 447.751 255.619 446.385 257.182C444.508 259.328 440.088 264.309 438.91 266.529C443.515 265.456 482.023 244.962 489.198 241.112L507.275 230.791C517.656 224.527 526.534 219.487 536.685 212.355C542.892 207.994 552.107 200.183 555.24 193.05C563.934 173.272 543.318 160.7 541.967 144.925C541.731 142.142 542.698 141.495 544.59 138.213C546.882 134.236 549.1 130.149 551.424 126.115L556.554 117.046C557.405 115.657 557.821 115.221 558.231 113.459Z" fill="url(#paint1_radial_141_2811)"/>
<path fill-rule="evenodd" clip-rule="evenodd" d="M358.487 163.956C348.473 163.956 349.293 163.746 339.338 161.552C323.374 158.033 314.99 158.57 298.753 164.151C268.628 174.497 219.817 196.458 194.487 214.459C186.266 220.297 165.324 234.894 165.051 247.066C175.837 249.949 158.874 266.003 169.256 266.003C178.097 266.003 182.744 266.639 188.715 257.597C199.223 241.675 199.076 218.956 219.56 203.775C223.765 200.656 228.942 198.836 234.367 197.032C253.485 190.677 274.048 187.195 289.654 178.19C301.886 171.131 293.207 172.798 301.202 168.18C307.852 164.34 312.246 165.176 318.396 164.34C328.105 163.014 356.09 167.701 366.219 169.374C368.9 169.816 372.458 170.368 375.333 170.768C384.932 172.109 388.695 173.582 391.429 167.996C392.017 166.796 395.282 161.447 395.282 160.8C395.282 154.635 388.842 157.454 384.049 159.032C376.879 161.389 366.103 163.956 358.487 163.956Z" fill="url(#paint2_radial_141_2811)"/>
<path fill-rule="evenodd" clip-rule="evenodd" d="M462.564 272.315C462.564 276.655 469.103 277.575 472.552 277.575C473.603 273.062 469.692 266.45 478.024 263.588C483.637 261.663 491.559 262.294 496.915 259.349C505.751 254.483 492.179 254.499 503.459 247.492C507.039 245.267 520.989 237.914 523.034 236.046C525.794 233.521 521.095 235.636 530.209 227.967L538.562 221.071C540.249 219.761 542.967 217.562 543.513 215.505C537.011 214.127 517.341 230.255 511.533 234.526C508.153 237.009 504.868 239.371 501.357 241.706C497.746 244.105 494.529 246.104 490.208 247.903L477.813 252.863C474.008 255.009 462.564 270.221 462.564 272.315Z" fill="url(#paint3_radial_141_2811)"/>
<path fill-rule="evenodd" clip-rule="evenodd" d="M395.809 71.9036V75.0597C406.6 77.5793 419.452 79.0469 431.452 81.9978C439.163 83.8968 437.834 84.528 446.796 84.528C449.356 84.528 452.015 82.1346 453.724 80.9406C457.167 78.5419 457.151 78.7892 462.581 78.7629C467.774 78.7366 476.805 76.2958 478.86 73.4817C476.731 72.4612 464.336 74.0077 459.937 74.0077C439.148 74.0077 435.006 75.5173 416.104 70.5202C411.82 69.3893 401.507 71.7774 395.809 71.9036Z" fill="url(#paint4_radial_141_2811)"/>
<path fill-rule="evenodd" clip-rule="evenodd" d="M60.9746 317.026C64.1022 321.298 71.8081 316.348 74.9882 314.743C78.8201 312.813 80.5127 312.639 83.882 309.967C88.8704 306.017 87.5405 306.659 93.1859 305.601C96.9705 304.891 100.95 303.129 104.603 302.824C104.082 300.883 103.846 301.335 100.408 299.663C77.7005 288.622 82.2631 295.696 80.7492 302.098C79.8609 305.833 77.4377 305.212 75.025 307.947C72.9224 310.325 72.7437 312.96 69.7318 314.217C66.4991 315.569 62.8196 314.512 60.9746 317.026Z" fill="url(#paint5_radial_141_2811)"/>
<path fill-rule="evenodd" clip-rule="evenodd" d="M132.462 193.939C132.846 192.282 133.124 190.341 133.513 188.679L152.904 182.84C157.083 181.53 157.677 180.762 159.995 177.312C162.302 173.882 163.816 173.424 169.257 173.424C169.052 170.957 169.251 171.32 164.526 171.32C162.05 171.32 160.132 171.967 157.908 172.588C154.844 173.44 154.523 173.766 152.236 175.328C146.36 179.358 150.886 172.383 132.057 187.748C130.943 188.663 128.53 190.372 127.784 191.488C125.671 194.654 129.744 193.939 132.462 193.939Z" fill="url(#paint6_radial_141_2811)"/>
<path fill-rule="evenodd" clip-rule="evenodd" d="M14.718 292.304C14.718 289.758 12.0057 287.043 9.46156 287.043C5.21438 287.043 2.77015 292.714 5.90823 295.859C9.05156 299.005 14.718 296.554 14.718 292.304Z" fill="white"/>
<path fill-rule="evenodd" clip-rule="evenodd" d="M98.8203 240.228C98.8203 246.472 108.807 248.392 108.807 239.176C108.807 234.484 98.8203 233.29 98.8203 240.228Z" fill="white"/>
<path fill-rule="evenodd" clip-rule="evenodd" d="M158.219 146.598H159.27C165.536 146.598 165.11 136.603 158.745 136.603C152.379 136.603 151.953 146.598 158.219 146.598Z" fill="white"/>
<path fill-rule="evenodd" clip-rule="evenodd" d="M559.281 99.2563C559.281 100.514 559.902 101.944 560.543 102.733C561.778 104.259 563.019 104.516 564.538 104.516C571.135 104.516 571.135 94.5222 564.538 94.5222C561.862 94.5222 559.281 96.7999 559.281 99.2563Z" fill="white"/>
<path fill-rule="evenodd" clip-rule="evenodd" d="M457.834 295.46C457.834 305.28 467.821 301.951 467.821 297.038C467.821 289.558 457.834 290.915 457.834 295.46Z" fill="white"/>
<path fill-rule="evenodd" clip-rule="evenodd" d="M191.97 381.842L191.859 384.882C193.983 386.728 193.184 386.46 196.59 386.46C198.435 384.335 198.167 385.135 198.167 381.726C196.038 379.885 196.842 380.148 193.436 380.148L191.97 381.842Z" fill="white"/>
<path fill-rule="evenodd" clip-rule="evenodd" d="M67.3916 187.742L67.2812 190.783C69.4048 192.629 68.6059 192.361 72.012 192.361C73.857 190.236 73.5889 191.035 73.5889 187.627C71.4601 185.786 72.2643 186.049 68.8582 186.049L67.3916 187.742Z" fill="white"/>
<path fill-rule="evenodd" clip-rule="evenodd" d="M170.309 136.077C170.309 139.965 173.83 139.112 175.565 138.707C176.921 135.877 176.585 135.756 175.039 133.447H171.886C171.617 133.852 170.309 135.678 170.309 136.077Z" fill="white"/>
<path fill-rule="evenodd" clip-rule="evenodd" d="M475.18 294.934C475.18 296.175 476.21 297.274 476.757 298.09H479.91L481.004 296.554C481.062 296.48 481.198 296.328 481.246 296.27C481.293 296.212 481.408 296.08 481.487 295.986C479.905 289.195 475.18 293.487 475.18 294.934Z" fill="white"/>
<path fill-rule="evenodd" clip-rule="evenodd" d="M450.475 58.2272V60.3312C451.058 60.7257 452.241 61.9093 452.577 61.9093C457.728 61.9093 455.91 57.4066 455.731 56.6491C454.711 56.4124 450.475 54.9501 450.475 58.2272Z" fill="white"/>
<path fill-rule="evenodd" clip-rule="evenodd" d="M521.961 240.754C521.961 244.884 522.045 244.962 526.166 244.962C527.217 243.39 527.743 243.9 527.743 241.806C527.743 240.523 526.524 239.176 524.589 239.176C523.37 239.176 522.991 240.039 521.961 240.754Z" fill="white"/>
<path fill-rule="evenodd" clip-rule="evenodd" d="M93.5645 253.379V255.483C94.1479 255.877 95.3306 257.061 95.667 257.061C97.7906 257.061 99.3465 255.919 99.3465 253.905C99.3465 252.642 98.495 252.358 97.7696 251.275C96.0875 251.275 93.5645 250.906 93.5645 253.379Z" fill="white"/>
<path fill-rule="evenodd" clip-rule="evenodd" d="M569.27 121.875L568.744 125.557C569.79 126.262 570.2 126.514 571.372 127.135C572.545 126.514 572.955 126.262 574.001 125.557L573.475 121.875C572.14 121.559 571.793 120.896 569.27 121.875Z" fill="white"/>
<path fill-rule="evenodd" clip-rule="evenodd" d="M0 316.5V318.604C3.24321 320.324 2.63346 319.619 4.73077 319.13C6.4391 311.787 0 314.286 0 316.5Z" fill="white"/>
<path fill-rule="evenodd" clip-rule="evenodd" d="M563.488 138.181C563.488 139.933 564.434 139.723 566.117 139.759C566.8 136.54 565.654 136.603 564.014 136.603C563.651 137.245 563.488 137.166 563.488 138.181Z" fill="white"/>
<path fill-rule="evenodd" clip-rule="evenodd" d="M8.9358 332.807C9.64542 332.412 9.51926 332.523 10.5127 332.281V329.651H7.88452C7.46926 331.607 7.30106 331.607 8.9358 332.807Z" fill="white"/>
<path fill-rule="evenodd" clip-rule="evenodd" d="M215.514 389.09V390.142C216.907 390.815 216.076 390.626 218.142 390.668C218.573 388.627 218.573 390.084 218.142 388.038C216.985 388.064 215.514 387.88 215.514 389.09Z" fill="white"/>
<path fill-rule="evenodd" clip-rule="evenodd" d="M49.4102 201.829C49.4102 203.013 49.8254 202.986 50.4614 203.933C52.7585 202.718 51.3498 204.133 52.564 201.829C51.7335 201.256 49.4102 199.783 49.4102 201.829Z" fill="white"/>
<path fill-rule="evenodd" clip-rule="evenodd" d="M467.82 205.511C469.035 207.815 467.626 206.4 469.923 207.615C472.467 203.949 469.481 203.886 467.82 205.511Z" fill="white"/>
<path fill-rule="evenodd" clip-rule="evenodd" d="M35.2188 217.609C36.8272 218.956 37.8469 217.615 37.8469 217.609C37.7471 216.71 38.1045 216.752 36.7957 215.505C35.4973 216.379 35.6445 215.821 35.2188 217.609Z" fill="white"/>
<path fill-rule="evenodd" clip-rule="evenodd" d="M455.73 224.448C455.73 225.931 455.956 225.426 456.782 226.026C459.41 224.548 456.861 223.459 456.782 223.396C456.314 223.659 455.73 223.743 455.73 224.448Z" fill="white"/>
<path fill-rule="evenodd" clip-rule="evenodd" d="M237.59 395.402C239.067 398.038 240.16 395.486 240.218 395.402C239.02 393.267 237.705 394.734 237.59 395.402Z" fill="white"/>
<path fill-rule="evenodd" clip-rule="evenodd" d="M466.77 54.0191C468.494 54.8186 468.294 55.129 468.872 52.967C467.637 53.0722 466.959 52.9144 466.77 54.0191Z" fill="white"/>
<path fill-rule="evenodd" clip-rule="evenodd" d="M540.36 241.806C541.274 239.823 541.337 240.807 539.834 239.702C538.919 241.685 538.856 240.707 540.36 241.806Z" fill="white"/>
<path fill-rule="evenodd" clip-rule="evenodd" d="M406.846 175.528H407.371L406.935 174.918L406.846 175.528Z" fill="url(#paint7_radial_141_2811)"/>
<path fill-rule="evenodd" clip-rule="evenodd" d="M558.23 113.459H558.756L558.32 112.848L558.23 113.459Z" fill="white"/>
<path d="M169.246 64.634C169.246 78.3314 172.505 90.6454 179.012 101.581C185.525 112.517 193.694 122.454 203.518 131.401C213.342 140.349 223.992 148.523 235.466 155.919C246.946 163.32 257.596 170.168 267.42 176.465C277.244 182.761 285.413 188.784 291.92 194.523C298.433 200.267 301.692 206.011 301.692 211.755C301.692 214.848 300.919 217.11 299.374 218.546C297.828 219.982 295.952 220.702 293.744 220.702C289.77 220.702 286.07 218.877 282.648 215.232C279.231 211.592 275.809 207.615 272.387 203.307C268.965 198.994 265.381 195.017 261.627 191.377C257.874 187.732 253.68 185.907 249.044 185.907C244.407 185.907 241.537 187.732 240.434 191.377C239.33 195.017 239.661 199.052 241.427 203.47C246.505 216.726 251.194 228.987 255.504 240.249C259.804 251.516 263.998 262.557 268.082 273.383C272.167 284.208 276.309 295.365 280.498 306.848C284.698 318.336 289.439 330.929 294.738 344.621H298.049L404.003 64.634C411.293 46.3024 418.132 32.605 424.534 23.547C430.936 14.4943 439.215 9.96535 449.365 9.96535V6.65146H340.763V9.96535C352.464 9.96535 361.294 11.5118 367.25 14.5995C373.211 17.6925 377.184 22.0006 379.171 27.5237C381.158 33.0469 381.432 39.4537 380.002 46.7443C378.567 54.0296 376.301 61.8724 373.211 70.2676L332.153 178.616C333.477 168.017 334.14 154.761 334.14 138.855C334.14 118.756 331.764 100.198 327.022 83.1918C322.276 66.1805 315.432 51.5468 306.491 39.2907C297.55 27.0293 286.622 17.419 273.712 10.4598C260.797 3.50064 246.063 0.0236816 229.506 0.0236816C220.018 0.0236816 211.518 1.79109 204.012 5.32065C196.506 8.85546 190.161 13.5528 184.973 19.4073C179.785 25.2566 175.869 32.1053 173.22 39.9482C170.571 47.791 169.246 56.0179 169.246 64.634ZM197.394 70.9304C197.394 55.2499 201.972 42.1574 211.129 31.6634C220.291 21.1747 233.043 15.9304 249.375 15.9304C263.278 15.9304 275.315 19.7387 285.465 27.3606C295.621 34.9773 304.068 44.7559 310.796 56.686C317.529 68.6107 322.549 81.8084 325.866 96.2791C329.172 110.75 330.828 124.721 330.828 138.197C330.828 150.564 330.444 161.557 329.672 171.162C328.899 180.773 326.965 190.546 323.874 200.488L283.81 306.185L245.732 204.796C243.524 199.052 242.915 195.017 243.908 192.703C244.902 190.383 246.726 189.226 249.375 189.226C253.128 189.226 256.771 191.046 260.303 194.691C263.835 198.336 267.42 202.313 271.063 206.621C274.705 210.924 278.406 214.901 282.154 218.546C285.907 222.191 289.991 224.016 294.406 224.016C297.497 224.016 300.094 222.964 302.186 220.866C304.283 218.767 305.335 215.505 305.335 211.092C305.335 203.802 302.685 197.116 297.387 191.046C292.088 184.97 285.413 179.005 277.355 173.151C269.297 167.296 260.634 161.279 251.362 155.093C242.089 148.907 233.427 141.837 225.369 133.889C217.311 125.936 210.635 116.878 205.337 106.715C200.038 96.5526 197.394 84.6278 197.394 70.9304Z" fill="white"/>
<path fill-rule="evenodd" clip-rule="evenodd" d="M149.197 7.0197C159.347 7.0197 167.626 11.5487 174.029 20.6067C174.265 20.9433 174.507 21.2852 174.743 21.6376C176.394 19.0286 178.234 16.5721 180.273 14.2734C183.895 10.1863 188.084 6.66201 192.836 3.70581H149.197V7.0197Z" fill="white"/>
<path fill-rule="evenodd" clip-rule="evenodd" d="M181.871 352.795C180.189 352.795 144.215 329.814 137.613 325.548C130.18 320.74 115.751 312.818 106.705 312.818C91.0775 312.818 89.1274 322.407 69.3896 327.557C38.1139 335.71 28.5368 318.173 25.9664 326.71C25.8402 327.141 25.2305 331.002 25.2305 331.229C25.2305 358.234 64.6641 363.315 93.0382 363.315C124.866 363.315 152.951 358.623 180.179 353.668C183.469 353.074 190.093 358.155 196.516 360.759C215.244 368.349 232.79 375.94 254.41 375.94C270.794 375.94 281.57 376.024 297.576 371.274C323.873 363.468 345.151 352.143 367.123 335.663C386.409 321.198 397.016 310.819 413.285 294.539L426.174 281.136C427.829 279.463 428.607 278.17 430.374 276.402C431.929 274.85 437.959 268.133 438.384 266.529L427.693 271.61C414.268 278.106 392.822 287.196 378.913 292.756C351.338 303.786 329.046 312.029 300.866 321.434L268.014 331.692C257.9 334.821 191.711 352.795 181.871 352.795Z" fill="url(#paint8_radial_141_2811)"/>
<path fill-rule="evenodd" clip-rule="evenodd" d="M205.525 263.373C200.742 263.373 193.604 271.263 182.923 271.263C177.85 271.263 175.227 268.959 171.359 268.633C167.784 275.392 173.919 280.842 179.154 282.93C193.062 288.469 217.71 285.55 232.107 283.14C245.627 280.879 237.327 282.483 255.13 288.427C281.228 297.138 301.103 288.427 321.902 274.109C327.437 270.295 342.476 256.94 346.397 251.801C348.668 248.823 351.643 246.546 353.756 243.384L317.818 258.444C311.4 260.732 305.902 262.947 299.289 265.151C289.586 268.391 244.071 282.82 239.019 280.926C238.294 280.652 235.892 279.032 235.061 278.533C233.584 277.638 232.601 277.023 231.177 276.102C224.38 271.71 212.49 263.373 205.525 263.373Z" fill="url(#paint9_radial_141_2811)"/>
<path fill-rule="evenodd" clip-rule="evenodd" d="M406.845 175.528C404.9 176.833 404.985 177.333 403.534 179.053C402.856 179.863 400.564 182.493 400.012 182.892C400.543 180.62 408.228 167.112 394.23 167.112C398.682 186.227 370.371 222.943 357.509 238.729C356.158 240.386 355.517 241.012 354.281 242.858C356.468 242.348 363.285 238.787 365.351 237.63L376.353 231.807C380.074 229.876 383.407 227.967 387.102 225.731C393.095 222.102 402.099 217.141 405.452 210.955C408.138 206.006 406.236 202.381 404.044 198.321C399.45 189.804 398.204 190.604 403.912 181.015C404.795 179.537 406.446 177.022 406.845 175.528Z" fill="url(#paint10_radial_141_2811)"/>
</g>
<defs>
<radialGradient id="paint0_radial_141_2811" cx="0" cy="0" r="1" gradientUnits="userSpaceOnUse" gradientTransform="translate(272.544 195.567) rotate(90) scale(123.037 258.878)">
<stop stop-color="#3E76FF" stop-opacity="0.541667"/>
<stop offset="0.578125" stop-color="#001E67"/>
<stop offset="0.979167" stop-color="#2C0723" stop-opacity="0.35"/>
</radialGradient>
<radialGradient id="paint1_radial_141_2811" cx="0" cy="0" r="1" gradientUnits="userSpaceOnUse" gradientTransform="translate(498.57 180.788) rotate(90) scale(85.7404 59.6602)">
<stop stop-color="#3E76FF" stop-opacity="0.541667"/>
<stop offset="0.578125" stop-color="#001E67"/>
<stop offset="0.979167" stop-color="#2C0723" stop-opacity="0.35"/>
</radialGradient>
<radialGradient id="paint2_radial_141_2811" cx="0" cy="0" r="1" gradientUnits="userSpaceOnUse" gradientTransform="translate(280.166 211.506) rotate(90) scale(54.5064 115.115)">
<stop stop-color="#3E76FF" stop-opacity="0.541667"/>
<stop offset="0.578125" stop-color="#001E67"/>
<stop offset="0.979167" stop-color="#2C0723" stop-opacity="0.35"/>
</radialGradient>
<radialGradient id="paint3_radial_141_2811" cx="0" cy="0" r="1" gradientUnits="userSpaceOnUse" gradientTransform="translate(503.039 246.499) rotate(90) scale(31.0765 40.4744)">
<stop stop-color="#3E76FF" stop-opacity="0.541667"/>
<stop offset="0.578125" stop-color="#001E67"/>
<stop offset="0.979167" stop-color="#2C0723" stop-opacity="0.35"/>
</radialGradient>
<radialGradient id="paint4_radial_141_2811" cx="0" cy="0" r="1" gradientUnits="userSpaceOnUse" gradientTransform="translate(437.334 77.3725) rotate(90) scale(7.15546 41.5257)">
<stop stop-color="#3E76FF" stop-opacity="0.541667"/>
<stop offset="0.578125" stop-color="#001E67"/>
<stop offset="0.979167" stop-color="#2C0723" stop-opacity="0.35"/>
</radialGradient>
<radialGradient id="paint5_radial_141_2811" cx="0" cy="0" r="1" gradientUnits="userSpaceOnUse" gradientTransform="translate(82.7887 306.307) rotate(90) scale(12.4149 21.8141)">
<stop stop-color="#3E76FF" stop-opacity="0.541667"/>
<stop offset="0.578125" stop-color="#001E67"/>
<stop offset="0.979167" stop-color="#2C0723" stop-opacity="0.35"/>
</radialGradient>
<radialGradient id="paint6_radial_141_2811" cx="0" cy="0" r="1" gradientUnits="userSpaceOnUse" gradientTransform="translate(148.227 182.655) rotate(90) scale(11.3533 21.0297)">
<stop stop-color="#3E76FF" stop-opacity="0.541667"/>
<stop offset="0.578125" stop-color="#001E67"/>
<stop offset="0.979167" stop-color="#2C0723" stop-opacity="0.35"/>
</radialGradient>
<radialGradient id="paint7_radial_141_2811" cx="0" cy="0" r="1" gradientUnits="userSpaceOnUse" gradientTransform="translate(407.109 175.223) rotate(90) scale(0.305085 0.262826)">
<stop stop-color="#3E76FF" stop-opacity="0.541667"/>
<stop offset="0.578125" stop-color="#001E67"/>
<stop offset="0.979167" stop-color="#2C0723" stop-opacity="0.35"/>
</radialGradient>
<radialGradient id="paint8_radial_141_2811" cx="0" cy="0" r="1" gradientUnits="userSpaceOnUse" gradientTransform="translate(231.807 321.234) rotate(90) scale(54.7056 206.577)">
<stop stop-color="#3E76FF" stop-opacity="0.541667"/>
<stop offset="0.578125" stop-color="#001E67"/>
<stop offset="0.979167" stop-color="#2C0723" stop-opacity="0.35"/>
</radialGradient>
<radialGradient id="paint9_radial_141_2811" cx="0" cy="0" r="1" gradientUnits="userSpaceOnUse" gradientTransform="translate(262.025 267.645) rotate(90) scale(24.2611 91.7316)">
<stop stop-color="#3E76FF" stop-opacity="0.541667"/>
<stop offset="0.578125" stop-color="#001E67"/>
<stop offset="0.979167" stop-color="#2C0723" stop-opacity="0.35"/>
</radialGradient>
<radialGradient id="paint10_radial_141_2811" cx="0" cy="0" r="1" gradientUnits="userSpaceOnUse" gradientTransform="translate(380.563 204.985) rotate(90) scale(37.873 26.282)">
<stop stop-color="#3E76FF" stop-opacity="0.541667"/>
<stop offset="0.578125" stop-color="#001E67"/>
<stop offset="0.979167" stop-color="#2C0723" stop-opacity="0.35"/>
</radialGradient>
<clipPath id="clip0_141_2811">
<rect width="574" height="396.615" fill="white"/>
</clipPath>
</defs>
</svg>
