<svg width="83" height="83" viewBox="0 0 83 83" fill="none" xmlns="http://www.w3.org/2000/svg">
<path opacity="0.05" d="M82.0653 41.0353C82.0653 63.2282 64.1054 81.2166 41.9538 81.2166C19.8022 81.2166 1.84225 63.2282 1.84225 41.0353C1.84225 18.8424 19.8022 0.853971 41.9538 0.853972C64.1054 0.853973 82.0653 18.8424 82.0653 41.0353Z" stroke="url(#paint0_linear_141_2232)" stroke-width="1.70794"/>
<g clip-path="url(#clip0_141_2232)">
<path fill-rule="evenodd" clip-rule="evenodd" d="M20.207 35.965L20.207 36.0244L20.207 37.1179C20.2187 37.4032 20.2654 37.6647 20.3939 38.3898C20.756 40.3986 21.6204 42.2885 22.5315 44.0715C23.5711 46.104 24.9027 47.8513 26.2576 49.6461C26.83 50.395 28.6639 52.3681 29.2245 52.9506L30.0188 53.6756C30.6029 54.2462 30.9299 54.6146 31.6191 55.1614C32.4367 55.8152 33.231 56.5759 34.2239 57.2415C34.5393 57.4436 34.7729 57.6338 35.1116 57.8596C37.5529 59.5118 41.5711 61.794 45.1804 61.794C46.9675 61.794 47.5749 61.0927 48.6846 59.9635C50.2148 58.4064 51.7566 56.6829 49.9228 54.3531C49.7125 54.0798 49.5256 53.8183 49.2687 53.5924C48.194 52.6415 46.1616 50.9893 44.7716 50.9893C42.9494 50.9893 42.891 51.5242 41.6879 52.4989C40.8001 53.2121 41.1506 53.5211 39.8657 53.5211C38.0552 53.5211 34.3407 49.7888 33.0909 48.5169C31.841 47.257 28.255 43.596 28.255 41.4446C28.255 40.6838 29.2946 39.9944 29.7035 39.4596C29.8553 39.2575 29.9487 39.1981 30.0889 39.0198C30.2057 38.8771 30.3342 38.6751 30.4277 38.5086C31.5607 36.7019 30.0422 34.5386 29.0961 33.243C28.4303 32.3515 27.2739 30.9965 25.9773 30.7587C25.1129 30.6042 24.4705 30.7944 23.8631 31.151L22.2979 32.4347C21.8073 32.9458 21.4335 33.3143 20.978 33.873C20.5224 34.4197 20.207 35.1686 20.207 35.965H20.207Z" fill="url(#paint1_linear_141_2232)"/>
<path fill-rule="evenodd" clip-rule="evenodd" d="M28.2559 29.546C29.4823 30.378 29.7977 31.0674 30.4168 31.4834C30.4986 31.1506 31.106 30.4374 31.3396 30.1522C32.0988 29.1656 32.4259 28.9873 33.045 28.3454C33.2552 28.1196 33.4421 28.0007 33.6757 27.7987C35.2059 26.3961 37.8691 25.1361 39.8665 24.6488C40.4155 24.518 41.2098 24.316 41.8639 24.316C41.969 24.6963 43.5693 27.1449 43.6861 27.6085C43.9664 27.4183 45.4382 24.7795 45.6835 24.316C47.2137 24.316 49.69 25.255 51.0449 25.9444C51.8042 26.3248 52.5517 26.7883 53.2059 27.2876C54.6075 28.3454 54.444 28.2979 55.5303 29.4033L56.7568 30.8535C57.4109 31.733 58.2519 33.2783 58.6608 34.3243C59.0462 35.2989 59.2682 35.9527 59.5018 37.0106C59.5835 37.3672 59.6887 38.3775 59.7821 38.5796C59.5134 38.7222 56.8035 40.3031 56.4648 40.6002L59.7821 42.5496C59.4317 44.0829 59.5018 44.6773 58.8243 46.3889C58.322 47.6607 57.9482 48.4215 57.224 49.5744L56.2312 50.9295C55.2383 52.0943 53.7432 53.6396 52.3999 54.3646C52.4466 54.9233 53.054 55.8266 52.6452 57.5739C53.3928 57.1817 53.9651 56.8013 54.6543 56.3259L56.4414 54.852C56.7451 54.5548 56.9787 54.4478 57.2708 54.0912C58.6374 52.4271 58.7659 52.5579 60.0975 50.2995C61.616 47.7558 62.6906 44.2612 62.6906 41.2778C62.6906 37.3672 62.3402 35.7744 60.8918 32.3036C60.4362 31.2457 59.7938 30.2829 59.1513 29.3439L57.0255 26.7764C56.7918 26.5506 56.6517 26.4912 56.4064 26.2297C56.1611 25.9801 56.056 25.8969 55.7873 25.6829C53.568 23.8524 50.8347 22.3666 48.0079 21.7723C43.0904 20.7263 38.64 21.3325 34.3999 23.8049C33.4888 24.3397 32.6011 24.946 31.7951 25.6354C31.176 26.1702 30.4285 26.8002 29.8912 27.4183C29.7393 27.5966 29.7276 27.656 29.5641 27.8343C29.1553 28.286 28.5245 29.023 28.2559 29.546Z" fill="url(#paint2_linear_141_2232)"/>
<path fill-rule="evenodd" clip-rule="evenodd" d="M35.2285 36.2146C35.7775 36.5118 36.8755 37.3914 37.2142 37.4864C37.5647 36.1671 39.784 35.965 39.784 37.2249C39.784 38.0808 39.3051 38.2828 38.5575 38.8415C37.1675 39.8875 35.3103 41.0405 35.3103 43.3108L35.392 44.749L42.6925 44.749L42.6925 42.4668L38.2889 42.4668C38.4057 41.0999 42.529 40.3629 42.529 37.4032C42.529 36.3454 42.4005 35.442 41.466 34.6813C39.0831 32.7557 35.614 34.503 35.2285 36.2146Z" fill="url(#paint3_linear_141_2232)"/>
<path fill-rule="evenodd" clip-rule="evenodd" d="M48.4165 36.7252L48.4165 39.9345L46.4308 39.9345L48.4165 36.7252ZM48.4165 36.5588L48.4399 36.5826C48.4399 36.5707 48.4048 36.5588 48.4165 36.5588ZM43.7676 40.6953L43.7676 42.2048L48.4165 42.2048L48.4165 44.7485L50.9863 44.7485L50.9863 42.2048C52.5748 42.2048 52.2361 42.6446 52.2361 39.9345L50.9863 39.9345L50.9863 34.0151L47.7507 34.0151C47.6923 34.2648 47.4587 34.5976 47.3068 34.8353C47.1083 35.1325 46.9915 35.3583 46.7929 35.6555C46.4775 36.1547 43.7676 40.303 43.7676 40.6953Z" fill="url(#paint4_linear_141_2232)"/>
</g>
<defs>
<linearGradient id="paint0_linear_141_2232" x1="76.9535" y1="82.0704" x2="0.753895" y2="81.6305" gradientUnits="userSpaceOnUse">
<stop stop-color="#001F68"/>
<stop offset="1" stop-color="#0091FB"/>
</linearGradient>
<linearGradient id="paint1_linear_141_2232" x1="48.5329" y1="61.7939" x2="20.1196" y2="61.6324" gradientUnits="userSpaceOnUse">
<stop stop-color="#001F68"/>
<stop offset="1" stop-color="#0091FB"/>
</linearGradient>
<linearGradient id="paint2_linear_141_2232" x1="60.1832" y1="57.5738" x2="28.1572" y2="57.3981" gradientUnits="userSpaceOnUse">
<stop stop-color="#001F68"/>
<stop offset="1" stop-color="#0091FB"/>
</linearGradient>
<linearGradient id="paint3_linear_141_2232" x1="42.149" y1="44.749" x2="35.207" y2="44.7215" gradientUnits="userSpaceOnUse">
<stop stop-color="#001F68"/>
<stop offset="1" stop-color="#0091FB"/>
</linearGradient>
<linearGradient id="paint4_linear_141_2232" x1="51.6475" y1="44.7485" x2="43.7432" y2="44.7123" gradientUnits="userSpaceOnUse">
<stop stop-color="#001F68"/>
<stop offset="1" stop-color="#0091FB"/>
</linearGradient>
<clipPath id="clip0_141_2232">
<rect width="42.4828" height="40.5287" fill="white" transform="translate(20.207 21.2769)"/>
</clipPath>
</defs>
</svg>
