<svg width="83" height="83" viewBox="0 0 83 83" fill="none" xmlns="http://www.w3.org/2000/svg">
<path opacity="0.05" d="M81.3739 41.0353C81.3739 63.2282 63.414 81.2166 41.2624 81.2166C19.1108 81.2166 1.15084 63.2282 1.15084 41.0353C1.15084 18.8424 19.1108 0.853971 41.2624 0.853972C63.414 0.853973 81.3739 18.8424 81.3739 41.0353Z" stroke="url(#paint0_linear_141_2197)" stroke-width="1.70794"/>
<g clip-path="url(#clip0_141_2197)">
<path fill-rule="evenodd" clip-rule="evenodd" d="M49.2523 46.3546L49.2523 49.92L45.7256 49.92C44.9775 49.92 44.2695 50.6492 44.2695 51.8107C44.2695 52.459 45.0711 53.2828 45.7256 53.2828L49.2523 53.2828L49.2523 56.8482C49.2523 57.6045 49.9737 58.3067 51.1092 58.3067C51.7638 58.3067 52.5653 57.4964 52.5653 56.8482L52.5653 53.2828L56.092 53.2828C56.8401 53.2828 57.5481 52.5535 57.5481 51.392C57.5481 50.7438 56.7332 49.92 56.092 49.92L52.5653 49.92L52.5653 46.3546C52.5653 45.5983 51.8439 44.896 50.6951 44.896C50.0539 44.896 49.2523 45.7063 49.2523 46.3546Z" fill="url(#paint1_linear_141_2197)"/>
<path fill-rule="evenodd" clip-rule="evenodd" d="M31.7125 39.9939C30.7106 40.3721 29.495 40.8988 28.6133 41.4795C25.3003 43.6403 23.2698 46.1793 21.8003 49.8663C21.0389 51.757 20.5312 54.2825 20.5312 56.3218C20.5312 56.9701 20.9053 57.8749 21.3461 58.3476C21.9339 58.9823 22.5083 59.0904 23.3099 59.374C24.953 59.9817 26.6095 60.6435 28.306 61.0757C30.5369 61.6429 32.7812 62.1831 35.0655 62.4802C37.39 62.7773 39.7544 62.8178 42.0922 62.8178C43.1609 62.8178 44.2163 62.7368 45.2716 62.6153C46.0063 62.5207 46.7277 62.4127 47.4758 62.3992L47.6762 62.3992L47.8766 62.4262C48.2372 62.4937 48.5846 62.5882 48.9319 62.6423C49.6933 62.7638 50.4548 62.8178 51.2162 62.8178C53.4605 62.8178 55.3842 62.0075 57.2143 60.765C59.886 58.9688 61.9967 55.4034 61.9967 52.1217C61.9967 49.6637 61.7162 48.2186 60.5406 46.0578C58.7773 42.803 55.5044 40.7637 51.8708 40.3991C51.3231 40.3451 50.8021 40.237 50.2678 40.0749L47.3422 39.1026L49.2124 36.6311C49.9071 35.7262 50.3746 34.6998 50.7086 33.6059C52.3116 28.5414 49.5998 22.9367 44.7506 20.938C43.6819 20.5058 42.5331 20.2627 41.3709 20.2627C39.5808 20.2627 38.2449 20.4248 36.6285 21.2486C35.8804 21.6402 35.0789 22.0454 34.4377 22.6126L33.1686 23.8956C31.7927 25.3812 30.7907 28.0823 30.7907 30.1216C30.7907 32.0798 30.9644 33.5654 31.8728 35.3211C32.1133 35.7803 32.3804 36.2124 32.6743 36.6176L34.411 38.954L31.7125 39.9939ZM39.9415 38.4543C39.701 38.4273 39.4739 38.3733 39.2468 38.3193C38.7392 38.2112 38.2182 38.0356 37.7373 37.8196C36.0274 37.0633 34.6247 35.6452 33.8098 33.9435C33.3823 33.0387 33.0751 31.6341 33.0751 30.6348C33.0751 29.0276 33.556 27.434 34.451 26.097C35.2258 24.9085 36.348 23.9361 37.6304 23.3419C39.6476 22.437 42.0388 22.329 44.0693 23.2474C48.6781 25.3272 50.2143 30.8914 47.3823 35.105C46.2735 36.7526 44.5235 37.9411 42.5865 38.3598C41.8251 38.5218 41.5178 38.4003 40.8499 38.4003C40.7564 38.4003 40.6762 38.4003 40.5827 38.4273L40.2621 38.4813L39.9415 38.4543ZM39.1266 40.8718L45.2182 40.9123L42.3327 44.4777C42.0121 44.8558 41.7315 45.261 41.4777 45.6796C40.5025 47.2462 39.8212 49.3126 39.8212 51.1763C39.8212 53.2021 39.9949 54.5256 40.8365 56.3758C40.9434 56.6189 41.077 56.862 41.2106 57.0916L43.0941 60.3869L39.3403 60.4004C39.0732 60.4004 38.8193 60.4139 38.5655 60.4139C37.4835 60.4139 36.3881 60.2518 35.3194 60.1033C34.2507 59.9547 33.1953 59.7792 32.14 59.5631C29.8423 59.1039 27.6782 58.3746 25.4606 57.6453C25.0999 57.5238 24.7392 57.3752 24.3786 57.2402L22.8156 56.6324L22.9893 54.9578C23.3767 51.1628 25.2068 47.0977 28.1724 44.6802C29.869 43.2892 31.6991 42.4249 33.7965 41.8036C34.9052 41.4795 36.0407 41.2364 37.1896 41.0608C37.7907 40.9798 38.3785 40.9663 38.9796 40.8853L39.1266 40.8718ZM42.4396 49.2855C43.4548 45.4771 46.701 42.9381 50.5884 42.776C54.5693 42.6004 57.909 44.9774 59.2181 48.7723C59.4986 49.5692 59.7257 50.7441 59.7257 51.6085C59.7257 52.2162 59.6055 52.878 59.4719 53.4722C58.9242 56.0787 57.1609 58.2125 54.8498 59.4685C53.3002 60.3194 52.0044 60.4004 50.2811 60.4004C47.8098 60.4004 45.4853 58.9958 43.9892 57.0511C42.2926 54.8227 41.7182 52.0001 42.4396 49.2855Z" fill="url(#paint2_linear_141_2197)"/>
</g>
<defs>
<linearGradient id="paint0_linear_141_2197" x1="76.2621" y1="82.0704" x2="0.0624887" y2="81.6304" gradientUnits="userSpaceOnUse">
<stop stop-color="#001F68"/>
<stop offset="1" stop-color="#0091FB"/>
</linearGradient>
<linearGradient id="paint1_linear_141_2197" x1="56.5812" y1="58.3067" x2="44.2315" y2="58.236" gradientUnits="userSpaceOnUse">
<stop stop-color="#001F68"/>
<stop offset="1" stop-color="#0091FB"/>
</linearGradient>
<linearGradient id="paint2_linear_141_2197" x1="58.9774" y1="62.8177" x2="20.4126" y2="62.6004" gradientUnits="userSpaceOnUse">
<stop stop-color="#001F68"/>
<stop offset="1" stop-color="#0091FB"/>
</linearGradient>
<clipPath id="clip0_141_2197">
<rect width="41.4713" height="42.5551" fill="white" transform="translate(20.5273 20.2637)"/>
</clipPath>
</defs>
</svg>
