<svg width="83" height="83" viewBox="0 0 83 83" fill="none" xmlns="http://www.w3.org/2000/svg">
<path opacity="0.05" d="M81.1767 41.0353C81.1767 63.2282 63.2168 81.2166 41.0651 81.2166C18.9135 81.2166 0.953577 63.2282 0.953578 41.0353C0.953579 18.8424 18.9135 0.853971 41.0651 0.853972C63.2168 0.853973 81.1767 18.8424 81.1767 41.0353Z" stroke="url(#paint0_linear_141_2172)" stroke-width="1.70794"/>
<g clip-path="url(#clip0_141_2172)">
<path fill-rule="evenodd" clip-rule="evenodd" d="M63.1757 53.2817L63.1757 46.2154C63.1757 44.89 65.0168 44.89 65.0168 46.2154L65.0168 53.2817C65.0168 54.6088 63.1757 54.6088 63.1757 53.2817ZM17.1163 53.2817L17.1163 46.2154C17.1163 44.89 18.9574 44.89 18.9574 46.2154L18.9574 53.2817C18.9574 54.6088 17.1163 54.6088 17.1163 53.2817ZM20.8003 50.7752C20.8003 44.2723 24.1054 37.8611 29.4574 34.2685C32.8791 31.9725 36.8477 30.5996 41.0665 30.5996L44.2448 30.8728C48.7448 31.5822 52.4237 33.6135 55.6037 36.7258C59.1797 40.225 61.8882 46.8094 61.2128 51.6814C60.7225 55.2163 57.7105 57.957 53.6168 57.957L28.5163 57.957C26.2123 57.957 24.6591 57.251 23.1043 55.9036C21.7929 54.7683 20.8003 52.496 20.8003 50.7752ZM63.1757 26.0398C63.1757 24.8875 65.0168 24.8875 65.0168 26.0398C65.0168 27.192 63.1757 27.192 63.1757 26.0398ZM17.1163 26.0398C17.1163 24.8875 18.9574 24.8875 18.9574 26.0398C18.9574 27.192 17.1163 27.192 17.1163 26.0398ZM15.2734 25.8124C15.2734 26.7203 15.2992 27.0614 15.9112 27.8029C16.5626 28.5937 17.1163 28.4003 17.1163 28.889L17.1163 43.2524C17.1163 43.7989 15.2734 43.9906 15.2734 45.8726L15.2734 53.6245C15.2734 55.0194 16.4837 56.1327 18.2666 56.1327C19.1409 56.1327 19.6826 55.5795 20.2243 55.2197C21.3831 57.3885 24.3711 59.7795 27.7088 59.7795L54.4242 59.7795C57.7654 59.7795 60.7482 57.3902 61.9088 55.2197C62.9545 55.9138 62.8431 56.1327 64.3259 56.1327C65.5928 56.1327 66.8596 54.8786 66.8596 53.6245L66.8596 45.8726C66.8596 44.0059 65.0168 43.7836 65.0168 43.2524L65.0168 28.889C65.0168 28.1983 66.8596 28.5106 66.8596 25.8124C66.8596 24.4174 65.6494 23.3042 63.8648 23.3042C61.4597 23.3042 60.2374 26.8255 62.5825 28.3358C62.8705 28.5208 63.1757 28.5377 63.1757 28.889L63.1757 43.2524C63.1757 43.5884 62.6939 43.7581 62.1385 44.05C61.6859 42.1256 60.3317 39.7413 59.2379 38.1445C57.5785 35.7195 54.8322 33.2588 52.302 31.7875C51.3094 31.2088 50.4231 30.771 49.2917 30.3213C42.8785 27.7724 35.8551 28.3748 29.9031 31.7451C25.6071 34.1786 21.1089 39.312 19.9946 44.05C19.4391 43.7581 18.9574 43.5884 18.9574 43.2524L18.9574 28.889C18.9574 28.1983 20.8003 28.5106 20.8003 25.8124C20.8003 24.4174 19.59 23.3042 17.8071 23.3042C16.5403 23.3042 15.2734 24.5583 15.2734 25.8124H15.2734Z" fill="url(#paint1_linear_141_2172)"/>
<path fill-rule="evenodd" clip-rule="evenodd" d="M28.169 46.1019C28.169 45.5572 28.4073 44.6645 28.5925 44.2403C29.3707 42.4567 31.1622 41.542 33.1199 41.542L49.0113 41.542C52.757 41.542 54.8758 44.8953 53.5387 47.9618C53.3758 48.3334 52.8187 49.1327 52.5478 49.3754C51.5621 50.2629 50.405 50.6617 49.0113 50.6617L33.1199 50.6617C30.2039 50.6617 28.169 48.5795 28.169 46.1019ZM26.3262 45.7591L26.3262 46.443C26.3262 49.5502 29.2919 52.4843 32.429 52.4843L49.7021 52.4843C52.8393 52.4843 55.805 49.5502 55.805 46.443L55.805 45.7591C55.805 42.6536 52.8393 39.7178 49.7021 39.7178L32.429 39.7178C29.2919 39.7178 26.3262 42.6536 26.3262 45.7591Z" fill="url(#paint2_linear_141_2172)"/>
<path fill-rule="evenodd" clip-rule="evenodd" d="M31.4633 44.6237L32.7303 45.8779L31.4633 47.1321C31.1942 47.4003 31.201 47.9044 31.6125 48.3134C31.8457 48.5425 32.4235 48.5425 32.6566 48.3134L33.9236 47.0592L35.1906 48.3134C35.4598 48.5799 35.9707 48.5731 36.3822 48.1657C36.6154 47.9349 36.6154 47.363 36.3822 47.1321L35.1152 45.8779L36.3822 44.6237C36.6531 44.3572 36.6445 43.8514 36.233 43.4441C35.9999 43.2133 35.4221 43.2133 35.1906 43.4441L33.9236 44.6984L32.6566 43.4441C32.3857 43.176 31.8765 43.1844 31.4633 43.5918C31.2319 43.8226 31.2319 44.3946 31.4633 44.6237Z" fill="url(#paint3_linear_141_2172)"/>
<path fill-rule="evenodd" clip-rule="evenodd" d="M45.8019 44.5271L47.0689 45.7813L45.8019 47.0355C45.531 47.3037 45.5396 47.8078 45.9511 48.2168C46.1843 48.4459 46.762 48.4459 46.9952 48.2168L48.2605 46.9625L49.5275 48.2168C49.7984 48.4832 50.3076 48.4764 50.7208 48.0691C50.9523 47.8383 50.9523 47.2663 50.7208 47.0355L49.4538 45.7813L50.7208 44.5271C50.99 44.2606 50.9831 43.7548 50.5716 43.3475C50.3385 43.1167 49.7607 43.1167 49.5275 43.3475L48.2605 44.6017L46.9952 43.3475C46.7243 43.0793 46.2134 43.0861 45.8019 43.4952C45.5688 43.726 45.5688 44.2979 45.8019 44.5271Z" fill="url(#paint4_linear_141_2172)"/>
</g>
<defs>
<linearGradient id="paint0_linear_141_2172" x1="76.0648" y1="82.0704" x2="-0.134777" y2="81.6304" gradientUnits="userSpaceOnUse">
<stop stop-color="#001F68"/>
<stop offset="1" stop-color="#0091FB"/>
</linearGradient>
<linearGradient id="paint1_linear_141_2172" x1="63.1034" y1="59.7794" x2="15.1275" y2="59.387" gradientUnits="userSpaceOnUse">
<stop stop-color="#001F68"/>
<stop offset="1" stop-color="#0091FB"/>
</linearGradient>
<linearGradient id="paint2_linear_141_2172" x1="53.6585" y1="52.4843" x2="26.2458" y2="52.1182" gradientUnits="userSpaceOnUse">
<stop stop-color="#001F68"/>
<stop offset="1" stop-color="#0091FB"/>
</linearGradient>
<linearGradient id="paint3_linear_141_2172" x1="36.1819" y1="48.4956" x2="31.2642" y2="48.4668" gradientUnits="userSpaceOnUse">
<stop stop-color="#001F68"/>
<stop offset="1" stop-color="#0091FB"/>
</linearGradient>
<linearGradient id="paint4_linear_141_2172" x1="50.5198" y1="48.399" x2="45.6021" y2="48.3702" gradientUnits="userSpaceOnUse">
<stop stop-color="#001F68"/>
<stop offset="1" stop-color="#0091FB"/>
</linearGradient>
<clipPath id="clip0_141_2172">
<rect width="51.5862" height="36.4758" fill="white" transform="translate(15.2734 23.3037)"/>
</clipPath>
</defs>
</svg>
