<svg width="83" height="83" viewBox="0 0 83 83" fill="none" xmlns="http://www.w3.org/2000/svg">
<path opacity="0.05" d="M81.8661 41.0353C81.8661 63.2282 63.9062 81.2166 41.7546 81.2166C19.603 81.2166 1.64303 63.2282 1.64303 41.0353C1.64303 18.8424 19.603 0.853971 41.7546 0.853972C63.9062 0.853973 81.8661 18.8424 81.8661 41.0353Z" stroke="url(#paint0_linear_141_2184)" stroke-width="1.70794"/>
<g clip-path="url(#clip0_141_2184)">
<path fill-rule="evenodd" clip-rule="evenodd" d="M45.0491 61.0723C45.8665 60.6977 46.6709 61.4599 46.379 62.3126C46.3271 62.4611 45.594 63.6368 45.1464 63.8047C44.3549 64.1018 43.5894 63.4624 43.8359 62.6032C43.9592 62.1769 44.7442 61.2144 45.0491 61.0723ZM50.0963 65.8588L49.3826 65.8588C48.4355 65.7038 47.5662 64.9997 46.6255 64.5023C46.2492 65.0578 45.2891 65.5488 44.2446 65.3227C43.5375 65.1677 42.5968 64.5282 42.532 63.8241C40.3198 64.3344 39.8073 63.5915 39.0288 61.9831C37.9649 61.9831 37.9843 61.9508 37.2642 61.5956C36.9009 61.04 36.5052 61.0207 36.2911 59.9549C33.6443 60.0582 33.0344 57.7845 33.6832 56.4667C33.8908 56.0533 34.4487 55.4655 34.5136 55.1361C33.7805 54.7873 33.0669 56.1567 31.0234 54.9229C30.1151 54.3803 28.7333 53.9346 28.9604 52.52C29.0512 51.9451 31.7759 47.5591 32.2754 46.7194C32.8204 45.7827 35.2531 41.5324 35.7656 41.0867C36.7582 40.2276 37.9649 41.1577 38.9639 41.7779C40.0019 42.4173 40.5209 43.1796 40.469 44.8267C41.6497 45.266 41.6173 45.6212 43.3559 44.9559C44.2901 44.6006 45.2567 44.1226 46.4114 44.3552C48.3966 44.7621 47.2872 45.337 49.1102 44.8719C50.1611 44.6006 51.1472 44.2195 52.2955 44.3746C53.5281 44.7492 54.7023 45.5437 56.0582 45.1885C55.8765 44.1033 55.9673 43.4121 56.4928 42.6176C57.0313 41.8037 57.8357 41.7649 58.2833 41.2288C58.7634 41.0156 59.0229 40.712 59.7689 40.7379C60.8848 40.7766 61.1572 41.6616 61.7541 42.6563L66.8272 51.1764C67.2424 51.8611 68.0144 52.8817 67.1062 53.8636C66.8078 54.1865 65.1664 55.1232 64.6734 55.3169C64.0441 55.5624 63.6549 55.5172 62.9997 55.3622C62.4547 55.2265 62.4028 55.4138 61.7216 55.7756C62.1823 56.6411 62.6948 57.5842 61.819 58.7857C60.8004 60.1939 59.6522 59.7675 58.8931 59.7481C58.7634 61.3566 56.7847 62.2221 55.8765 61.7893C55.8052 62.6614 55.2537 63.3978 54.618 63.7272C53.2945 64.4184 52.9183 63.8951 52.0814 63.8241C52.0684 64.4313 51.6532 65.0126 51.3029 65.2839C50.8812 65.6198 50.479 65.7942 50.0963 65.8588ZM43.2196 57.778C43.8943 57.5132 44.4522 57.9395 44.5366 58.5273C44.6533 59.367 42.0908 62.3513 41.9027 62.4288C41.215 62.7195 40.6052 62.2157 40.5339 61.6602C40.4625 61.0723 40.9815 60.5943 41.2475 60.2132C41.6432 59.6448 42.6552 58.0041 43.2196 57.778ZM40.5533 55.7174C41.2085 55.5753 41.7275 56.0404 41.747 56.6541C41.7535 57.1644 41.215 57.7522 40.9685 58.0945C40.5987 58.6177 39.4959 60.3424 38.9769 60.4781C38.3087 60.646 37.7378 60.1809 37.7248 59.5544C37.7183 59.0441 38.2633 58.4562 38.5228 58.0816C38.8666 57.5842 39.9824 55.8466 40.5533 55.7174ZM36.5701 55.2459C37.5042 54.9035 38.166 55.9435 37.6794 56.7509C37.4524 57.1321 36.622 58.3012 36.2457 58.4433C35.344 58.7728 34.546 57.8168 35.1169 56.9254C35.3959 56.4926 36.103 55.4138 36.5701 55.2459ZM56.4604 54.3286C57.2583 54.6193 58.7374 55.6141 59.5549 56.0921C60.0868 56.4021 60.6837 56.5959 60.755 57.2354C60.8329 57.9589 60.3204 58.4498 59.6197 58.34C59.2045 58.2754 55.9608 56.2729 55.1629 55.8079C54.7931 55.5882 53.9368 55.1555 53.7162 54.8648C53.3399 54.8131 53.1194 54.5289 52.7755 54.3932C52.302 54.2059 51.8997 54.3545 51.757 54.6839C51.4197 55.472 52.2371 55.8014 52.9831 56.2277L57.1286 58.7017C57.6476 59.212 57.5113 61.1886 55.3964 59.9355L51.3808 57.4873C51.0694 57.4421 51.1602 57.3775 50.8488 57.3C50.5439 57.2289 50.5179 57.2935 50.252 57.2935C49.986 57.7005 49.6811 58.1139 50.239 58.579L53.593 60.575C55.0267 61.4018 54.2352 62.5322 53.4373 62.5709C52.8923 62.5968 51.5624 61.6666 51.1083 61.4018C50.6152 61.1176 49.3178 60.1163 48.7274 60.4845C48.3512 60.7171 48.3122 61.279 48.6431 61.6149C48.8247 61.7958 49.454 62.1252 49.7265 62.2867C51.4716 63.2944 50.3752 64.2375 49.973 64.3473C49.2334 64.554 48.2149 63.5915 47.5532 63.359C47.7543 62.6355 48.0268 62.4353 47.8711 61.5116C47.7608 60.8527 47.378 60.4716 47.1575 60.0711C46.7358 59.9549 46.5606 59.69 45.8924 59.5673C46.3076 57.4098 45.2567 56.3246 43.2196 56.2342C42.9018 55.6141 42.785 54.8002 41.5978 54.3803C40.3522 53.9346 39.6775 54.516 39.0288 54.8971C38.5228 54.4966 38.4384 54.0444 37.5042 53.8054C36.2781 53.4954 35.2402 54.4578 35.3894 53.7021L38.7109 48.0888C39.0742 47.4622 39.5153 46.8098 39.8202 46.1703C40.5598 46.3253 41.3578 47.2103 43.3624 46.5191C44.7896 46.0217 45.1139 45.5244 46.7617 45.9765C46.5931 46.4481 46.3206 46.5773 46.126 47.2297C45.8795 48.0436 45.8276 51.5704 46.1909 52.2293C46.8266 53.3597 49.2269 53.5793 50.6217 50.8276L56.4604 54.3286ZM59.1526 49.1869C59.0488 49.329 58.9969 49.3548 58.8931 49.5228C58.8153 50.285 59.6781 51.3766 60.0479 52.0097C60.4501 52.6879 61.034 53.5406 61.3584 54.2253C61.3389 54.2382 61.3129 54.264 61.3 54.277C60.2425 55.22 60.2425 54.7873 58.2963 53.6569C57.7643 53.3468 55.4613 52.0872 55.2278 51.7513C54.7866 51.7061 53.4502 50.7888 53.0415 50.5498C52.289 50.1106 50.3882 48.7864 49.8108 48.9543C49.3178 49.1029 49.3697 49.5292 49.2788 50.0783C49.1491 50.8341 48.3576 51.7061 47.4429 51.48C47.3456 46.8615 47.1834 46.8679 50.1611 46.1122C51.9387 45.66 51.8024 45.6923 53.3983 46.3189C54.7218 46.8292 55.3316 46.9519 56.7393 46.5062C57.2583 47.0746 57.0637 47.6237 58.186 47.5462C59.5419 46.067 55.7597 44.6394 58.2509 43.0116C58.5947 42.7855 59.3278 42.3204 59.6781 42.2106C60.0219 42.4949 62.4547 46.7258 62.9153 47.5074C63.4668 48.444 63.9793 49.2902 64.5047 50.1881C64.8226 50.7242 65.9384 52.4102 66.0163 52.9011C65.4649 53.1207 64.4723 53.9281 63.8625 53.9734C62.7402 54.0573 62.4742 53.1982 62.0655 52.52C61.6373 51.8094 61.2935 51.241 60.8653 50.5175C60.4566 49.8199 60.1582 48.7993 59.1526 49.1869ZM30.446 52.8688C30.4849 52.2616 35.9019 43.6511 36.6544 42.1977C37.0631 42.3011 38.2827 43.0375 38.5812 43.3217C39.2494 43.9676 39.0223 44.6782 38.6136 45.3758C37.8611 46.6548 37.141 47.8498 36.4079 49.09C35.6748 50.3302 34.9547 51.5898 34.1957 52.8107C33.8064 53.4372 33.4172 54.1994 32.3208 53.9346C32.0289 53.8636 30.7184 53.0755 30.446 52.8688Z" fill="url(#paint1_linear_141_2184)"/>
<path fill-rule="evenodd" clip-rule="evenodd" d="M50.6598 18.7758C50.9777 18.9115 56.2778 24.1954 56.4141 24.5054C54.7468 24.5312 52.3465 24.8413 51.3345 23.8336C50.3224 22.8259 50.6338 20.4359 50.6598 18.7758ZM27.2144 16.2114L45.8461 16.2114L49.4661 16.2114C50.2121 16.3406 50.783 16.7153 51.7626 17.6906L57.3612 23.2652C57.9775 23.8788 58.6782 24.4279 58.9247 25.3968C59.1193 26.1784 58.9896 34.382 58.9896 36.378C58.9896 38.3158 59.2815 39.2008 58.25 39.3881C57.6921 39.0845 57.5364 39.1814 57.5234 38.3287C57.4521 34.3174 57.6402 29.9701 57.5169 25.9717L52.1843 25.9071C51.2696 25.5518 50.9712 25.5196 50.3354 24.9253C48.4735 23.1748 49.4077 20.339 49.1677 17.6842C45.9045 17.5873 42.5051 17.6713 39.2225 17.6713C35.914 17.6713 32.5989 17.6713 29.2903 17.6713C27.4609 17.6713 26.1829 17.3806 25.1968 18.5368C24.3924 19.4735 24.6908 21.6568 24.6908 23.0003L24.6908 57.423C24.6908 58.5986 24.574 60.2199 26.384 60.7044C27.0392 60.8788 32.281 60.7884 33.6693 60.7819C34.7592 60.7819 35.1549 60.601 35.3625 61.5958C35.2003 62.2547 34.837 62.2805 34.065 62.274L28.5118 62.274C27.0327 62.274 26.2737 62.3709 25.2292 61.8542C22.4007 60.4525 23.1533 56.3507 23.1533 52.7657L23.1533 23.1941C23.1533 20.4295 22.9003 18.4658 24.4767 17.1351C25.4174 16.3406 26.0921 16.2179 27.2144 16.2114V16.2114Z" fill="url(#paint2_linear_141_2184)"/>
<path fill-rule="evenodd" clip-rule="evenodd" d="M52.2947 31.0356C53.2873 31.0356 53.8906 31.1002 53.722 29.9504C53.4106 29.3949 51.8925 29.5758 51.0102 29.5758C43.8157 29.5758 36.0503 29.4659 28.9986 29.5822C28.1682 29.931 28.1747 31.0291 29.4786 31.0421L52.2947 31.0356Z" fill="url(#paint3_linear_141_2184)"/>
<path fill-rule="evenodd" clip-rule="evenodd" d="M28.9992 35.5119C36.7841 35.5958 44.7052 35.4343 52.4706 35.5248C53.275 35.5312 53.2166 35.5635 53.7226 35.1437C53.8978 33.9874 53.288 34.0585 52.2954 34.0585L29.5766 34.0585C28.2077 34.0585 28.1234 35.1307 28.9992 35.5119Z" fill="url(#paint4_linear_141_2184)"/>
<path fill-rule="evenodd" clip-rule="evenodd" d="M29.3887 25.9647L40.8778 25.9647C42.1688 25.9647 42.2791 24.5049 40.7805 24.5049L29.486 24.5049C28.0393 24.5049 28.0912 25.9647 29.3887 25.9647Z" fill="url(#paint5_linear_141_2184)"/>
</g>
<defs>
<linearGradient id="paint0_linear_141_2184" x1="76.7542" y1="82.0704" x2="0.554676" y2="81.6304" gradientUnits="userSpaceOnUse">
<stop stop-color="#001F68"/>
<stop offset="1" stop-color="#0091FB"/>
</linearGradient>
<linearGradient id="paint1_linear_141_2184" x1="64.7197" y1="65.8588" x2="28.8268" y2="65.5399" gradientUnits="userSpaceOnUse">
<stop stop-color="#001F68"/>
<stop offset="1" stop-color="#0091FB"/>
</linearGradient>
<linearGradient id="paint2_linear_141_2184" x1="56.4128" y1="62.2811" x2="22.9592" y2="62.1301" gradientUnits="userSpaceOnUse">
<stop stop-color="#001F68"/>
<stop offset="1" stop-color="#0091FB"/>
</linearGradient>
<linearGradient id="paint3_linear_141_2184" x1="51.9063" y1="31.0421" x2="28.5731" y2="28.7839" gradientUnits="userSpaceOnUse">
<stop stop-color="#001F68"/>
<stop offset="1" stop-color="#0091FB"/>
</linearGradient>
<linearGradient id="paint4_linear_141_2184" x1="51.9085" y1="35.5369" x2="28.5832" y2="33.2275" gradientUnits="userSpaceOnUse">
<stop stop-color="#001F68"/>
<stop offset="1" stop-color="#0091FB"/>
</linearGradient>
<linearGradient id="paint5_linear_141_2184" x1="40.8947" y1="25.9647" x2="28.4048" y2="25.2984" gradientUnits="userSpaceOnUse">
<stop stop-color="#001F68"/>
<stop offset="1" stop-color="#0091FB"/>
</linearGradient>
<clipPath id="clip0_141_2184">
<rect width="44.5057" height="49.6476" fill="white" transform="translate(23.043 16.2114)"/>
</clipPath>
</defs>
</svg>
