<svg width="83" height="83" viewBox="0 0 83 83" fill="none" xmlns="http://www.w3.org/2000/svg">
<path opacity="0.05" d="M81.2138 41.0353C81.2138 63.2282 63.2539 81.2166 41.1022 81.2166C18.9506 81.2166 0.990686 63.2282 0.990687 41.0353C0.990688 18.8424 18.9506 0.853971 41.1022 0.853972C63.2539 0.853973 81.2138 18.8424 81.2138 41.0353Z" stroke="url(#paint0_linear_141_2157)" stroke-width="1.70794"/>
<g clip-path="url(#clip0_141_2157)">
<path fill-rule="evenodd" clip-rule="evenodd" d="M25.882 55.2302C25.8565 55.0685 25.9721 54.6541 26.1958 54.4165C26.936 53.6284 28.0553 54.1947 28.1162 55.0941C28.2085 56.4695 26.1155 56.7439 25.882 55.2302ZM25.882 41.6175C25.8723 41.5574 25.9428 41.2558 25.9683 41.1776C26.0982 40.77 26.4923 40.4632 26.9473 40.4324C28.3721 40.3361 28.5463 42.5523 27.0689 42.6523C26.4466 42.6944 25.9691 42.1845 25.882 41.6175ZM25.882 28.0049C25.8723 27.9447 25.9428 27.6432 25.9683 27.565C26.0374 27.3491 26.0412 27.3559 26.1958 27.1912C26.936 26.4031 28.0553 26.9694 28.1162 27.8688C28.1582 28.4989 27.6297 29.002 27.0689 29.0396C26.4466 29.0817 25.9691 28.5719 25.882 28.0049ZM21.377 25.5233L21.377 30.3361C21.377 31.1023 22.5743 31.5002 23.4039 31.916C23.8048 32.116 24.2049 32.3168 24.605 32.5176C24.9166 32.6733 25.56 33.044 25.882 33.1192L25.882 36.3528C25.5637 36.4272 24.9834 36.7656 24.6553 36.9296L22.2523 38.1328C21.8582 38.326 21.377 38.5885 21.377 39.1359L21.377 43.9487C21.377 44.7143 22.5743 45.1128 23.4039 45.5279L25.882 46.7319L25.882 49.9654C25.5637 50.0399 24.9834 50.3775 24.6553 50.5422C24.2252 50.7573 23.8844 50.928 23.4542 51.1438C22.6029 51.5702 21.377 51.98 21.377 52.7478L21.377 57.5614C21.377 58.366 22.9272 58.9022 23.9046 59.3917C27.6244 61.2544 26.391 61.2544 30.1108 59.3917C31.0882 58.9022 32.6385 58.366 32.6385 57.5614L32.6385 52.7478C32.6385 51.9823 31.4411 51.5845 30.6115 51.1686C30.2114 50.9679 29.8105 50.7678 29.4104 50.567C29.0988 50.4114 28.4562 50.0406 28.1342 49.9654L28.1342 46.7319C28.4592 46.6559 31.2136 45.2226 31.7631 44.9519C32.1573 44.7579 32.6385 44.4954 32.6385 43.9487L32.6385 39.1359C32.6385 38.3696 31.4411 37.9718 30.6115 37.556L28.1342 36.3528L28.1342 33.1192C28.4525 33.0448 29.0328 32.7064 29.3601 32.5424C29.791 32.3266 30.1311 32.1559 30.5612 31.9408C30.9922 31.725 31.3315 31.552 31.7631 31.3392C32.1573 31.1452 32.6385 30.8835 32.6385 30.3361L32.6385 25.5233C32.6385 24.7186 31.0882 24.1825 30.1108 23.6929C26.391 21.8302 27.6244 21.8302 23.9046 23.6929C22.9272 24.1825 21.377 24.7186 21.377 25.5233V25.5233Z" fill="url(#paint1_linear_141_2157)"/>
<path fill-rule="evenodd" clip-rule="evenodd" d="M34.8926 25.523C34.8926 26.2532 35.2582 26.8014 35.8685 26.8014L58.8427 26.8014C60.1385 26.8014 60.1385 24.5454 58.8427 24.5454L35.8685 24.5454C35.4083 24.5454 34.8926 25.062 34.8926 25.523Z" fill="url(#paint2_linear_141_2157)"/>
<path fill-rule="evenodd" clip-rule="evenodd" d="M34.8926 39.1356C34.8926 39.8658 35.2582 40.414 35.8685 40.414L58.8427 40.414C60.1385 40.414 60.1385 38.1572 58.8427 38.1572L35.8685 38.1572C35.4083 38.1572 34.8926 38.6738 34.8926 39.1356Z" fill="url(#paint3_linear_141_2157)"/>
<path fill-rule="evenodd" clip-rule="evenodd" d="M34.8926 52.7476C34.8926 53.4778 35.2582 54.026 35.8685 54.026L58.8427 54.026C60.1385 54.026 60.1385 51.77 58.8427 51.77L35.8685 51.77C35.4083 51.77 34.8926 52.2866 34.8926 52.7476Z" fill="url(#paint4_linear_141_2157)"/>
<path fill-rule="evenodd" clip-rule="evenodd" d="M34.8926 43.648C34.8926 44.3782 35.2582 44.9264 35.8685 44.9264L47.5054 44.9264C48.8019 44.9264 48.8019 42.6704 47.5054 42.6704L35.8685 42.6704C35.4083 42.6704 34.8926 43.187 34.8926 43.648Z" fill="url(#paint5_linear_141_2157)"/>
<path fill-rule="evenodd" clip-rule="evenodd" d="M34.8926 57.2608C34.8926 57.991 35.2582 58.5392 35.8685 58.5392L47.5054 58.5392C48.8019 58.5392 48.8019 56.2832 47.5054 56.2832L35.8685 56.2832C35.4083 56.2832 34.8926 56.7998 34.8926 57.2608Z" fill="url(#paint6_linear_141_2157)"/>
<path fill-rule="evenodd" clip-rule="evenodd" d="M34.8926 30.0352C34.8926 30.7654 35.2582 31.3144 35.8685 31.3144L47.5054 31.3144C48.8019 31.3144 48.8019 29.0576 47.5054 29.0576L35.8685 29.0576C35.4083 29.0576 34.8926 29.5742 34.8926 30.0352Z" fill="url(#paint7_linear_141_2157)"/>
</g>
<defs>
<linearGradient id="paint0_linear_141_2157" x1="76.1019" y1="82.0704" x2="-0.0976675" y2="81.6304" gradientUnits="userSpaceOnUse">
<stop stop-color="#001F68"/>
<stop offset="1" stop-color="#0091FB"/>
</linearGradient>
<linearGradient id="paint1_linear_141_2157" x1="31.8185" y1="60.7887" x2="21.3444" y2="60.7709" gradientUnits="userSpaceOnUse">
<stop stop-color="#001F68"/>
<stop offset="1" stop-color="#0091FB"/>
</linearGradient>
<linearGradient id="paint2_linear_141_2157" x1="57.9998" y1="26.8014" x2="34.9147" y2="25.3265" gradientUnits="userSpaceOnUse">
<stop stop-color="#001F68"/>
<stop offset="1" stop-color="#0091FB"/>
</linearGradient>
<linearGradient id="paint3_linear_141_2157" x1="57.9998" y1="40.414" x2="34.9147" y2="38.9396" gradientUnits="userSpaceOnUse">
<stop stop-color="#001F68"/>
<stop offset="1" stop-color="#0091FB"/>
</linearGradient>
<linearGradient id="paint4_linear_141_2157" x1="57.9998" y1="54.026" x2="34.9147" y2="52.5511" gradientUnits="userSpaceOnUse">
<stop stop-color="#001F68"/>
<stop offset="1" stop-color="#0091FB"/>
</linearGradient>
<linearGradient id="paint5_linear_141_2157" x1="47.4886" y1="44.9264" x2="34.8686" y2="44.4869" gradientUnits="userSpaceOnUse">
<stop stop-color="#001F68"/>
<stop offset="1" stop-color="#0091FB"/>
</linearGradient>
<linearGradient id="paint6_linear_141_2157" x1="47.4886" y1="58.5392" x2="34.8686" y2="58.0997" gradientUnits="userSpaceOnUse">
<stop stop-color="#001F68"/>
<stop offset="1" stop-color="#0091FB"/>
</linearGradient>
<linearGradient id="paint7_linear_141_2157" x1="47.4886" y1="31.3144" x2="34.8686" y2="30.875" gradientUnits="userSpaceOnUse">
<stop stop-color="#001F68"/>
<stop offset="1" stop-color="#0091FB"/>
</linearGradient>
<clipPath id="clip0_141_2157">
<rect width="38.4368" height="38.5023" fill="white" transform="translate(21.377 22.2905)"/>
</clipPath>
</defs>
</svg>
