<svg width="21" height="21" viewBox="0 0 21 21" fill="none" xmlns="http://www.w3.org/2000/svg">
<g clip-path="url(#clip0_789_12507)">
<path fill-rule="evenodd" clip-rule="evenodd" d="M7.37109 3.94198H16.7021C16.6488 3.70333 16.5888 3.51046 16.5295 3.26482C16.2962 2.29274 16.0662 1.45105 14.742 1.82009L7.68423 3.81936C7.61303 3.83798 7.60184 3.83876 7.53102 3.86398L7.37109 3.94198Z" fill="white"/>
<path fill-rule="evenodd" clip-rule="evenodd" d="M3.68555 3.94204C5.309 3.94204 4.63427 3.95019 6.13992 3.55825C6.5209 3.4593 6.88212 3.35685 7.24856 3.24354L12.7817 1.65677C12.4238 0.95284 12.2371 0.105713 11.3309 0.105713C10.9018 0.105713 9.7842 0.767737 9.35774 0.990094L5.58075 2.93542C5.25122 3.10694 4.96902 3.25402 4.63949 3.42515L3.68555 3.94204Z" fill="white"/>
<path fill-rule="evenodd" clip-rule="evenodd" d="M1.35257 4.59509H18.0959C18.6994 4.59509 19.193 5.10927 19.193 5.73714V9.29523C19.1472 9.29096 19.1013 9.28902 19.0558 9.28902H12.2336C11.3583 9.28902 10.5479 10.1327 10.5479 11.0438V13.8192C10.5479 14.8363 11.4552 15.574 12.3905 15.574H19.0167C19.0756 15.574 19.1345 15.5709 19.193 15.5643V18.881C19.193 19.5093 18.6994 20.0231 18.0959 20.0231H1.35257C0.749418 20.0231 0.255859 19.5093 0.255859 18.881V5.73714C0.255859 5.10927 0.749418 4.59509 1.35257 4.59509ZM14.0274 12.5918C14.0356 12.5382 14.0375 12.4664 14.0375 12.4315C14.0375 12.4125 14.0364 12.3799 14.0326 12.3496C13.9685 12.3496 13.8746 12.35 13.7996 12.3589C13.7978 12.4331 13.7967 12.5188 13.8004 12.5867C13.8574 12.5937 13.9238 12.5949 13.9588 12.5949C13.9752 12.5949 14.0024 12.5945 14.0274 12.5918Z" fill="white"/>
<path fill-rule="evenodd" clip-rule="evenodd" d="M13.9574 13.2476C13.0989 13.2476 13.1734 12.8111 13.1734 12.2274C13.1734 11.6818 13.7792 11.697 14.0752 11.697C14.4852 11.697 14.663 12.0055 14.663 12.4315C14.663 12.9737 14.4785 13.2476 13.9574 13.2476ZM11.1738 11.0439V13.8192C11.1738 14.3835 11.7035 14.9213 12.3891 14.9213H19.0152C19.574 14.9213 20.1522 14.4246 20.1522 13.8192V11.0031C20.1522 10.7458 19.946 10.3876 19.81 10.2573C19.6463 10.1001 19.3574 9.94177 19.0544 9.94177H12.2321C11.7035 9.94177 11.1738 10.4932 11.1738 11.0439Z" fill="white"/>
</g>
<defs>
<clipPath id="clip0_789_12507">
<rect width="19.9174" height="19.9174" fill="white" transform="translate(0.246094 0.105713)"/>
</clipPath>
</defs>
</svg>
