<svg width="28" height="28" viewBox="0 0 28 28" fill="none" xmlns="http://www.w3.org/2000/svg">
<path fill-rule="evenodd" clip-rule="evenodd" d="M16.7035 19.454C16.7035 19.0927 17.3668 19.1245 17.3668 19.4285C17.3668 19.7327 16.8331 19.6399 16.7762 19.5853C16.7617 19.5715 16.7035 19.4683 16.7035 19.454ZM16.7035 18.536C16.7035 18.2229 17.3668 18.2078 17.3668 18.536C17.3668 18.8504 16.7035 18.7943 16.7035 18.536ZM16.7035 17.618C16.7035 17.3699 17.0045 17.414 17.1627 17.414C17.4581 17.414 17.4167 17.8475 17.1372 17.8475C16.9609 17.8475 16.7035 17.859 16.7035 17.618ZM16.7035 16.7511C16.7035 16.3999 17.3668 16.4137 17.3668 16.7256C17.3668 17.0298 16.8331 16.937 16.7762 16.8824C16.7617 16.8686 16.7035 16.7653 16.7035 16.7511ZM16.7035 15.8586C16.7035 15.4723 17.3668 15.5653 17.3668 15.7821C17.3668 16.0779 17.2022 16.0371 16.9331 16.0371C16.7772 16.0371 16.7035 15.8792 16.7035 15.8586ZM16.7035 14.9151C16.7035 14.6632 17.0382 14.7111 17.1627 14.7111C17.4581 14.7111 17.4167 15.1446 17.1372 15.1446C16.9609 15.1446 16.7035 15.1561 16.7035 14.9151ZM16.7035 14.0226C16.7035 13.7682 17.0129 13.8186 17.2137 13.8186C17.4109 13.8186 17.4109 14.2266 17.2137 14.2266C17.0129 14.2266 16.7035 14.2774 16.7035 14.0226ZM16.7035 13.1557C16.7035 12.7885 17.3668 12.8214 17.3668 13.1302C17.3668 13.3826 17.1035 13.3342 16.8821 13.3342C16.8155 13.3342 16.7035 13.1988 16.7035 13.1557ZM16.7035 12.2122C16.7035 11.9539 17.3668 11.8978 17.3668 12.2122C17.3668 12.5422 16.7035 12.5228 16.7035 12.2122ZM16.7035 11.3197C16.7035 11.0719 16.993 11.1157 17.1627 11.1157C17.4053 11.1157 17.5349 11.5492 17.0096 11.5492C16.9321 11.5492 16.8497 11.526 16.8043 11.4995C16.7492 11.4669 16.7035 11.3983 16.7035 11.3197ZM16.7035 10.4527C16.7035 10.0935 17.3668 10.1159 17.3668 10.4273C17.3668 10.7172 16.8553 10.6618 16.7678 10.567C16.7538 10.5517 16.7035 10.4617 16.7035 10.4527ZM11.0659 10.1978H14.0505C14.8607 10.1978 14.5475 11.0025 15.286 11.2578C15.4023 11.2978 16.0148 11.3549 16.0148 11.9062V17.8985C16.0148 18.5633 15.3837 18.5001 15.0908 18.6834C14.6033 18.9881 14.8173 19.444 14.285 19.6118C14.0561 19.684 11.3624 19.6325 10.8619 19.6325C10.5785 20.1677 10.3639 20.2049 10.3262 20.3465H16.7035C17.015 20.3465 17.4792 20.3742 17.7724 20.3439C18.1445 20.3051 18.0555 20.0843 18.0555 19.556C18.0953 19.6134 18.1971 19.8875 18.4892 19.8875C18.6994 19.8875 18.9483 19.7044 18.9483 19.505V19.352C18.9483 19.073 18.4588 18.7573 18.1392 19.1551L18.0555 19.2755V17.312C18.1216 17.4072 18.2119 17.655 18.5338 17.631C19.0409 17.593 19.1787 16.7256 18.4381 16.7256C18.1864 16.7256 18.1017 16.9785 18.0555 17.0316V15.0681C18.0787 15.0949 18.0598 15.0702 18.0876 15.1122C18.2297 15.3277 18.2785 15.3741 18.5657 15.3741C18.7397 15.3741 18.9483 15.1681 18.9483 14.9916C18.9483 14.8095 18.9659 14.72 18.8027 14.5762C18.5754 14.3763 18.2667 14.4232 18.0836 14.7392C18.081 14.744 18.0767 14.7512 18.0744 14.7555L18.0555 12.8242C18.1456 12.9277 18.2121 13.1302 18.5147 13.1302C18.7205 13.1302 18.9483 12.943 18.9483 12.7477V12.5947C18.9483 12.381 18.579 12.048 18.2292 12.3093L18.0973 12.458C18.0629 12.509 18.0945 12.4733 18.0555 12.5182V10.5547C18.0591 10.5598 18.0634 10.5621 18.0649 10.5708C18.0792 10.6598 18.2792 10.8862 18.4892 10.8862C18.6966 10.8862 18.9483 10.7037 18.9483 10.5037V10.3508C18.9483 10.0249 18.4027 9.78569 18.1369 10.1516L18.0555 10.2743C18.0555 9.89457 18.1555 9.50928 17.7749 9.50928H11.0659V10.1978Z" fill="white"/>
<path fill-rule="evenodd" clip-rule="evenodd" d="M11.0664 17.8475H12.75C13.0919 17.8475 12.8959 17.1228 13.9847 16.8122C14.0885 16.7826 14.2173 16.7793 14.3013 16.7462C14.3791 16.7153 14.4592 16.6391 14.4592 16.5215V13.3341C14.4592 12.958 13.9867 13.1791 13.4492 12.7882C13.2855 12.6689 13.173 12.5564 13.0663 12.3805C12.9549 12.1966 12.9623 11.9827 12.6735 11.9827H11.0664V17.8475Z" fill="white"/>
<path fill-rule="evenodd" clip-rule="evenodd" d="M11.0666 11.5493H12.6992C12.9972 11.5493 13.2066 11.7003 13.3201 11.8976C13.4482 12.1197 13.4301 12.2523 13.7495 12.463C14.0385 12.6534 14.2852 12.6246 14.4823 12.6993C14.6765 12.7728 14.893 13.0158 14.893 13.2833V16.5217C14.893 17.2606 14.0915 17.1747 13.8061 17.3476C13.5637 17.4947 13.4719 17.5995 13.3592 17.8698C13.2816 18.0565 13.0645 18.2811 12.8013 18.2811H11.0666V18.7401C11.0666 18.9354 11.0289 19.0385 11.0156 19.1991C11.9926 19.1991 12.973 19.1909 13.9494 19.1994C14.0887 19.2006 14.1739 19.2198 14.2464 19.1392C14.3586 19.0145 14.2836 18.8462 14.6693 18.4655C14.7897 18.3467 14.9609 18.2424 15.1257 18.1822C15.3132 18.1136 15.5818 18.1483 15.5818 17.8986V11.9573C15.5818 11.7107 15.329 11.7357 15.1512 11.6738C14.9961 11.6197 14.8178 11.5169 14.6961 11.4147C14.5765 11.3142 14.4553 11.1497 14.3841 11.0126C14.2895 10.8295 14.3089 10.6313 14.0257 10.6313H11.0666V11.5493Z" fill="white"/>
<path fill-rule="evenodd" clip-rule="evenodd" d="M9.15239 19.6325C8.86031 19.6325 8.59296 19.5991 8.39731 19.3673C7.61722 18.442 8.87281 17.3253 9.66922 18.1214C10.0195 18.4715 10.0302 18.9999 9.70774 19.3462C9.59269 19.4698 9.3779 19.6325 9.15239 19.6325ZM7.46875 18.638V18.842C7.46875 19.579 8.18634 20.321 8.92281 20.321C9.48479 20.321 9.76897 20.2486 10.1922 19.8304C10.8766 19.1536 10.7235 18.0052 9.96947 17.4643C9.91284 17.4238 9.77866 17.3419 9.71386 17.3118C9.12255 17.0362 8.40139 17.1622 7.9593 17.5984C7.7315 17.8233 7.46875 18.1984 7.46875 18.638Z" fill="white"/>
<path fill-rule="evenodd" clip-rule="evenodd" d="M19.4062 14.8389V14.992C19.4062 15.3149 19.733 15.6042 20.0695 15.6042C20.3981 15.6042 20.5009 15.6004 20.5287 15.383V14.4563C20.5287 14.1334 19.9677 14.2354 19.8417 14.2795C19.6509 14.3469 19.4062 14.581 19.4062 14.8389Z" fill="white"/>
<path fill-rule="evenodd" clip-rule="evenodd" d="M19.4062 10.3511C19.4062 10.5947 19.4284 10.7993 19.6603 10.9643C19.9141 11.1447 20.5287 11.2225 20.5287 10.8868V9.91743C20.5287 9.59984 19.4062 9.65928 19.4062 10.3511Z" fill="white"/>
<path fill-rule="evenodd" clip-rule="evenodd" d="M19.4062 19.3524C19.4062 19.585 19.4246 19.7893 19.6455 19.9549C19.9024 20.147 20.5287 20.2286 20.5287 19.888V18.9697C20.5287 18.6205 19.8624 18.7057 19.6292 18.9121C19.5236 19.0057 19.4062 19.1654 19.4062 19.3524Z" fill="white"/>
<path fill-rule="evenodd" clip-rule="evenodd" d="M19.4062 12.595C19.4062 12.8285 19.4162 12.9887 19.6154 13.1767C19.8363 13.3851 20.5287 13.4858 20.5287 13.1307V12.2124C20.5287 11.7864 19.4062 11.9514 19.4062 12.595Z" fill="white"/>
<path fill-rule="evenodd" clip-rule="evenodd" d="M19.4063 17.1083C19.4063 17.3429 19.4042 17.4598 19.5991 17.6552C19.8279 17.8843 20.0185 17.848 20.3246 17.848C20.4481 17.848 20.5287 17.7674 20.5287 17.644V16.6746C20.5287 16.4463 20.156 16.496 20.0185 16.496C19.7218 16.496 19.4063 16.809 19.4063 17.1083Z" fill="white"/>
<path fill-rule="evenodd" clip-rule="evenodd" d="M8.5918 18.741C8.5918 19.398 9.51168 19.3052 9.51168 18.7666C9.51168 18.1549 8.5918 18.1347 8.5918 18.741Z" fill="white"/>
<path fill-rule="evenodd" clip-rule="evenodd" d="M7.46875 17.465C7.63992 17.3503 7.90828 16.9481 8.53453 16.7964C9.04548 16.6722 9.52633 16.722 9.96918 16.9545C10.1852 17.068 10.3829 17.219 10.5434 17.4005C10.5959 17.4602 10.5475 17.4423 10.6319 17.465C10.6319 17.2814 10.6669 9.41414 10.6181 9.11503C10.5258 8.5464 10.2276 8.12209 9.75643 7.88546C8.83988 7.42494 7.66084 7.93722 7.47844 9.05995C7.47462 9.08341 7.47156 9.16832 7.46875 9.30168V17.465Z" fill="white"/>
</svg>
