<svg width="29" height="28" viewBox="0 0 29 28" fill="none" xmlns="http://www.w3.org/2000/svg">
<path fill-rule="evenodd" clip-rule="evenodd" d="M7.82031 13.7922C7.82031 14.6964 8.68944 14.5317 9.42751 14.5317V19.9141C9.42751 20.1521 9.6684 20.2715 9.93785 20.2715H12.8967C13.0322 20.2715 13.1698 20.2517 13.2482 20.1887C13.3155 20.1353 13.407 20.0254 13.407 19.9141V16.6236H15.2947V19.9141C15.2947 20.1521 15.5356 20.2715 15.805 20.2715H18.7639C19.0333 20.2715 19.2742 20.1521 19.2742 19.9141V14.5317H20.1924C20.5761 14.5317 20.8814 14.2183 20.8814 13.9196C20.8814 13.429 20.6361 13.3389 20.199 12.9179L18.9828 11.813C18.8905 11.742 18.862 11.7076 18.7836 11.6292L15.097 8.27573C14.2733 7.43955 14.0184 7.93818 13.4144 8.44267L12.2011 9.5505C12.1198 9.63251 12.0898 9.66033 12.0005 9.73209L8.31968 13.0922C8.12711 13.2415 7.82031 13.5249 7.82031 13.7922Z" fill="white"/>
<path fill-rule="evenodd" clip-rule="evenodd" d="M19.5546 11.2916V9.17475C19.5568 8.42424 19.2258 8.58752 18.0242 8.58752C17.5476 8.58752 17.0716 8.58752 16.5957 8.58752C16.625 8.66953 16.6382 8.64244 16.7546 8.76032L17.5066 9.43688C17.5761 9.49546 17.6186 9.55477 17.686 9.61408C17.7628 9.68217 17.8009 9.70194 17.8771 9.78029L19.5546 11.2916Z" fill="white"/>
</svg>
