<svg width="29" height="28" viewBox="0 0 29 28" fill="none" xmlns="http://www.w3.org/2000/svg">
<path d="M14.5936 17.7462C16.6365 17.7462 18.2926 16.0901 18.2926 14.0472C18.2926 12.0043 16.6365 10.3481 14.5936 10.3481C12.5506 10.3481 10.8945 12.0043 10.8945 14.0472C10.8945 16.0901 12.5506 17.7462 14.5936 17.7462Z" fill="white"/>
<path fill-rule="evenodd" clip-rule="evenodd" d="M20.249 19.9195C20.249 19.6458 20.6846 19.6458 20.6846 19.9195C20.6846 20.1956 20.249 20.1956 20.249 19.9195ZM8.50201 19.9195C8.50201 19.6458 8.93761 19.6458 8.93761 19.9195C8.93761 20.1956 8.50201 20.1956 8.50201 19.9195ZM9.37083 17.9629C9.37083 17.6867 9.80643 17.6867 9.80643 17.9629C9.80643 18.2366 9.37083 18.2366 9.37083 17.9629ZM8.50201 15.7872C8.50201 15.5135 8.93761 15.5135 8.93761 15.7872C8.93761 16.061 8.50201 16.061 8.50201 15.7872ZM8.50201 12.3072C8.50201 12.0311 8.93761 12.0311 8.93761 12.3072C8.93761 12.5809 8.50201 12.5809 8.50201 12.3072ZM9.37083 10.1316C9.37083 9.85544 9.80643 9.85544 9.80643 10.1316C9.80643 10.4053 9.37083 10.4053 9.37083 10.1316ZM20.249 8.17254C20.249 7.8988 20.6846 7.8988 20.6846 8.17254C20.6846 8.44866 20.249 8.44866 20.249 8.17254ZM8.50201 8.17254C8.50201 7.8988 8.93761 7.8988 8.93761 8.17254C8.93761 8.44866 8.50201 8.44866 8.50201 8.17254ZM8.06641 8.11779C8.06641 8.87712 8.92571 9.05564 9.2661 8.52959C9.31132 8.46294 9.31608 8.39153 9.39939 8.39153H12.0368C12.132 8.39153 12.4367 8.86046 12.5057 8.95329C12.6152 9.09849 12.8913 9.40079 12.9342 9.56027C12.3343 9.70071 11.8488 10.1554 11.4393 10.4291C11.3941 10.3624 11.3037 10.2577 11.2418 10.1911C11.168 10.1149 11.1204 10.0221 11.0371 9.96255C10.8847 9.85067 10.4467 9.91256 10.2158 9.91256C10.1563 9.80069 10.1111 9.71262 10.0111 9.6293C9.58744 9.28416 8.93761 9.52933 8.93761 10.1863C8.93761 10.8052 9.80167 11.0051 10.1373 10.4886C10.2754 10.2768 10.2397 10.3482 10.7324 10.3482C10.8062 10.3482 10.8942 10.4672 10.9371 10.5243C11.0061 10.61 11.0609 10.6528 11.1132 10.729C11.0847 10.8314 10.9347 10.9647 10.8609 11.048C10.7609 11.1599 10.6991 11.2527 10.6181 11.3765L10.2968 11.9263C10.1801 12.1715 10.1801 12.0882 9.39939 12.0882C9.30418 12.0882 9.22563 11.8787 9.15422 11.8168C8.73766 11.4574 8.06641 11.6931 8.06641 12.3619C8.06641 12.9094 8.75194 13.1094 9.12327 12.8213C9.23753 12.7333 9.278 12.6523 9.34465 12.5238H10.0516C9.98496 12.6642 9.92545 12.9499 9.88974 13.1236C9.77787 13.6902 9.77311 14.3805 9.88498 14.947C9.92307 15.135 9.98258 15.4254 10.0516 15.5706H9.34465C9.28514 15.4564 9.23991 15.3683 9.13994 15.285C8.71862 14.9422 8.06641 15.185 8.06641 15.842C8.06641 16.4609 8.93047 16.6608 9.2661 16.1443C9.40892 15.9277 9.34703 16.0038 10.1611 16.0038C10.2349 16.0038 10.5062 16.5489 10.6062 16.7013C10.6943 16.8322 10.7514 16.9084 10.849 17.0298L11.1132 17.3368C11.0894 17.4225 10.8181 17.7439 10.7324 17.7439C9.92307 17.7439 10.3896 17.7891 10.0254 17.4725C9.60886 17.1131 8.93761 17.3487 8.93761 18.0176C8.93761 18.5651 9.62315 18.7674 9.99448 18.477C10.1087 18.3889 10.1468 18.308 10.2158 18.1795C11.0894 18.1795 10.8585 18.3032 11.2418 17.901C11.3037 17.8367 11.3941 17.732 11.4393 17.6629C11.9059 17.9771 11.8964 18.0557 12.5081 18.3628C12.6247 18.4199 12.808 18.5032 12.9342 18.5341C12.908 18.6317 12.7938 18.7579 12.7271 18.8436C12.6462 18.9531 12.5867 19.0316 12.5057 19.1387C12.4367 19.2316 12.132 19.7029 12.0368 19.7029H9.39939C9.28276 19.7029 9.22087 19.2673 8.66387 19.2673C8.27826 19.2673 8.06641 19.6172 8.06641 19.9742C8.06641 20.5455 8.93761 20.905 9.34465 20.1385C10.2611 20.1385 11.1775 20.1337 12.0916 20.1385C12.3439 20.1409 12.3724 20.0599 12.5105 19.8766C12.8057 19.4839 13.1222 19.1054 13.396 18.696C13.7268 18.7246 14.0172 18.8317 14.3743 18.8317C14.6742 18.8317 15.0313 18.8317 15.3074 18.7865C15.474 18.7603 15.643 18.7079 15.7906 18.696C16.0548 19.0935 16.3762 19.4791 16.6642 19.8624C16.7999 20.0433 16.8332 20.1409 17.0926 20.1385C18.0091 20.1337 18.9255 20.1385 19.8419 20.1385C19.9919 20.4217 20.1799 20.5741 20.5203 20.5741C20.9083 20.5741 21.1202 20.2242 21.1202 19.8671C21.1202 19.2482 20.2561 19.0459 19.9181 19.5624C19.8752 19.6315 19.8705 19.7029 19.7872 19.7029H17.1498C17.0546 19.7029 16.7499 19.2316 16.6785 19.1387C16.5999 19.0316 16.538 18.9531 16.4571 18.8436C16.3928 18.7579 16.2786 18.6317 16.2524 18.5341C16.9308 18.3747 16.757 17.989 16.469 17.989C16.3119 17.989 14.6956 18.8888 12.808 18.0081C12.6771 17.9462 12.5676 17.8938 12.4486 17.8224C12.0059 17.5534 11.5822 17.244 11.2632 16.8322C11.018 16.5156 10.8038 16.2014 10.6324 15.8325C10.0159 14.5138 10.1611 12.7333 11.0252 11.5669C11.3394 11.148 11.694 10.7933 12.113 10.4791C12.5629 10.1482 13.0746 9.95541 13.6245 9.81497C14.4933 9.59598 15.4812 9.70071 16.2976 10.0578C16.7403 10.2506 16.8427 9.81021 16.5475 9.67215C16.4738 9.63883 16.3262 9.57694 16.2524 9.56027C16.2952 9.40079 16.5713 9.09849 16.6785 8.95329C16.7499 8.86046 17.0546 8.39153 17.1498 8.39153H19.7872C19.8872 8.39153 19.9538 8.601 20.0276 8.66765C20.4061 9.01042 21.1202 8.81047 21.1202 8.11779C21.1202 7.56793 20.4346 7.37275 20.0585 7.65601C19.9586 7.72742 19.8991 7.84405 19.8419 7.95593C18.9255 7.95593 18.0091 7.96069 17.0926 7.95355C16.8427 7.95355 16.8118 8.0321 16.6761 8.21538C16.5713 8.35582 16.4857 8.47008 16.3833 8.60338L15.7906 9.39603C15.5169 9.39127 15.205 9.26035 14.8099 9.26035C14.5124 9.26035 14.1553 9.26035 13.8768 9.30796C13.7126 9.33414 13.5436 9.38413 13.396 9.39603L12.3701 8.02972C12.2963 7.95355 12.2344 7.95355 12.0916 7.95355C11.1775 7.96069 10.2611 7.95593 9.34465 7.95593C8.93999 7.18946 8.06641 7.54651 8.06641 8.11779Z" fill="white"/>
<path fill-rule="evenodd" clip-rule="evenodd" d="M19.3806 17.9624C19.3806 17.6863 19.8138 17.6863 19.8138 17.9624C19.8138 18.2362 19.3806 18.2362 19.3806 17.9624ZM20.2494 15.7868C20.2494 15.5131 20.6851 15.5131 20.6851 15.7868C20.6851 16.0606 20.2494 16.0606 20.2494 15.7868ZM20.2494 12.3068C20.2494 12.0307 20.6851 12.0307 20.6851 12.3068C20.6851 12.5805 20.2494 12.5805 20.2494 12.3068ZM19.3806 10.1311C19.3806 9.85503 19.8138 9.85503 19.8138 10.1311C19.8138 10.4049 19.3806 10.4049 19.3806 10.1311ZM18.9712 9.91216C18.7403 9.91216 18.3023 9.85027 18.15 9.96215L17.7477 10.4287C17.6549 10.3668 17.6072 10.3263 17.5144 10.2549C17.4573 10.2121 17.3311 10.1026 17.2573 10.1026C17.0931 10.1026 16.8693 10.3287 17.1336 10.5287C17.2121 10.5882 17.2621 10.6167 17.3335 10.681C17.4025 10.7429 17.4597 10.7786 17.5239 10.8429C18.1381 11.4522 18.4785 11.9521 18.7498 12.7995C18.8046 12.9661 18.8569 13.2018 18.8831 13.3732L18.945 14.0182C18.9545 14.3015 18.845 14.9799 18.7641 15.2536C18.2238 17.0722 17.0145 17.4983 17.0145 17.7434C17.0145 17.8648 17.124 17.9886 17.2312 17.9886C17.3883 17.9886 17.6263 17.7434 17.7477 17.6625L18.15 18.1314C18.3023 18.2433 18.7403 18.179 18.9712 18.179C19.1378 18.4933 19.2711 18.6146 19.652 18.6146C19.9852 18.6146 20.2494 18.329 20.2494 17.9077C20.2494 17.3412 19.4116 17.0508 19.0497 17.6054C18.9331 17.7815 19.0688 17.7434 18.4547 17.7434C18.3666 17.7434 18.0928 17.4078 18.0738 17.3364C18.1166 17.2721 18.3594 17.0317 18.5808 16.7009C18.6665 16.5723 18.7165 16.4819 18.7974 16.3462C19.045 15.932 18.7379 16.0034 19.7877 16.0034C19.871 16.0034 19.8662 16.0582 19.9091 16.1272C20.2447 16.6604 21.1207 16.5128 21.1207 15.7321C21.1207 15.2512 20.4994 14.9394 20.059 15.2679C19.959 15.3417 19.8995 15.4583 19.8424 15.5702H19.1354C19.1878 15.4583 19.2711 15.0965 19.2997 14.9466C19.4401 14.2467 19.3997 13.5255 19.2283 12.8376C19.1949 12.709 19.1616 12.6376 19.1354 12.5234H19.8424C20.2733 13.3398 21.1207 12.8685 21.1207 12.3615C21.1207 11.576 20.2494 11.4427 19.9186 11.9497C19.7829 12.1592 19.8734 12.0878 19.0259 12.0878C18.9331 12.0878 18.8998 11.9307 18.7927 11.7498C18.7141 11.6165 18.6665 11.5189 18.5808 11.3927L18.2023 10.8976C18.1357 10.8286 18.1 10.8262 18.0738 10.7286C18.1 10.6881 18.369 10.3478 18.4547 10.3478C19.2806 10.3478 18.8331 10.3311 19.1569 10.6239C19.4901 10.9262 20.2494 10.8357 20.2494 10.0764C20.2494 9.59319 19.6282 9.28375 19.1878 9.61224C19.0902 9.68603 19.0307 9.80266 18.9712 9.91216Z" fill="white"/>
<path fill-rule="evenodd" clip-rule="evenodd" d="M10.6777 13.8827C10.6777 14.535 10.723 15.0063 10.9777 15.568L11.2657 16.1226C11.4299 16.3964 11.5109 16.5487 11.737 16.5487C11.8417 16.5487 11.9274 16.4083 11.9155 16.3107C11.9036 16.2107 11.6822 15.9655 11.5846 15.7775C11.0514 14.7754 10.9348 13.6804 11.4299 12.6236C11.7346 11.9737 12.244 11.3548 12.8795 11.0287C12.9771 10.9764 13.0628 10.9359 13.1699 10.8835C13.846 10.5408 14.6005 10.5122 15.367 10.6622C15.6145 10.7121 15.8121 10.7883 16.0168 10.8835C16.4239 11.0716 16.7143 11.2596 17.0475 11.5929C17.1975 11.7428 17.3212 11.888 17.4426 12.0666C18.2305 13.2282 18.2615 14.5016 17.6116 15.7608C17.3641 16.2393 16.7857 16.8177 16.3072 17.0653C16.2096 17.1152 16.1215 17.1557 16.0168 17.2105C15.1837 17.6318 14.0269 17.6127 13.1699 17.2105C13.1081 17.1819 13.0771 17.1724 13.0224 17.1414C12.97 17.1129 12.9295 17.0914 12.8795 17.0653C12.6986 16.9724 12.4368 16.7463 12.3487 16.7272C12.1654 16.6868 11.9131 16.9439 12.2583 17.1986C12.8581 17.6365 13.6674 17.9626 14.4291 17.9626C15.1647 17.9626 15.6407 17.9031 16.262 17.5913C17.1451 17.1462 17.6926 16.5987 18.1377 15.7156C18.4471 15.0967 18.509 14.6159 18.509 13.8827C18.509 12.8925 18.0211 11.9404 17.3593 11.2787C16.6809 10.6027 15.7455 10.1313 14.7552 10.1313C13.9483 10.1313 13.6246 10.1837 12.9224 10.5003C11.668 11.0644 10.6777 12.4831 10.6777 13.8827Z" fill="white"/>
<path fill-rule="evenodd" clip-rule="evenodd" d="M13.0703 12.3069C13.0703 12.4378 13.156 12.5235 13.2893 12.5235C13.4274 12.5235 14.4128 11.8284 14.5937 11.707C14.7722 11.8284 15.7577 12.5235 15.8981 12.5235C16.0291 12.5235 16.1171 12.4378 16.1171 12.3069C16.1171 12.1093 15.653 11.8713 15.4102 11.707C14.4461 11.0667 14.7413 11.0667 13.7773 11.707C13.6464 11.7951 13.525 11.876 13.3869 11.9689C13.2631 12.0498 13.0703 12.1307 13.0703 12.3069Z" fill="white"/>
<path fill-rule="evenodd" clip-rule="evenodd" d="M13.0703 15.7869C13.0703 15.9845 13.5345 16.2225 13.7773 16.3844C14.7413 17.0271 14.4461 17.0271 15.4102 16.3844C15.653 16.2225 16.1171 15.9845 16.1171 15.7869C16.1171 15.656 16.0291 15.5703 15.8981 15.5703C15.7696 15.5703 15.3507 15.8798 15.2293 15.9607C15.0079 16.1083 14.8056 16.2416 14.5937 16.3844C14.4128 16.2654 13.4274 15.5703 13.2893 15.5703C13.156 15.5703 13.0703 15.656 13.0703 15.7869Z" fill="white"/>
<path fill-rule="evenodd" clip-rule="evenodd" d="M11.5469 14.0478C11.5469 14.3392 11.984 14.3392 11.984 14.0478C11.984 13.7539 11.5469 13.7539 11.5469 14.0478Z" fill="white"/>
<path fill-rule="evenodd" clip-rule="evenodd" d="M17.2051 14.0478C17.2051 14.3392 17.6398 14.3392 17.6398 14.0478C17.6398 13.7539 17.2051 13.7539 17.2051 14.0478Z" fill="white"/>
</svg>
