<svg width="28" height="28" viewBox="0 0 28 28" fill="none" xmlns="http://www.w3.org/2000/svg">
<path fill-rule="evenodd" clip-rule="evenodd" d="M13.8745 12.8647H14.6863C15.3052 12.8647 15.742 13.2878 15.742 13.8984V16.8738C15.742 17.3022 15.5357 17.6959 15.1874 17.8673C14.7479 18.0789 14.255 17.9557 14.0004 17.6076C13.7888 17.321 13.7754 17.1817 13.7754 16.7024C13.7754 15.9471 13.7754 15.1946 13.7754 14.4394C13.5155 14.4179 13.3574 14.3322 13.2154 14.1876C13.1484 14.1207 13.0948 14.0511 13.0519 13.9546C12.8617 13.5128 13.1189 12.8647 13.8745 12.8647ZM13.7754 11.4881C13.7754 10.4383 15.2409 10.1357 15.6536 11.0864C15.8706 11.5899 15.6482 12.155 15.1766 12.3746C14.8015 12.5486 14.3728 12.4656 14.0781 12.1951C14.0219 12.1443 13.904 11.9755 13.8718 11.9059C13.8316 11.8175 13.7754 11.6167 13.7754 11.4881ZM9.83945 14.2439C9.54204 14.2439 9.65993 13.6333 9.69744 13.3414C9.73228 13.0762 9.82873 12.6477 9.91715 12.4013C10.3164 11.2873 10.9782 10.4276 11.9454 9.78218C12.224 9.59471 12.3982 9.51705 12.6929 9.37511C12.8135 9.31619 13.4431 9.08052 13.5798 9.0832C13.7378 9.08587 13.8289 9.26263 13.7218 9.39385C13.6682 9.45813 13.6092 9.45813 13.5155 9.48223C13.4244 9.50901 13.3815 9.52508 13.2877 9.55186C12.9153 9.65363 12.4571 9.90001 12.1329 10.1169C12.0097 10.1973 11.8972 10.2669 11.79 10.3633C11.5783 10.5508 11.372 10.7329 11.1871 10.9418C11.1389 10.9954 11.1148 11.0328 11.0639 11.0891L10.7022 11.614C10.5548 11.8577 10.4343 12.1041 10.3271 12.396C10.0056 13.2637 10.0484 14.0484 10.0136 14.1207C9.98949 14.1689 9.90911 14.2439 9.83945 14.2439ZM14.7345 9.32422C14.4907 9.32422 14.1692 9.38582 14.1692 9.15283C14.1692 9.02428 14.2442 8.96536 14.3648 8.95733C14.5175 8.94393 14.9569 8.85288 14.9569 9.12872C14.9569 9.22513 14.8444 9.32422 14.7345 9.32422ZM9.25 13.8234C9.25 14.8089 9.35449 15.5695 9.76443 16.381C9.885 16.6193 10.0243 16.9005 10.1797 17.1228L10.8522 17.9503L11.1925 18.2503C11.7257 18.6627 11.7418 18.6949 12.4062 19.0296C13.8048 19.734 15.6884 19.7286 17.095 19.0377C17.1325 19.0189 17.162 19.0082 17.1968 18.9921C17.8667 18.6868 18.6731 18.0253 19.1099 17.4362C19.1608 17.3665 19.2063 17.3103 19.2545 17.238C19.3081 17.163 19.3376 17.1228 19.3858 17.0478C20.0208 15.9927 20.27 15.2562 20.27 13.8743C20.27 12.487 19.6029 11.0971 18.6571 10.1518C18.3945 9.89198 18.2203 9.75272 17.9363 9.54115C17.1888 8.98678 15.9751 8.53687 14.9301 8.53687C13.9575 8.53687 13.21 8.66006 12.4223 9.05374C12.1865 9.17157 11.9025 9.31351 11.6801 9.46884C11.147 9.84109 10.6298 10.3124 10.2628 10.8534C9.69209 11.6917 9.25 12.7281 9.25 13.8234Z" fill="white"/>
<path fill-rule="evenodd" clip-rule="evenodd" d="M13.3809 13.6035C13.3809 14.1525 13.8765 14.0267 13.9917 14.0508C14.0748 14.0668 14.1471 14.1365 14.1632 14.2222C14.19 14.3561 14.1686 16.4932 14.1686 16.8253C14.1686 17.1092 14.1552 17.1681 14.2811 17.3529C14.5732 17.784 15.3475 17.6046 15.3475 16.9726V13.799C15.3475 13.5285 15.0769 13.2581 14.8063 13.2581H13.7265C13.5711 13.2581 13.3809 13.4482 13.3809 13.6035Z" fill="white"/>
<path fill-rule="evenodd" clip-rule="evenodd" d="M14.1699 11.4403C14.1699 12.298 15.3497 12.298 15.3497 11.4403C15.3497 11.1375 15.0923 10.8989 14.7116 10.8989C14.4407 10.8989 14.1699 11.1696 14.1699 11.4403Z" fill="white"/>
</svg>
